<?xml version="1.0" standalone="no"?>
<!DOCTYPE svg PUBLIC "-//W3C//DTD SVG 1.1//EN" "http://www.w3.org/Graphics/SVG/1.1/DTD/svg11.dtd" >
<svg>
<metadata>
Created by FontForge 20090914 at Mon Apr 29 08:30:40 2013
 By www-data
Copyright (c) 2006-2011 by Titus Nemeth. Published by Rosetta. All rights reserved.
</metadata>
<defs>
<font id="NassimArabic-Smbd" horiz-adv-x="0" >
  <font-face 
    font-family="Nassim Arabic Smbd"
    font-weight="600"
    font-stretch="normal"
    units-per-em="1000"
    panose-1="2 3 7 0 0 0 0 0 0 0"
    ascent="600"
    descent="-400"
    x-height="386.999"
    cap-height="527"
    bbox="-147 -702.002 980 1053"
    underline-thickness="50"
    underline-position="15"
    unicode-range="U+0020-U+FEFC"
  />
<missing-glyph horiz-adv-x="355" 
d="M355 0h-355v498h355v-498zM299 462h-242l121 -181zM320 67v363l-121 -181zM57 36h242l-121 181zM36 430v-363l120 182z" />
    <glyph glyph-name="ff" unicode="ff" horiz-adv-x="616" 
d="M42 0l7.00391 37.998c16.667 2.66699 28.167 7 34.5 13s9.5 15.667 9.5 29v244l-83 22l8 35h76c1.33301 62.667 20.666 109.334 57.999 140.001s95.333 46 174 46c9.33301 0 20.666 -0.666992 33.999 -2l-30 -92c-25.333 13.333 -54 20 -86 20
c-16.667 0 -29.334 -1.33301 -38.001 -4c-6.66699 -18.667 -10 -47 -10 -85v-23h195c2 62.667 21.667 109.334 59 140.001s95.333 46 174 46c9.33301 0 20.666 -0.666992 33.999 -2l-30 -92c-24.667 13.333 -53 20 -85 20c-17.333 0 -30 -1.33301 -38 -4
c-6.66699 -16 -10 -44.333 -10 -85v-23h104l-11 -57h-93v-271l78 -15l-7 -38h-226l8 38c16 2.66699 27.167 7 33.5 13s9.5 15.667 9.5 29v244h-195v-271l79 -15l-7 -38h-226z" />
    <glyph glyph-name="fi" unicode="fi" horiz-adv-x="567" 
d="M41 0l7.99902 38c16.667 2.66699 28.167 7 34.5 13s9.5 15.667 9.5 29v244l-83 22l8 35h76c4 124 75.667 186 215 186c12 0 23.333 -1.33301 34 -4l-28 -89c-21.333 11.333 -44.333 17 -69 17c-13.333 0 -26.666 -1.33301 -39.999 -4c-6.66699 -18.667 -10 -48 -10 -88
v-18h292v-328l62 -15l-7 -38h-210l8 38c16 2.66699 27.167 7 33.5 13s9.5 15.667 9.5 29v244h-188v-271l74 -15l-7 -38h-222zM375.999 514c0 35.333 19.999 52.999 59.999 52.999c38 0 57 -17.667 57 -53c0 -36 -19 -54 -57 -54c-21.333 0 -36.666 4.33301 -45.999 13
s-14 22.334 -14 41.001z" />
    <glyph glyph-name="fl" unicode="fl" horiz-adv-x="558" 
d="M41 0l8.00098 38c16.667 2.66699 28.167 7 34.5 13s9.5 15.667 9.5 29v244l-83 22l8 35h76c0.666992 58 18.667 103.5 54 136.5s82.666 49.5 141.999 49.5c42.667 0 79 -11.333 109 -34l69 34h12v-514l63 -15l-8 -38h-210l8 38c16.667 2.66699 28.167 7 34.5 13
s9.5 15.667 9.5 29v368c-28 30 -65.667 45 -113 45c-21.333 0 -40.333 -3.33301 -57 -10c-6.66699 -15.333 -10 -43.333 -10 -84v-18h104l-12 -57h-93v-271l74 -15l-7 -38h-222z" />
    <glyph glyph-name="ffi" unicode="ffi" horiz-adv-x="865" 
d="M786 381l0.00292969 -328.001l62 -15l-7 -38h-210l8 38c16.667 2.66699 28.167 7 34.5 13s9.5 15.667 9.5 29v244h-188v-271l73 -15l-7 -38h-221l8 38c16 2.66699 27.167 7 33.5 13s9.5 15.667 9.5 29v244h-195v-271l76 -15l-7 -38h-224l8 38
c16.667 2.66699 28.167 7 34.5 13s9.5 15.667 9.5 29v244l-83 22l8 35h76c1.33301 62.667 20.666 109.334 57.999 140.001s95.333 46 174 46c2.66699 0 7.16699 -0.166992 13.5 -0.5s13.166 -0.833008 20.499 -1.5l-30 -92c-25.333 13.333 -54 20 -86 20
c-16.667 0 -29.334 -1.33301 -38.001 -4c-6.66699 -18.667 -10 -47 -10 -85v-23h196c4 124 76 186 216 186c12 0 23.333 -1.33301 34 -4l-28 -89c-22.667 11.333 -46 17 -70 17c-14 0 -27 -1.33301 -39 -4c-6.66699 -16 -10 -45.333 -10 -88v-18h291zM674.003 513.999
c0 35.333 19.999 52.999 59.999 52.999c38 0 57 -17.667 57 -53c0 -36 -19 -54 -57 -54c-21.333 0 -36.666 4.33301 -45.999 13s-14 22.334 -14 41.001z" />
    <glyph glyph-name="ffl" unicode="ffl" horiz-adv-x="853" 
d="M18 381l76.0049 -0.00195312c1.33301 62.667 20.666 109.334 57.999 140.001s95.333 46 174 46c9.33301 0 20.666 -0.666992 33.999 -2l-30 -92c-25.333 13.333 -54 20 -86 20c-16.667 0 -29.334 -1.33301 -38.001 -4c-6.66699 -18.667 -10 -47 -10 -85v-23h195
c1.33301 58 19.666 103.5 54.999 136.5s82.666 49.5 141.999 49.5c42 0 78.667 -11.333 110 -34l68 34h12v-514l60 -15l-7 -38h-205l8 38c27.333 4.66699 41 18.667 41 42v368c-28 30 -65.667 45 -113 45c-21.333 0 -40.333 -3.33301 -57 -10
c-6.66699 -15.333 -10 -41.666 -10 -78.999v-23h104l-11 -57h-93v-271l73 -15l-7 -38h-221l8 38c16 2.66699 27.167 7 33.5 13s9.5 15.667 9.5 29v244h-195v-271l76 -15l-7 -38h-224l8 38c16.667 2.66699 28.167 7 34.5 13s9.5 15.667 9.5 29v244l-83 22z" />
    <glyph glyph-name="uniFEF5" unicode="&#xfedf;&#xfe82;" horiz-adv-x="476" arabic-form="isolated" 
d="M114 3l28.002 102.002c69.333 45.333 118.666 87.666 147.999 126.999c-17.333 24 -40.5 47.833 -69.5 71.5s-58.167 43.5 -87.5 59.5l-22 -37c-8.66699 15.333 -20.667 31.5 -36 48.5s-30 30.167 -44 39.5l30 105c43.333 -20 91 -51.333 143 -94
s92.333 -84.334 121 -125.001c12.667 30.667 19 71 19 121s-6.33301 95.667 -19 137l87 71c11.333 -49.333 17 -101.333 17 -156c0 -88 -22.333 -164.667 -67 -230c26 -46 39.667 -83.333 41 -112c0 -11.333 -3.16699 -28.333 -9.5 -51s-12.833 -39.667 -19.5 -51
c-20.667 -33.333 -60.334 -50 -119.001 -50c-48.667 0 -95.667 8 -141 24zM358.002 102.002c-4.66699 30 -17.666 59.667 -38.999 89c-35.333 -40 -75 -72.667 -119 -98c25.333 -4.66699 52.666 -7 81.999 -7c40 0 65.333 5.33301 76 16zM248.003 714.002
l14.9971 -0.00195312c-3.33301 -26 -8.33301 -47.667 -15 -65c-5.33301 -15.333 -15.166 -26.666 -29.499 -33.999s-43.5 -14 -87.5 -20c-46 -7.33301 -76 -14.833 -90 -22.5s-24.667 -23.167 -32 -46.5h-18c2 34 7.33301 62.333 16 85c7.33301 19.333 19 32.333 35 39
s50.333 13.334 103 20.001c38.667 4.66699 63.334 9.5 74.001 14.5s20.334 14.833 29.001 29.5z" />
    <glyph glyph-name="uniFEF6" unicode="&#xfee0;&#xfe82;" horiz-adv-x="558" arabic-form="final" 
d="M458 621c8.66699 -83.333 12.999 -202.667 12.999 -358c0 -59.333 6.83301 -101.333 20.5 -126s35.834 -37 66.501 -37c8.66699 0 16.5 -5.16699 23.5 -15.5s10.5 -23.166 10.5 -38.499s-3.5 -28 -10.5 -38s-14.833 -15 -23.5 -15c-83.333 0 -131.333 49 -144 147
c-26.667 -70.667 -84.667 -126.334 -174 -167.001l-191 49l15 31c174.667 14.667 288 66 340 154c0 135.333 -8 251 -24 347zM51.999 415.999l31.002 101.999c69.333 -36.667 128.666 -84 177.999 -142s82 -117.333 98 -178l-28 -27c-18 40.667 -44 78.834 -78 114.501
s-68.333 61.5 -103 77.5l-18 -37c-16.667 29.333 -43.334 59.333 -80.001 90zM251.001 705.998l14.9971 -0.00195312c-3.33301 -26 -8.33301 -47.667 -15 -65c-5.33301 -15.333 -15.166 -26.666 -29.499 -33.999s-43.5 -14 -87.5 -20c-46 -7.33301 -76 -14.833 -90 -22.5
s-24.667 -23.167 -32 -46.5h-18c2 34 7.33301 62.333 16 85c7.33301 19.333 19 32.333 35 39s50.333 13.334 103 20.001c38.667 4.66699 63.334 9.5 74.001 14.5s20.334 14.833 29.001 29.5z" />
    <glyph glyph-name="uniFEF7" unicode="&#xfedf;&#xfe84;" horiz-adv-x="472" arabic-form="isolated" 
d="M111 3l28.002 102.002c69.333 45.333 118.666 87.666 147.999 126.999c-17.333 24 -40.5 47.833 -69.5 71.5s-58.167 43.5 -87.5 59.5l-22 -37c-8.66699 15.333 -20.667 31.5 -36 48.5s-30 30.167 -44 39.5l30 105c43.333 -20 91 -51.333 143 -94
s92.333 -84.334 121 -125.001c12.667 30.667 19 71 19 121s-6.33301 95.667 -19 137l87 71c11.333 -49.333 17 -101.333 17 -156c0 -88 -22.333 -164.667 -67 -230c26 -46 39.667 -83.333 41 -112c0 -11.333 -3.16699 -28.333 -9.5 -51s-12.833 -39.667 -19.5 -51
c-20.667 -33.333 -60.334 -50 -119.001 -50c-48.667 0 -95.667 8 -141 24zM355.002 102.002c-4.66699 30 -17.666 59.667 -38.999 89c-35.333 -40 -75 -72.667 -119 -98c25.333 -4.66699 52.666 -7 81.999 -7c40 0 65.333 5.33301 76 16zM141.003 722.002l-34.001 -49.001
c-9.33301 6 -19.333 9 -30 9c-21.333 0 -36.333 -9 -45 -27c13.333 -12 32.333 -18 57 -18c26 0 52.667 8 80 24l-15 -61c-50 -12 -98.667 -35 -146 -69c-4 8 -6 15 -6 21c0 11.333 4.33301 21.333 13 30s18.667 14.334 30 17.001c-31.333 6.66699 -47 22.667 -47 48
c0 26 8.83301 47.833 26.5 65.5s38.834 26.5 63.501 26.5c20 0 37.667 -5.66699 53 -17z" />
    <glyph glyph-name="uniFEF8" unicode="&#xfee0;&#xfe84;" horiz-adv-x="550" arabic-form="final" 
d="M450 621c8.66699 -83.333 12.999 -202.667 12.999 -358c0 -59.333 6.83301 -101.333 20.5 -126s35.834 -37 66.501 -37c8.66699 0 16.5 -5.16699 23.5 -15.5s10.5 -23.166 10.5 -38.499s-3.5 -28 -10.5 -38s-14.833 -15 -23.5 -15c-83.333 0 -131.333 49 -144 147
c-26.667 -70.667 -84.667 -126.334 -174 -167.001l-191 49l15 31c174.667 14.667 288 66 340 154c0 135.333 -8 251 -24 347zM43.999 415.999l31.002 101.999c69.333 -36.667 128.666 -84 177.999 -142s82 -117.333 98 -178l-28 -27c-18 40.667 -44 78.834 -78 114.501
s-68.333 61.5 -103 77.5l-18 -37c-16.667 29.333 -43.334 59.333 -80.001 90zM149.001 720.998l-34.001 -49.001c-8.66699 6 -18.667 9 -30 9c-21.333 0 -36.333 -9 -45 -27c13.333 -12 32.333 -18 57 -18c26 0 52.667 8 80 24l-15 -61c-50 -12 -98.667 -35 -146 -69
c-4 8 -6 15 -6 21c0 11.333 4.33301 21.333 13 30s18.667 14.334 30 17.001c-31.333 6.66699 -47 22.667 -47 48c0 26 8.83301 47.833 26.5 65.5s38.834 26.5 63.501 26.5c20 0 37.667 -5.66699 53 -17z" />
    <glyph glyph-name="uniFEF9" unicode="&#xfedf;&#xfe88;" horiz-adv-x="472" arabic-form="isolated" 
d="M111 3l28.002 102.002c69.333 45.333 118.666 87.666 147.999 126.999c-17.333 24 -40.5 47.833 -69.5 71.5s-58.167 43.5 -87.5 59.5l-22 -37c-8.66699 15.333 -20.667 31.5 -36 48.5s-30 30.167 -44 39.5l30 105c43.333 -20 91 -51.333 143 -94
s92.333 -84.334 121 -125.001c12.667 30.667 19 71 19 121s-6.33301 95.667 -19 137l87 71c11.333 -49.333 17 -101.333 17 -156c0 -88 -22.333 -164.667 -67 -230c26 -46 39.667 -83.333 41 -112c0 -11.333 -3.16699 -28.333 -9.5 -51s-12.833 -39.667 -19.5 -51
c-20.667 -33.333 -60.334 -50 -119.001 -50c-48.667 0 -95.667 8 -141 24zM355.002 102.002c-4.66699 30 -17.666 59.667 -38.999 89c-35.333 -40 -75 -72.667 -119 -98c25.333 -4.66699 52.666 -7 81.999 -7c40 0 65.333 5.33301 76 16zM228.003 -86.998l-34 -49.002
c-8.66699 6 -18.667 9 -30 9c-20.667 0 -35.667 -9 -45 -27c13.333 -12 32.333 -18 57 -18c26 0 53 8 81 24l-16 -61c-22 -5.33301 -46.833 -14.666 -74.5 -27.999s-51.5 -27 -71.5 -41c-3.33301 6.66699 -5 13.334 -5 20.001c0 11.333 4.16699 21.333 12.5 30
s18.166 14.667 29.499 18c-31.333 6.66699 -47 22.667 -47 48c0 26 8.83301 47.833 26.5 65.5s38.834 26.5 63.501 26.5c20 0 37.667 -5.66699 53 -17z" />
    <glyph glyph-name="uniFEFA" unicode="&#xfee0;&#xfe88;" horiz-adv-x="550" arabic-form="final" 
d="M450 621c8.66699 -83.333 12.999 -202.667 12.999 -358c0 -59.333 6.83301 -101.333 20.5 -126s35.834 -37 66.501 -37c8.66699 0 16.5 -5.16699 23.5 -15.5s10.5 -23.166 10.5 -38.499s-3.5 -28 -10.5 -38s-14.833 -15 -23.5 -15c-83.333 0 -131.333 49 -144 147
c-26.667 -70.667 -84.667 -126.334 -174 -167.001l-191 49l15 31c174.667 14.667 288 66 340 154c0 135.333 -8 251 -24 347zM43.999 415.999l31.002 101.999c69.333 -36.667 128.666 -84 177.999 -142s82 -117.333 98 -178l-28 -27c-18 40.667 -44 78.834 -78 114.501
s-68.333 61.5 -103 77.5l-18 -37c-16.667 29.333 -43.334 59.333 -80.001 90zM212.001 -87.002l-34 -49.002c-9.33301 6 -19.333 9 -30 9c-20.667 0 -35.667 -9 -45 -27c13.333 -12 32.333 -18 57 -18c26 0 53 8 81 24l-16 -61c-22 -5.33301 -46.833 -14.666 -74.5 -27.999
s-51.5 -27 -71.5 -41c-3.33301 6.66699 -5 13.334 -5 20.001c0 11.333 4.16699 21.333 12.5 30s18.166 14.667 29.499 18c-31.333 6.66699 -47 22.667 -47 48c0 26 8.83301 47.833 26.5 65.5s38.834 26.5 63.501 26.5c20 0 37.667 -5.66699 53 -17z" />
    <glyph glyph-name="uniFEFB" unicode="&#xfedf;&#xfe8e;" horiz-adv-x="472" arabic-form="isolated" 
d="M111 3l28.002 102.002c69.333 45.333 118.666 87.666 147.999 126.999c-17.333 24 -40.5 47.833 -69.5 71.5s-58.167 43.5 -87.5 59.5l-22 -37c-8.66699 15.333 -20.667 31.5 -36 48.5s-30 30.167 -44 39.5l30 105c43.333 -20 91 -51.333 143 -94
s92.333 -84.334 121 -125.001c12.667 30.667 19 71 19 121s-6.33301 95.667 -19 137l87 71c11.333 -49.333 17 -101.333 17 -156c0 -88 -22.333 -164.667 -67 -230c26 -46 39.667 -83.333 41 -112c0 -11.333 -3.16699 -28.333 -9.5 -51s-12.833 -39.667 -19.5 -51
c-20.667 -33.333 -60.334 -50 -119.001 -50c-48.667 0 -95.667 8 -141 24zM355.002 102.002c-4.66699 30 -17.666 59.667 -38.999 89c-35.333 -40 -75 -72.667 -119 -98c25.333 -4.66699 52.666 -7 81.999 -7c40 0 65.333 5.33301 76 16z" />
    <glyph glyph-name="uniFEFC" unicode="&#xfee0;&#xfe8e;" horiz-adv-x="550" arabic-form="final" 
d="M450 621c8.66699 -83.333 12.999 -202.667 12.999 -358c0 -59.333 6.83301 -101.333 20.5 -126s35.834 -37 66.501 -37c8.66699 0 16.5 -5.16699 23.5 -15.5s10.5 -23.166 10.5 -38.499s-3.5 -28 -10.5 -38s-14.833 -15 -23.5 -15c-83.333 0 -131.333 49 -144 147
c-26.667 -70.667 -84.667 -126.334 -174 -167.001l-191 49l15 31c174.667 14.667 288 66 340 154c0 135.333 -8 251 -24 347zM43.999 415.999l31.002 101.999c69.333 -36.667 128.666 -84 177.999 -142s82 -117.333 98 -178l-28 -27c-18 40.667 -44 78.834 -78 114.501
s-68.333 61.5 -103 77.5l-18 -37c-16.667 29.333 -43.334 59.333 -80.001 90z" />
    <glyph glyph-name="uni06440671" unicode="&#xfedf;&#xfb51;" horiz-adv-x="472" 
d="M111 3l28.002 102.002c69.333 45.333 118.666 87.666 147.999 126.999c-17.333 24 -40.5 47.833 -69.5 71.5s-58.167 43.5 -87.5 59.5l-22 -37c-8.66699 15.333 -20.667 31.5 -36 48.5s-30 30.167 -44 39.5l30 105c43.333 -20 91 -51.333 143 -94
s92.333 -84.334 121 -125.001c12.667 30.667 19 71 19 121s-6.33301 95.667 -19 137l87 71c11.333 -49.333 17 -101.333 17 -156c0 -88 -22.333 -164.667 -67 -230c26 -46 39.667 -83.333 41 -112c0 -11.333 -3.16699 -28.333 -9.5 -51s-12.833 -39.667 -19.5 -51
c-20.667 -33.333 -60.334 -50 -119.001 -50c-48.667 0 -95.667 8 -141 24zM355.002 102.002c-4.66699 30 -17.666 59.667 -38.999 89c-35.333 -40 -75 -72.667 -119 -98c25.333 -4.66699 52.666 -7 81.999 -7c40 0 65.333 5.33301 76 16zM-3.99707 545.002
c-7.33301 12 -11.001 22.998 -11.001 32.998c0 24.667 13.333 40.334 40 47.001c6.66699 29.333 18 52.5 34 69.5s35.333 25.5 58 25.5c16.667 0 30.334 -6.66699 41.001 -20s16 -30.333 16 -51c0 -22 -8.5 -39.833 -25.5 -53.5s-41.167 -20.5 -72.5 -20.5
c-24.667 0 -42.5 -2.16699 -53.5 -6.5s-19.833 -12.166 -26.5 -23.499zM51.002 627c8 -1.33301 18.668 -2 32.001 -2c36 0 54 6.66699 54 20c0 14 -10 21 -30 21c-24.667 0 -43.334 -13 -56.001 -39z" />
    <glyph glyph-name="uni06440671.fina" unicode="&#xfee0;&#xfb51;" horiz-adv-x="550" 
d="M450 621c8.66699 -83.333 12.999 -202.667 12.999 -358c0 -59.333 6.83301 -101.333 20.5 -126s35.834 -37 66.501 -37c8.66699 0 16.5 -5.16699 23.5 -15.5s10.5 -23.166 10.5 -38.499s-3.5 -28 -10.5 -38s-14.833 -15 -23.5 -15c-83.333 0 -131.333 49 -144 147
c-26.667 -70.667 -84.667 -126.334 -174 -167.001l-191 49l15 31c174.667 14.667 288 66 340 154c0 135.333 -8 251 -24 347zM43.999 415.999l31.002 101.999c69.333 -36.667 128.666 -84 177.999 -142s82 -117.333 98 -178l-28 -27c-18 40.667 -44 78.834 -78 114.501
s-68.333 61.5 -103 77.5l-18 -37c-16.667 29.333 -43.334 59.333 -80.001 90zM10.001 545.998c-7.33301 12 -11.001 22.998 -11.001 32.998c0 24.667 13.333 40.334 40 47.001c6.66699 29.333 18 52.5 34 69.5s35.333 25.5 58 25.5c16.667 0 30.334 -6.66699 41.001 -20
s16 -30.333 16 -51c0 -22 -8.5 -39.833 -25.5 -53.5s-41.167 -20.5 -72.5 -20.5c-24.667 0 -42.5 -2.16699 -53.5 -6.5s-19.833 -12.166 -26.5 -23.499zM65 627.996c8 -1.33301 18.668 -2 32.001 -2c36 0 54 6.66699 54 20c0 14 -10 21 -30 21
c-24.667 0 -43.334 -13 -56.001 -39z" />
    <glyph glyph-name="uni0621" unicode="&#x621;" horiz-adv-x="349" arabic-form="isolated" 
d="M63 7c-6.66699 4 -10.001 13.668 -10.001 29.001c0 32 23.333 59.333 70 82c-19.333 4.66699 -34.666 13.167 -45.999 25.5s-17 26.833 -17 43.5c0 42 13.5 79.833 40.5 113.5s59.833 50.5 98.5 50.5c33.333 0 62.666 -12 87.999 -36l-55 -83
c-17.333 13.333 -37 20 -59 20c-12.667 0 -25 -3.33301 -37 -10s-20.667 -15.334 -26 -26.001c20 -26 52.667 -39 98 -39c36 0 76.333 9.33301 121 28l1 -1l-38 -100c-81.333 -16.667 -157.666 -49 -228.999 -97z" />
    <glyph glyph-name="uni0622" unicode="&#x622;" horiz-adv-x="207" arabic-form="isolated" 
d="M149 604l-0.000976562 -29.001c0 -56 2 -136.667 6 -242c4.66699 -87.333 7 -150.333 7 -189c0 -43.333 -2.66699 -74.666 -8 -93.999c-9.33301 -26 -22.666 -49.667 -39.999 -71h-24c0 126.667 -4 235.667 -12 327c-10 104 -15 180.667 -15 230l85 69zM232.999 765.999
l14.9971 -0.00195312c-3.33301 -26 -8.33301 -47.667 -15 -65c-5.33301 -15.333 -15.166 -26.666 -29.499 -33.999s-43.5 -14 -87.5 -20c-46 -7.33301 -76 -14.833 -90 -22.5s-24.667 -23.167 -32 -46.5h-18c2 34 7.33301 62.333 16 85c7.33301 19.333 19 32.333 35 39
s50.333 13.334 103 20.001c38.667 4.66699 63.334 9.5 74.001 14.5s20.334 14.833 29.001 29.5z" />
    <glyph glyph-name="uni0623" unicode="&#x623;" horiz-adv-x="207" arabic-form="isolated" 
d="M149 604l-0.000976562 -29.001c0 -56 2 -136.667 6 -242c4.66699 -87.333 7 -150.333 7 -189c0 -43.333 -2.66699 -74.666 -8 -93.999c-9.33301 -26 -22.666 -49.667 -39.999 -71h-24c0 126.667 -4 235.667 -12 327c-10 104 -15 180.667 -15 230l85 69zM164.999 787.999
l-34.001 -49.001c-9.33301 6 -19.333 9 -30 9c-21.333 0 -36.333 -9 -45 -27c13.333 -12 32.333 -18 57 -18c26 0 52.667 8 80 24l-15 -61c-50 -12 -98.667 -35 -146 -69c-4 8 -6 15 -6 21c0 11.333 4.33301 21.333 13 30s18.667 14.334 30 17.001
c-31.333 6.66699 -47 22.667 -47 48c0 26 8.83301 47.833 26.5 65.5s38.834 26.5 63.501 26.5c20 0 37.667 -5.66699 53 -17z" />
    <glyph glyph-name="uni0624" unicode="&#x624;" horiz-adv-x="388" arabic-form="isolated" 
d="M7 -154c78 20 141.834 46.832 191.501 80.499s81.167 69.834 94.5 108.501c-19.333 -15.333 -42.333 -23 -69 -23c-34 0 -63.667 13.167 -89 39.5s-38 57.5 -38 93.5s12.333 70.333 37 103s51.667 49 81 49c34.667 0 65.5 -21.167 92.5 -63.5s40.5 -92.833 40.5 -151.5
c0 -60.667 -14.833 -116.5 -44.5 -167.5s-69.834 -92.5 -120.501 -124.5l-158 30zM140.001 149.999c16.667 -30.667 47.333 -46.001 92 -46.001c28 0 48.667 3.66699 62 11c-6 26.667 -17.5 47.834 -34.5 63.501s-35.167 23.5 -54.5 23.5c-14 0 -27 -4.83301 -39 -14.5
s-20.667 -22.167 -26 -37.5zM264 524.998l-34.001 -49.001c-8.66699 6 -18.667 9 -30 9c-21.333 0 -36.333 -9 -45 -27c13.333 -12 32.333 -18 57 -18c26 0 52.667 8 80 24l-15 -61c-50 -12 -98.667 -35 -146 -69c-4 8 -6 15 -6 21c0 11.333 4.33301 21.333 13 30
s18.667 14.334 30 17.001c-31.333 6.66699 -47 22.667 -47 48c0 26 8.83301 47.833 26.5 65.5s38.834 26.5 63.501 26.5c20 0 37.667 -5.66699 53 -17z" />
    <glyph glyph-name="uni0625" unicode="&#x625;" horiz-adv-x="210" arabic-form="isolated" 
d="M149 604l-0.000976562 -29.001c0 -56 2 -136.667 6 -242c4.66699 -87.333 7 -150.333 7 -189c0 -43.333 -2.66699 -74.666 -8 -93.999c-9.33301 -26 -22.666 -49.667 -39.999 -71h-24c0 126.667 -4 235.667 -12 327c-10 104 -15 180.667 -15 230l85 69zM180.999 -88.001
l-34 -49.002c-8.66699 6 -18.667 9 -30 9c-20.667 0 -35.667 -9 -45 -27c13.333 -12 32.333 -18 57 -18c26 0 53 8 81 24l-16 -61c-22 -5.33301 -46.833 -14.666 -74.5 -27.999s-51.5 -27 -71.5 -41c-3.33301 6.66699 -5 13.334 -5 20.001c0 11.333 4.16699 21.333 12.5 30
s18.166 14.667 29.499 18c-31.333 6.66699 -47 22.667 -47 48c0 26 8.83301 47.833 26.5 65.5s38.834 26.5 63.501 26.5c20 0 37.667 -5.66699 53 -17z" />
    <glyph glyph-name="uni0626" unicode="&#x626;" horiz-adv-x="630" arabic-form="isolated" 
d="M105 146c-10.667 -25.333 -16.001 -56.334 -16.001 -93.001c0 -102.667 52 -154 156 -154c60.667 0 115.667 8.66699 165 26s86 39.666 110 66.999v1c-11.333 6.66699 -51 17.334 -119 32.001c-39.333 9.33301 -66 19.5 -80 30.5s-21 26.833 -21 47.5
c0 29.333 10 62.333 30 99s46.833 68.834 80.5 96.501s67.5 41.5 101.5 41.5c32 0 59 -8.66699 81 -26l-47 -95c-19.333 12 -40.333 18 -63 18c-23.333 0 -47.333 -8.16699 -72 -24.5s-46.334 -39.833 -65.001 -70.5v-1c16.667 -6.66699 57.334 -17.667 122.001 -33
c40 -9.33301 66.167 -18.333 78.5 -27s18.5 -21 18.5 -37c0 -30.667 -6.33301 -59.667 -19 -87c-22 -48.667 -61.667 -89 -119 -121s-121.333 -48 -192 -48c-62.667 0 -111.5 19 -146.5 57s-52.5 90.333 -52.5 157c0 29.333 4.83301 55.833 14.5 79.5
s19.834 39.167 30.501 46.5zM187.999 362.999l-34.002 -49.001c-8.66699 6 -18.667 9 -30 9c-21.333 0 -36.333 -9 -45 -27c13.333 -12 32.333 -18 57 -18c26.667 0 53.334 8 80.001 24l-15 -61c-50 -12 -98.667 -35 -146 -69c-4 8 -6 15 -6 21
c0 11.333 4.33301 21.333 13 30s18.667 14.334 30 17.001c-31.333 6.66699 -47 22.667 -47 48c0 26 8.83301 47.833 26.5 65.5s38.834 26.5 63.501 26.5c20 0 37.667 -5.66699 53 -17z" />
    <glyph glyph-name="uni0627" unicode="&#x627;" horiz-adv-x="207" arabic-form="isolated" 
d="M149 604l-0.000976562 -29.001c0 -56 2 -136.667 6 -242c4.66699 -87.333 7 -150.333 7 -189c0 -43.333 -2.66699 -74.666 -8 -93.999c-9.33301 -26 -22.666 -49.667 -39.999 -71h-24c0 126.667 -4 235.667 -12 327c-10 104 -15 180.667 -15 230l85 69z" />
    <glyph glyph-name="uni0628" unicode="&#x628;" horiz-adv-x="797" arabic-form="isolated" 
d="M647 282l63 103.998c15.333 -18 28.333 -43.667 39 -77s16 -65.666 16 -96.999c0 -27.333 -7.66699 -55.333 -23 -84s-35.333 -52.334 -60 -71.001c-36 -25.333 -86.833 -45.833 -152.5 -61.5s-136.5 -23.5 -212.5 -23.5c-104 0 -177.333 15.5 -220 46.5
s-64 81.167 -64 150.5c0 27.333 3.5 51.833 10.5 73.5s14.833 35.5 23.5 41.5l25 18c-6 -19.333 -9 -38.666 -9 -57.999c0 -58 19.333 -99.333 58 -124s106 -37 202 -37c72.667 0.666992 142.167 7.5 208.5 20.5s117.5 29.833 153.5 50.5
c-10.667 52.667 -30 95.334 -58 128.001zM402 -158.002l-54.999 -69c-34 16 -59.667 36.667 -77 62l56 69c19.333 -24 44.666 -44.667 75.999 -62z" />
    <glyph glyph-name="uni0629" unicode="&#x629;" horiz-adv-x="341" arabic-form="isolated" 
d="M140 324l18 54c44 -20.667 80.333 -53 109 -97s43 -89 43 -135c0 -44.667 -14 -81.334 -42 -110.001s-64.667 -43 -110 -43c-38 0 -68.5 12.833 -91.5 38.5s-34.5 57.834 -34.5 96.501c0 76 36 141.333 108 196zM158 253c-43.333 -29.333 -65 -62.332 -65 -98.999
c0 -16.667 6.33301 -29.834 19 -39.501s28.667 -14.5 48 -14.5c41.333 0 72.333 12 93 36c-19.333 54 -51 93 -95 117zM276 490.001l-52.999 -66c-25.333 12 -47 28.667 -65 50l-40 -55c-12.667 5.33301 -26 13.5 -40 24.5s-25 22.5 -33 34.5l53 67
c17.333 -24 37 -43 59 -57l46 62c17.333 -22 41.666 -42 72.999 -60z" />
    <glyph glyph-name="uni062A" unicode="&#x62a;" horiz-adv-x="797" arabic-form="isolated" 
d="M647 282l63 103.998c15.333 -18 28.333 -43.667 39 -77s16 -65.666 16 -96.999c0 -27.333 -7.66699 -55.333 -23 -84s-35.333 -52.334 -60 -71.001c-36 -25.333 -86.833 -45.833 -152.5 -61.5s-136.5 -23.5 -212.5 -23.5c-104 0 -177.333 15.5 -220 46.5
s-64 81.167 -64 150.5c0 27.333 3.5 51.833 10.5 73.5s14.833 35.5 23.5 41.5l25 18c-6 -19.333 -9 -38.666 -9 -57.999c0 -58 19.333 -99.333 58 -124s106 -37 202 -37c72.667 0.666992 142.167 7.5 208.5 20.5s117.5 29.833 153.5 50.5
c-10.667 52.667 -30 95.334 -58 128.001zM479 378.998l-52.999 -66c-25.333 12 -47 28.667 -65 50l-40 -55c-12.667 5.33301 -26 13.5 -40 24.5s-25 22.5 -33 34.5l53 67c17.333 -24 37 -43 59 -57l46 62c17.333 -22 41.666 -42 72.999 -60z" />
    <glyph glyph-name="uni062B" unicode="&#x62b;" horiz-adv-x="797" arabic-form="isolated" 
d="M647 282l63 103.998c15.333 -18 28.333 -43.667 39 -77s16 -65.666 16 -96.999c0 -27.333 -7.66699 -55.333 -23 -84s-35.333 -52.334 -60 -71.001c-36 -25.333 -86.833 -45.833 -152.5 -61.5s-136.5 -23.5 -212.5 -23.5c-104 0 -177.333 15.5 -220 46.5
s-64 81.167 -64 150.5c0 27.333 3.5 51.833 10.5 73.5s14.833 35.5 23.5 41.5l25 18c-6 -19.333 -9 -38.666 -9 -57.999c0 -58 19.333 -99.333 58 -124s106 -37 202 -37c72.667 0.666992 142.167 7.5 208.5 20.5s117.5 29.833 153.5 50.5
c-10.667 52.667 -30 95.334 -58 128.001zM409 490.998l-52.001 -64.001c-9.33301 4 -21.666 12.333 -36.999 25s-26.333 23.667 -33 33l54 67c16 -23.333 38.667 -43.666 68 -60.999zM478.999 378.997l-53 -65.999c-25.333 12 -47 28.667 -65 50l-40 -55
c-12.667 5.33301 -26 13.5 -40 24.5s-25 22.5 -33 34.5l50 65c17.333 -22 38 -40.333 62 -55l47 61c18 -22.667 42 -42.334 72 -59.001z" />
    <glyph glyph-name="uni062C" unicode="&#x62c;" horiz-adv-x="556" arabic-form="isolated" 
d="M42 243c-7.33301 7.33301 -11.001 16.6641 -11.001 27.9971c0 23.333 11.667 49.333 35 78c13.333 15.333 28.833 27.833 46.5 37.5s33.5 14.5 47.5 14.5c28.667 0 77 -15.333 145 -46c38 -18 70.833 -30 98.5 -36s63.167 -9.33301 106.5 -10l-41 -96
c-109.333 -1.33301 -201 -25.166 -275 -71.499s-111 -104.166 -111 -173.499c0 -48.667 20.167 -86.167 60.5 -112.5s98.5 -39.5 174.5 -39.5c76.667 0 149.667 10.333 219 31l-4 -29c-2 -13.333 -15.333 -29.166 -40 -47.499s-58.667 -35 -102 -50
s-86.666 -22.5 -129.999 -22.5c-75.333 0 -134.666 19 -177.999 57s-65 91.333 -65 160c0 77.333 24 145.833 72 205.5s113.667 105.5 197 137.5v1c-43.333 22 -88.333 35.333 -135 40c-32.667 -10 -69.334 -28.667 -110.001 -56zM370.999 1.99805l-54.999 -69
c-34 16 -59.667 36.667 -77 62l56 69c19.333 -24 44.666 -44.667 75.999 -62z" />
    <glyph glyph-name="uni062D" unicode="&#x62d;" horiz-adv-x="556" arabic-form="isolated" 
d="M42 243c-7.33301 7.33301 -11.001 16.6641 -11.001 27.9971c0 23.333 11.667 49.333 35 78c13.333 15.333 28.833 27.833 46.5 37.5s33.5 14.5 47.5 14.5c28.667 0 77 -15.333 145 -46c38 -18 70.833 -30 98.5 -36s63.167 -9.33301 106.5 -10l-41 -96
c-109.333 -1.33301 -201 -25.166 -275 -71.499s-111 -104.166 -111 -173.499c0 -48.667 20.167 -86.167 60.5 -112.5s98.5 -39.5 174.5 -39.5c76.667 0 149.667 10.333 219 31l-4 -29c-2 -13.333 -15.333 -29.166 -40 -47.499s-58.667 -35 -102 -50
s-86.666 -22.5 -129.999 -22.5c-75.333 0 -134.666 19 -177.999 57s-65 91.333 -65 160c0 77.333 24 145.833 72 205.5s113.667 105.5 197 137.5v1c-43.333 22 -88.333 35.333 -135 40c-32.667 -10 -69.334 -28.667 -110.001 -56z" />
    <glyph glyph-name="uni062E" unicode="&#x62e;" horiz-adv-x="556" arabic-form="isolated" 
d="M42 243c-7.33301 7.33301 -11.001 16.6641 -11.001 27.9971c0 23.333 11.667 49.333 35 78c13.333 15.333 28.833 27.833 46.5 37.5s33.5 14.5 47.5 14.5c28.667 0 77 -15.333 145 -46c38 -18 70.833 -30 98.5 -36s63.167 -9.33301 106.5 -10l-41 -96
c-109.333 -1.33301 -201 -25.166 -275 -71.499s-111 -104.166 -111 -173.499c0 -48.667 20.167 -86.167 60.5 -112.5s98.5 -39.5 174.5 -39.5c76.667 0 149.667 10.333 219 31l-4 -29c-2 -13.333 -15.333 -29.166 -40 -47.499s-58.667 -35 -102 -50
s-86.666 -22.5 -129.999 -22.5c-75.333 0 -134.666 19 -177.999 57s-65 91.333 -65 160c0 77.333 24 145.833 72 205.5s113.667 105.5 197 137.5v1c-43.333 22 -88.333 35.333 -135 40c-32.667 -10 -69.334 -28.667 -110.001 -56zM217.999 511.998l-54.999 -69
c-34 16 -59.667 36.667 -77 62l56 69c19.333 -24 44.666 -44.667 75.999 -62z" />
    <glyph glyph-name="uni062F" unicode="&#x62f;" horiz-adv-x="440" arabic-form="isolated" 
d="M143 320l24 118.998c84.667 -59.333 142 -109 172 -149s45 -81 45 -123c0 -46.667 -11.667 -86 -35 -118c-28 -37.333 -84.667 -56 -170 -56c-39.333 0 -69.833 9.83301 -91.5 29.5s-32.5 45.5 -32.5 77.5c0 18 2.83301 34.5 8.5 49.5s12.167 25.167 19.5 30.5l22 14
c-4.66699 -13.333 -7 -27.666 -7 -42.999c0 -32.667 30.667 -49 92 -49c68 0 118.667 6.66699 152 20c-8.66699 28.667 -26.5 56.834 -53.5 84.501s-75.5 65.5 -145.5 113.5z" />
    <glyph glyph-name="uni0630" unicode="&#x630;" horiz-adv-x="440" arabic-form="isolated" 
d="M143 320l24 118.998c84.667 -59.333 142 -109 172 -149s45 -81 45 -123c0 -46.667 -11.667 -86 -35 -118c-28 -37.333 -84.667 -56 -170 -56c-39.333 0 -69.833 9.83301 -91.5 29.5s-32.5 45.5 -32.5 77.5c0 18 2.83301 34.5 8.5 49.5s12.167 25.167 19.5 30.5l22 14
c-4.66699 -13.333 -7 -27.666 -7 -42.999c0 -32.667 30.667 -49 92 -49c68 0 118.667 6.66699 152 20c-8.66699 28.667 -26.5 56.834 -53.5 84.501s-75.5 65.5 -145.5 113.5zM230 561.998l-54.999 -69c-34 16 -59.667 36.667 -77 62l56 69
c19.333 -24 44.666 -44.667 75.999 -62z" />
    <glyph glyph-name="uni0631" unicode="&#x631;" horiz-adv-x="381" arabic-form="isolated" 
d="M184 174l52.001 108.001c70 -68.667 105 -146.334 105 -233.001c0 -48 -14 -95.333 -42 -142s-66.667 -85.667 -116 -117l-158 30l-18 26c74 20.667 137.167 48 189.5 82s84.833 68.667 97.5 104c-10.667 44.667 -47.334 92 -110.001 142z" />
    <glyph glyph-name="uni0632" unicode="&#x632;" horiz-adv-x="381" arabic-form="isolated" 
d="M184 174l52.001 108.001c70 -68.667 105 -146.334 105 -233.001c0 -48 -14 -95.333 -42 -142s-66.667 -85.667 -116 -117l-158 30l-18 26c74 20.667 137.167 48 189.5 82s84.833 68.667 97.5 104c-10.667 44.667 -47.334 92 -110.001 142zM287.001 408.001l-54.999 -69
c-34 16 -59.667 36.667 -77 62l56 69c19.333 -24 44.666 -44.667 75.999 -62z" />
    <glyph glyph-name="uni0633" unicode="&#x633;" horiz-adv-x="871" arabic-form="isolated" 
d="M101 149l0.000976562 -1.00098c-12 -24.667 -18 -60 -18 -106c0 -53.333 12.5 -92.666 37.5 -117.999s65.167 -38 120.5 -38c40 0 76.5 5.83301 109.5 17.5s58.167 27.5 75.5 47.5c-3.33301 65.333 -19 123 -47 173l64 77c12.667 -32 28 -56.667 46 -74
s35.333 -26 52 -26c16 0 29.667 8 41 24s23.333 44.333 36 85l40 18l-7 -40c30.667 -50 75.334 -75.667 134.001 -77c-4 46.667 -20.333 86.334 -49 119.001l50 96c16.667 -17.333 30.834 -41.5 42.501 -72.5s17.5 -59.5 17.5 -85.5c0 -32 -8.33301 -64.333 -25 -97
c-22.667 -44.667 -49.334 -67 -80.001 -67c-21.333 0 -43 7.33301 -65 22s-41.333 34.667 -58 60c-18.667 -61.333 -44.667 -92 -78 -92c-24 0 -42.333 11.667 -55 35c0 -68 -14.667 -122.667 -44 -164c-19.333 -26.667 -47.833 -48.334 -85.5 -65.001
s-79.834 -25 -126.501 -25c-64.667 0 -114.834 17.167 -150.501 51.5s-53.5 83.5 -53.5 147.5c0 36 5.33301 69 16 99s22.667 49.667 36 59z" />
    <glyph glyph-name="uni0634" unicode="&#x634;" horiz-adv-x="876" arabic-form="isolated" 
d="M102 149l0.000976562 -1.00098c-12 -24.667 -18 -60 -18 -106c0 -53.333 12.5 -92.666 37.5 -117.999s65.167 -38 120.5 -38c40 0 76.5 5.83301 109.5 17.5s58.167 27.5 75.5 47.5c-3.33301 65.333 -19 123 -47 173l64 77c12.667 -32 28 -56.667 46 -74
s35.333 -26 52 -26c16 0 29.667 8 41 24s23.333 44.333 36 85l40 18l-7 -40c30.667 -50 75.334 -75.667 134.001 -77c-4 46.667 -20.333 86.334 -49 119.001l50 96c16.667 -17.333 30.834 -41.5 42.501 -72.5s17.5 -59.5 17.5 -85.5c0 -32 -8.33301 -64.333 -25 -97
c-22.667 -44.667 -49.334 -67 -80.001 -67c-21.333 0 -43 7.33301 -65 22s-41.333 34.667 -58 60c-18.667 -61.333 -44.667 -92 -78 -92c-24 0 -42.333 11.667 -55 35c0 -68 -14.667 -122.667 -44 -164c-19.333 -26.667 -47.833 -48.334 -85.5 -65.001
s-79.834 -25 -126.501 -25c-64.667 0 -114.834 17.167 -150.501 51.5s-53.5 83.5 -53.5 147.5c0 36 5.33301 69 16 99s22.667 49.667 36 59zM605.001 477.999l-52.001 -64.001c-9.33301 4 -21.666 12.333 -36.999 25s-26.333 23.667 -33 33l54 67
c16 -23.333 38.667 -43.666 68 -60.999zM675 365.998l-53 -65.999c-25.333 12 -47 28.667 -65 50l-40 -55c-12.667 5.33301 -26 13.5 -40 24.5s-25 22.5 -33 34.5l50 65c17.333 -22 38 -40.333 62 -55l47 61c18 -22.667 42 -42.334 72 -59.001z" />
    <glyph glyph-name="uni0635" unicode="&#x635;" horiz-adv-x="943" arabic-form="isolated" 
d="M101 148c-12 -26 -17.9971 -61.333 -17.9971 -106c0 -53.333 12.5 -92.666 37.5 -117.999s65.167 -38 120.5 -38c40 0 76.5 5.83301 109.5 17.5s58.167 27.5 75.5 47.5c-1.33301 30 -6.83301 61.833 -16.5 95.5s-19.834 59.5 -30.501 77.5l62 73
c19.333 -39.333 43.666 -67.666 72.999 -84.999c34 64 77 119 129 165s100.333 69 145 69c32.667 0 61.667 -15.5 87 -46.5s38 -66.833 38 -107.5c0 -12 -5 -28.5 -15 -49.5s-22.333 -40.833 -37 -59.5c-20.667 -26.667 -56.167 -48.334 -106.5 -65.001
s-98.5 -25 -144.5 -25c-54 0 -95.667 10 -125 30c0 -64 -14.667 -116.667 -44 -158c-18.667 -26.667 -47 -48.334 -85 -65.001s-80.333 -25 -127 -25c-64.667 0 -114.834 17.167 -150.501 51.5s-53.5 83.5 -53.5 147.5c0 36.667 5.16699 70 15.5 100s22.5 49.333 36.5 58z
M859.003 146c-6 28 -17.6709 50.5 -35.0039 67.5s-38.333 25.5 -63 25.5c-29.333 0 -64.166 -13.667 -104.499 -41s-75.166 -59 -104.499 -95c14.667 -3.33301 35.334 -5 62.001 -5c114.667 0 196.334 16 245.001 48z" />
    <glyph glyph-name="uni0636" unicode="&#x636;" horiz-adv-x="943" arabic-form="isolated" 
d="M101 148c-12 -26 -17.9971 -61.333 -17.9971 -106c0 -53.333 12.5 -92.666 37.5 -117.999s65.167 -38 120.5 -38c40 0 76.5 5.83301 109.5 17.5s58.167 27.5 75.5 47.5c-1.33301 30 -6.83301 61.833 -16.5 95.5s-19.834 59.5 -30.501 77.5l62 73
c19.333 -39.333 43.666 -67.666 72.999 -84.999c34 64 77 119 129 165s100.333 69 145 69c32.667 0 61.667 -15.5 87 -46.5s38 -66.833 38 -107.5c0 -12 -5 -28.5 -15 -49.5s-22.333 -40.833 -37 -59.5c-20.667 -26.667 -56.167 -48.334 -106.5 -65.001
s-98.5 -25 -144.5 -25c-54 0 -95.667 10 -125 30c0 -64 -14.667 -116.667 -44 -158c-18.667 -26.667 -47 -48.334 -85 -65.001s-80.333 -25 -127 -25c-64.667 0 -114.834 17.167 -150.501 51.5s-53.5 83.5 -53.5 147.5c0 36.667 5.16699 70 15.5 100s22.5 49.333 36.5 58z
M859.003 146c-6 28 -17.6709 50.5 -35.0039 67.5s-38.333 25.5 -63 25.5c-29.333 0 -64.166 -13.667 -104.499 -41s-75.166 -59 -104.499 -95c14.667 -3.33301 35.334 -5 62.001 -5c114.667 0 196.334 16 245.001 48zM650.999 430l-54.999 -69c-34 16 -59.667 36.667 -77 62
l56 69c19.333 -24 44.666 -44.667 75.999 -62z" />
    <glyph glyph-name="uni0637" unicode="&#x637;" horiz-adv-x="620" arabic-form="isolated" 
d="M137 571l78 50.0029c5.33301 -20.667 15.333 -43.334 30 -68.001s29.334 -43 44.001 -55l-55 -33c0 -19.333 0.333008 -49 1 -89s1 -68 1 -84c0 -56.667 -5 -104.334 -15 -143.001h3c36 60.667 75 108.667 117 144s82.667 53 122 53c33.333 0 62.5 -15.5 87.5 -46.5
s37.5 -66.833 37.5 -107.5c0 -12 -4.83301 -28.667 -14.5 -50s-21.834 -41 -36.501 -59c-46.667 -60 -127.334 -90 -242.001 -90c-89.333 0 -171.666 15.667 -246.999 47l-32 88c50 -10 98 -16.333 144 -19l7 13c2.66699 19.333 4 51.666 4 96.999
c0 61.333 -3.66699 122 -11 182c-6 46 -10 89.333 -12 130c-6 10 -9.66699 23.333 -11 40zM227 103.003c14.667 -3.33301 35.3301 -5 61.9971 -5c114.667 0 196.334 16 245.001 48c-6 28 -17.667 50.5 -35 67.5s-38.333 25.5 -63 25.5
c-29.333 0 -64.166 -13.667 -104.499 -41s-75.166 -59 -104.499 -95z" />
    <glyph glyph-name="uni0638" unicode="&#x638;" horiz-adv-x="620" arabic-form="isolated" 
d="M137 571l78 50.0029c5.33301 -20.667 15.333 -43.334 30 -68.001s29.334 -43 44.001 -55l-55 -33c0 -19.333 0.333008 -49 1 -89s1 -68 1 -84c0 -56.667 -5 -104.334 -15 -143.001h3c36 60.667 75 108.667 117 144s82.667 53 122 53c33.333 0 62.5 -15.5 87.5 -46.5
s37.5 -66.833 37.5 -107.5c0 -12 -4.83301 -28.667 -14.5 -50s-21.834 -41 -36.501 -59c-46.667 -60 -127.334 -90 -242.001 -90c-89.333 0 -171.666 15.667 -246.999 47l-32 88c50 -10 98 -16.333 144 -19l7 13c2.66699 19.333 4 51.666 4 96.999
c0 61.333 -3.66699 122 -11 182c-6 46 -10 89.333 -12 130c-6 10 -9.66699 23.333 -11 40zM227 103.003c14.667 -3.33301 35.3301 -5 61.9971 -5c114.667 0 196.334 16 245.001 48c-6 28 -17.667 50.5 -35 67.5s-38.333 25.5 -63 25.5
c-29.333 0 -64.166 -13.667 -104.499 -41s-75.166 -59 -104.499 -95zM489.996 488.003l-54.999 -69c-34 16 -59.667 36.667 -77 62l56 69c19.333 -24 44.666 -44.667 75.999 -62z" />
    <glyph glyph-name="uni0639" unicode="&#x639;" horiz-adv-x="551" arabic-form="isolated" 
d="M352 388l-26.999 -20c-26.667 20.667 -54.334 31 -83.001 31c-46 0 -88 -15.667 -126 -47c22.667 -50.667 73.667 -80.667 153 -90c52 30 109.667 52.333 173 67l-29 -116c-96.667 -24 -173.834 -57.667 -231.501 -101s-86.5 -91.333 -86.5 -144
c0 -48.667 20.333 -86.167 61 -112.5s99 -39.5 175 -39.5c84.667 0 158 10.667 220 32l-5 -30c-2 -13.333 -15.333 -29 -40 -47s-58.667 -34.333 -102 -49s-86.666 -22 -129.999 -22c-74.667 0 -134 18.667 -178 56s-66 90.333 -66 159c0 50 12.5 99 37.5 147
s60.5 90.333 106.5 127c-35.333 9.33301 -62.833 25.333 -82.5 48s-29.5 49 -29.5 79c0 42 17.5 82.833 52.5 122.5s72.5 59.5 112.5 59.5c44 0 85.667 -36.667 125 -110z" />
    <glyph glyph-name="uni063A" unicode="&#x63a;" horiz-adv-x="551" arabic-form="isolated" 
d="M352 388l-26.999 -20c-26.667 20.667 -54.334 31 -83.001 31c-46 0 -88 -15.667 -126 -47c22.667 -50.667 73.667 -80.667 153 -90c52 30 109.667 52.333 173 67l-29 -116c-96.667 -24 -173.834 -57.667 -231.501 -101s-86.5 -91.333 -86.5 -144
c0 -48.667 20.333 -86.167 61 -112.5s99 -39.5 175 -39.5c84.667 0 158 10.667 220 32l-5 -30c-2 -13.333 -15.333 -29 -40 -47s-58.667 -34.333 -102 -49s-86.666 -22 -129.999 -22c-74.667 0 -134 18.667 -178 56s-66 90.333 -66 159c0 50 12.5 99 37.5 147
s60.5 90.333 106.5 127c-35.333 9.33301 -62.833 25.333 -82.5 48s-29.5 49 -29.5 79c0 42 17.5 82.833 52.5 122.5s72.5 59.5 112.5 59.5c44 0 85.667 -36.667 125 -110zM257.001 609l-54.999 -69c-34 16 -59.667 36.667 -77 62l56 69
c19.333 -24 44.666 -44.667 75.999 -62z" />
    <glyph glyph-name="uni0641" unicode="&#x641;" horiz-adv-x="793" arabic-form="isolated" 
d="M668 579l-54.999 -69c-34 16 -59.667 36.667 -77 62l56 69c19.333 -24 44.666 -44.667 75.999 -62zM92.001 299c-6 -20.667 -9 -38.999 -9 -54.999c0 -58 18.833 -99.333 56.5 -124s102.834 -37 195.501 -37c72 0.666992 142.5 7.5 211.5 20.5s123.167 29.833 162.5 50.5
c-1.33301 21.333 -3 37.666 -5 48.999c-7.33301 -8.66699 -18.333 -16.167 -33 -22.5s-29.667 -9.5 -45 -9.5c-34.667 0 -64.334 13.167 -89.001 39.5s-37 57.5 -37 93.5s12.167 70.333 36.5 103s51.166 49 80.499 49c36.667 0 69.834 -23 99.501 -69
s44.5 -101.667 44.5 -167c0 -71.333 -27.667 -126.333 -83 -165c-33.333 -23.333 -84.5 -43 -153.5 -59s-141.167 -24 -216.5 -24c-100 0 -170.833 15.5 -212.5 46.5s-62.5 81.167 -62.5 150.5c0 27.333 3.5 52 10.5 74s14.833 35.667 23.5 41zM542.001 310.001
c17.333 -31.333 48 -47 92 -47c28 0 48.667 3.66699 62 11c-6 26.667 -17.5 47.834 -34.5 63.501s-35.167 23.5 -54.5 23.5c-14 0 -27 -4.83301 -39 -14.5s-20.667 -21.834 -26 -36.501z" />
    <glyph glyph-name="uni0642" unicode="&#x642;" horiz-adv-x="582" arabic-form="isolated" 
d="M507 449l-52.999 -66c-25.333 12 -47 28.667 -65 50l-40 -55c-12.667 5.33301 -26 13.5 -40 24.5s-25 22.5 -33 34.5l53 67c17.333 -24 37 -43 59 -57l46 62c17.333 -22 41.666 -42 72.999 -60zM106.001 185c-12 -28.667 -17.999 -64.001 -17.999 -106.001
c0 -52 13.667 -91.167 41 -117.5s70.666 -39.5 129.999 -39.5c47.333 0 92.833 7.33301 136.5 22s76.834 33.334 99.501 56.001c0 28 -2 56 -6 84c-18 -20.667 -44 -31 -78 -31c-34.667 0 -64.5 13 -89.5 39s-37.5 57 -37.5 93s12.333 70.333 37 103s51.667 49 81 49
c36.667 0 69.667 -23 99 -69s44 -101.333 44 -166c0 -54.667 -4.66699 -97.5 -14 -128.5s-26 -57.833 -50 -80.5c-26 -24.667 -60.833 -44.5 -104.5 -59.5s-90.834 -22.5 -141.501 -22.5c-66 0 -116.667 17.333 -152 52s-53 84 -53 148c0 36 5.33301 69 16 99
s22.667 49.667 36 59zM327.002 190.999c17.333 -31.333 48 -47 92 -47c28 0 48.667 3.66699 62 11c-6 26.667 -17.5 48 -34.5 64s-35.167 24 -54.5 24c-14 0 -27 -5 -39 -15s-20.667 -22.333 -26 -37z" />
    <glyph glyph-name="uni0643" unicode="&#x643;" horiz-adv-x="627" arabic-form="isolated" 
d="M90 246c-6 -16.667 -9.00098 -37.666 -9.00098 -62.999c0 -40 12 -70 36 -90s62.333 -30 115 -30c105.333 0 187.666 15.667 246.999 47c-0.666992 68.667 -6.16699 151 -16.5 247s-15.5 154 -15.5 174c-6 10 -9.66699 23.333 -11 40l78 50
c4.66699 -20 14.334 -42.5 29.001 -67.5s29.334 -43.5 44.001 -55.5l-54 -33c0 -28.667 2.16699 -80.334 6.5 -155.001s6.5 -127.334 6.5 -158.001c0 -19.333 -6.16699 -41.666 -18.5 -66.999s-27.833 -47 -46.5 -65c-21.333 -19.333 -55.5 -35.5 -102.5 -48.5
s-99.5 -19.5 -157.5 -19.5c-127.333 0 -191 54 -191 162c0 25.333 3.66699 49.5 11 72.5s15.333 37.833 24 44.5zM224.999 166.001l-58 33.998v7c94 13.333 141 22 141 26s-13.667 14.667 -41 32c-16 10 -26.167 17.5 -30.5 22.5s-6.5 10.833 -6.5 17.5
c0 8 2.33301 17.667 7 29c12 26.667 30.333 48.167 55 64.5s52.334 24.5 83.001 24.5l-25 -61c-18.667 -2 -34.167 -5 -46.5 -9s-20.666 -7.83301 -24.999 -11.5s-6.5 -7.16699 -6.5 -10.5c0 -0.666992 0.166992 -1.33398 0.5 -2.00098s0.833008 -1.5 1.5 -2.5
s1.5 -1.83301 2.5 -2.5s2.33301 -1.5 4 -2.5s3.33398 -2.16699 5.00098 -3.5s3.66699 -2.66602 6 -3.99902s4.66602 -2.83301 6.99902 -4.5s5.16602 -3.5 8.49902 -5.5l10 -6c18 -11.333 29.667 -20.166 35 -26.499s8 -13.166 8 -20.499
c0 -17.333 -5.83301 -32.5 -17.5 -45.5s-28.834 -21.5 -51.501 -25.5z" />
    <glyph glyph-name="uni0644" unicode="&#x644;" horiz-adv-x="518" arabic-form="isolated" 
d="M91 95c-6.66699 -18 -9.99805 -41.668 -9.99805 -71.001c0 -74.667 41 -112 123 -112c76.667 0 135 12.333 175 37c0.666992 83.333 -5 194.333 -17 333c-10.667 111.333 -16.334 194 -17.001 248c-6 11.333 -9.66699 25 -11 41l80 50
c4.66699 -20.667 14.5 -43.334 29.5 -68.001s29.833 -43 44.5 -55l-55 -33c0.666992 -36 3 -94.667 7 -176c3.33301 -103.333 5 -162.666 5 -177.999c0 -85.333 -4 -143 -12 -173c-10.667 -41.333 -38.834 -74.666 -84.501 -99.999s-98.834 -38 -159.501 -38
c-51.333 0 -90.666 14 -117.999 42s-41 68 -41 120c0 26 4 50.5 12 73.5s16.333 37.5 25 43.5z" />
    <glyph glyph-name="uni0645" unicode="&#x645;" horiz-adv-x="483" arabic-form="isolated" 
d="M100 0c2 -16.667 4.66797 -34.334 8.00098 -53.001l11.5 -62.5c4.33301 -23 7.5 -41.167 9.5 -54.5c10 -53.333 15 -94.333 15 -123c0 -29.333 -6 -54 -18 -74l-19 6c-3.33301 36.667 -17 103 -41 199c-17.333 68 -26 110.667 -26 128c0 28.667 9.33301 54.334 28 77.001
s42 39 70 49c-6 24 -9 46.333 -9 67c0 35.333 11.167 68 33.5 98s47.166 45 74.499 45c35.333 0 74.333 -19.667 117 -59s74.667 -87 96 -143l-50 -104c-49.333 13.333 -106.666 20 -171.999 20c-54.667 0 -97.334 -5.33301 -128.001 -16zM177.001 102
c22 6 51.002 9.00195 87.002 9.00195c33.333 0 70.666 -4.33301 111.999 -13l1 3c-19.333 29.333 -43.833 54.166 -73.5 74.499s-55.834 30.5 -78.501 30.5c-15.333 0 -28.333 -6.83301 -39 -20.5s-16 -28.834 -16 -45.501c0 -13.333 2.33301 -26 7 -38z" />
    <glyph glyph-name="uni0646" unicode="&#x646;" horiz-adv-x="520" arabic-form="isolated" 
d="M324 355l-54.999 -69c-34 16 -59.667 36.667 -77 62l56 69c19.333 -24 44.666 -44.667 75.999 -62zM106.001 149c-12 -28.667 -17.998 -64.002 -17.998 -106.002c0 -54 12.667 -93.667 38 -119s65.333 -38 120 -38c40 0 76.5 5.83301 109.5 17.5
s58.167 27.834 75.5 48.501c-3.33301 66.667 -21.333 129.334 -54 188.001l63 97c33.333 -62 50 -131.667 50 -209c0 -67.333 -14.667 -121.666 -44 -162.999c-19.333 -26.667 -47.833 -48.334 -85.5 -65.001s-79.834 -25 -126.501 -25
c-64.667 0 -114.834 17.333 -150.501 52s-53.5 84 -53.5 148c0 36 5.33301 68.833 16 98.5s22.667 49.167 36 58.5z" />
    <glyph glyph-name="uni0648" unicode="&#x648;" horiz-adv-x="388" arabic-form="isolated" 
d="M7 -154c78 20 141.834 46.832 191.501 80.499s81.167 69.834 94.5 108.501c-19.333 -15.333 -42.333 -23 -69 -23c-34 0 -63.667 13.167 -89 39.5s-38 57.5 -38 93.5s12.333 70.333 37 103s51.667 49 81 49c34.667 0 65.5 -21.167 92.5 -63.5s40.5 -92.833 40.5 -151.5
c0 -60.667 -14.833 -116.5 -44.5 -167.5s-69.834 -92.5 -120.501 -124.5l-158 30zM140.001 149.999c16.667 -30.667 47.333 -46.001 92 -46.001c28 0 48.667 3.66699 62 11c-6 26.667 -17.5 47.834 -34.5 63.501s-35.167 23.5 -54.5 23.5c-14 0 -27 -4.83301 -39 -14.5
s-20.667 -22.167 -26 -37.5z" />
    <glyph glyph-name="uni0649" unicode="&#x649;" horiz-adv-x="631" arabic-form="isolated" 
d="M104 146c-10.667 -25.333 -16.001 -56.334 -16.001 -93.001c0 -102.667 52 -154 156 -154c60.667 0 115.667 8.66699 165 26s86 39.666 110 66.999v1c-11.333 6.66699 -51 17.334 -119 32.001c-39.333 9.33301 -66 19.5 -80 30.5s-21 26.833 -21 47.5
c0 29.333 10 62.333 30 99s46.833 68.834 80.5 96.501s67.5 41.5 101.5 41.5c32 0 59 -8.66699 81 -26l-47 -95c-19.333 12 -40.333 18 -63 18c-23.333 0 -47.333 -8.16699 -72 -24.5s-46.334 -39.833 -65.001 -70.5v-1c16.667 -6.66699 57.334 -17.667 122.001 -33
c40 -9.33301 66.167 -18.333 78.5 -27s18.5 -21 18.5 -37c0 -30.667 -6.33301 -59.667 -19 -87c-22 -48.667 -61.667 -89 -119 -121s-121.333 -48 -192 -48c-62.667 0 -111.5 19 -146.5 57s-52.5 90.333 -52.5 157c0 29.333 4.83301 55.833 14.5 79.5
s19.834 39.167 30.501 46.5z" />
    <glyph glyph-name="uni064A" unicode="&#x64a;" horiz-adv-x="630" arabic-form="isolated" 
d="M105 146c-10.667 -25.333 -16.001 -56.334 -16.001 -93.001c0 -102.667 52 -154 156 -154c60.667 0 115.667 8.66699 165 26s86 39.666 110 66.999v1c-11.333 6.66699 -51 17.334 -119 32.001c-39.333 9.33301 -66 19.5 -80 30.5s-21 26.833 -21 47.5
c0 29.333 10 62.333 30 99s46.833 68.834 80.5 96.501s67.5 41.5 101.5 41.5c32 0 59 -8.66699 81 -26l-47 -95c-19.333 12 -40.333 18 -63 18c-23.333 0 -47.333 -8.16699 -72 -24.5s-46.334 -39.833 -65.001 -70.5v-1c16.667 -6.66699 57.334 -17.667 122.001 -33
c40 -9.33301 66.167 -18.333 78.5 -27s18.5 -21 18.5 -37c0 -30.667 -6.33301 -59.667 -19 -87c-22 -48.667 -61.667 -89 -119 -121s-121.333 -48 -192 -48c-62.667 0 -111.5 19 -146.5 57s-52.5 90.333 -52.5 157c0 29.333 4.83301 55.833 14.5 79.5
s19.834 39.167 30.501 46.5zM390.999 -311.001l-52.999 -66c-25.333 12 -47 28.667 -65 50l-40 -55c-12.667 5.33301 -26 13.5 -40 24.5s-25 22.5 -33 34.5l53 67c17.333 -24 37 -43 59 -57l46 62c17.333 -22 41.666 -42 72.999 -60z" />
    <glyph glyph-name="uni066E.init" unicode="&#x66e;" horiz-adv-x="246" 
d="M81 261l64 109.001c40.667 -52.667 61 -109.334 61 -170.001c0 -45.333 -13.667 -89.333 -41 -132c-32.667 -50 -87.667 -75 -165 -75c-18 0 -27 17.667 -27 53c0 36 9 54 27 54c70 0 119.667 10.333 149 31c-4 23.333 -12.833 47.333 -26.5 72s-27.5 44 -41.5 58z" />
    <glyph glyph-name="uni066E.medi" unicode="&#x66e;" horiz-adv-x="323" 
d="M124 199l36.001 43.999h1c14 -50.667 34 -87.167 60 -109.5s60 -33.5 102 -33.5c9.33301 0 17.5 -5.16699 24.5 -15.5s10.5 -23.166 10.5 -38.499s-3.5 -28 -10.5 -38s-15.167 -15 -24.5 -15c-80.667 0 -138.334 33.667 -173.001 101h-1
c-32 -67.333 -81.667 -101 -149 -101c-18 0 -27 18 -27 54c0 35.333 9 53 27 53c58 0 101.333 18.667 130 56z" />
    <glyph glyph-name="uni066E.fina" unicode="&#x66e;" horiz-adv-x="827" 
d="M94 303c-5.33301 -17.333 -8 -36.668 -8 -58.001c0 -53.333 20.833 -92 62.5 -116s111.5 -36 209.5 -36c161.333 0 287 41.333 377 124l34 -3v-1l-37 -54c12 -39.333 43.667 -59 95 -59c8.66699 0 16.667 -5.16699 24 -15.5s11 -23.166 11 -38.499s-3.66699 -28 -11 -38
s-15.333 -15 -24 -15c-82.667 0 -124 44 -124 132c-92 -95.333 -222 -143 -390 -143c-98.667 0 -169.5 14.833 -212.5 44.5s-64.5 77.5 -64.5 143.5c0 27.333 3.5 51.833 10.5 73.5s14.833 35.5 23.5 41.5z" />
    <glyph glyph-name="uni066F.init" unicode="&#x66f;" horiz-adv-x="329" 
d="M244 149c-1.33301 26 -2.66699 42.3311 -4 48.998c-7.33301 -8.66699 -18.833 -16.167 -34.5 -22.5s-30.5 -9.5 -44.5 -9.5c-34 0 -63.5 13 -88.5 39s-37.5 57.333 -37.5 94c0 36 12.333 70.333 37 103s51.667 49 81 49c36 0 68.833 -23.167 98.5 -69.5
s44.5 -102.166 44.5 -167.499c0 -35.333 -5.5 -67.166 -16.5 -95.499s-25.5 -49.833 -43.5 -64.5c-47.333 -40.667 -126 -61 -236 -61c-8 0 -14.5 4.66699 -19.5 14s-7.5 22.333 -7.5 39c0 36 9 54 27 54c120.667 0 202 16.333 244 49zM77.999 303.998
c17.333 -31.333 48 -47.001 92 -47.001c26.667 0 47.334 4 62.001 12c-6 26.667 -17.667 47.834 -35 63.501s-35.333 23.5 -54 23.5c-14.667 0 -27.834 -4.83301 -39.501 -14.5s-20.167 -22.167 -25.5 -37.5z" />
    <glyph glyph-name="uni066F.medi" unicode="&#x66f;" horiz-adv-x="362" 
d="M97 111c-23.333 28 -34.998 60.3311 -34.998 96.998c0 26.667 5 51.667 15 75c13.333 30 30.5 54 51.5 72s41.833 27 62.5 27c26.667 0 52 -16 76 -48s36 -67.333 36 -106c0 -40 -16.667 -79 -50 -117c29.333 -7.33301 65.666 -11 108.999 -11
c9.33301 0 17.5 -5.16699 24.5 -15.5s10.5 -23.166 10.5 -38.499s-3.5 -28 -10.5 -38s-15.167 -15 -24.5 -15c-75.333 0 -139.666 15.667 -192.999 47c-52 -31.333 -108.333 -47 -169 -47c-18 0 -27 17.667 -27 53c0 14.667 2.66699 27.334 8 38.001s11.666 16 18.999 16
c41.333 0 73.666 3.66699 96.999 11zM176.002 135.998c18 8.66699 34.501 19.6689 49.501 33.002s25.833 26.666 32.5 39.999c-6 19.333 -16.667 36.166 -32 50.499s-31 21.5 -47 21.5c-12.667 0 -26.5 -5.83301 -41.5 -17.5s-26.5 -25.5 -34.5 -41.5
c2.66699 -18.667 10.667 -35.667 24 -51s29.666 -27 48.999 -35z" />
    <glyph glyph-name="uni066F.fina" unicode="&#x66f;" horiz-adv-x="570" 
d="M107 148c-12 -30.667 -18 -65.6709 -18 -105.004c0 -52.667 13.667 -92 41 -118s70.666 -39 129.999 -39c99.333 0 173 21 221 63c1.33301 14.667 2 29.334 2 44.001c-58 0 -103 14 -135 42s-48 62.333 -48 103c0 35.333 11.667 69.333 35 102s48 49 74 49
c30.667 0 58.334 -19 83.001 -57s38.667 -82 42 -132h36c9.33301 0 17.5 -5.16699 24.5 -15.5s10.5 -23.166 10.5 -38.499s-3.5 -28 -10.5 -38s-15.167 -15 -24.5 -15h-36c-4 -59.333 -25 -106.666 -63 -141.999c-56 -50.667 -134.333 -76 -235 -76
c-66 0 -116.667 17.333 -152 52s-53 84 -53 148c0 34.667 5.33301 67.334 16 98.001s22.667 50.667 36 60zM339 139.996c7.33301 -12 21 -22 41 -30s42.667 -12 68 -12c4 0 16.667 0.666992 38 2c-6.66699 28 -18 50.5 -34 67.5s-33.667 25.5 -53 25.5
c-12.667 0 -25 -5.16699 -37 -15.5s-19.667 -22.833 -23 -37.5z" />
    <glyph glyph-name="uni0671" unicode="&#x671;" horiz-adv-x="207" arabic-form="isolated" 
d="M149 604l-0.000976562 -29.001c0 -56 2 -136.667 6 -242c4.66699 -87.333 7 -150.333 7 -189c0 -43.333 -2.66699 -74.666 -8 -93.999c-9.33301 -26 -22.666 -49.667 -39.999 -71h-24c0 126.667 -4 235.667 -12 327c-10 104 -15 180.667 -15 230l85 69zM20.999 608.999
c-7.33301 12 -11.001 22.998 -11.001 32.998c0 24.667 13.333 40.334 40 47.001c6.66699 29.333 18 52.5 34 69.5s35.333 25.5 58 25.5c16.667 0 30.334 -6.66699 41.001 -20s16 -30.333 16 -51c0 -22 -8.5 -39.833 -25.5 -53.5s-41.167 -20.5 -72.5 -20.5
c-24.667 0 -42.5 -2.16699 -53.5 -6.5s-19.833 -12.166 -26.5 -23.499zM75.998 690.997c8 -1.33301 18.668 -2 32.001 -2c36 0 54 6.66699 54 20c0 14 -10 21 -30 21c-24.667 0 -43.334 -13 -56.001 -39z" />
    <glyph glyph-name="uni0679" unicode="&#x679;" horiz-adv-x="797" arabic-form="isolated" 
d="M647 282l63 103.998c15.333 -18 28.333 -43.667 39 -77s16 -65.666 16 -96.999c0 -27.333 -7.66699 -55.333 -23 -84s-35.333 -52.334 -60 -71.001c-36 -25.333 -86.833 -45.833 -152.5 -61.5s-136.5 -23.5 -212.5 -23.5c-104 0 -177.333 15.5 -220 46.5
s-64 81.167 -64 150.5c0 27.333 3.5 51.833 10.5 73.5s14.833 35.5 23.5 41.5l25 18c-6 -19.333 -9 -38.666 -9 -57.999c0 -58 19.333 -99.333 58 -124s106 -37 202 -37c72.667 0.666992 142.167 7.5 208.5 20.5s117.5 29.833 153.5 50.5
c-10.667 52.667 -30 95.334 -58 128.001zM288 340.998l-12 30.002l47 -7c0 23.333 -2.33301 49.5 -7 78.5s-10.334 50.5 -17.001 64.5l48 28c2 -8 6.33301 -16.5 13 -25.5s13 -15.167 19 -18.5l-27 -14c1.33301 -18.667 2 -31.334 2 -38.001
c0 -20.667 -2 -42.334 -6 -65.001c8.66699 29.333 19.834 51.333 33.501 66s28.167 22 43.5 22c14 0 26 -6.5 36 -19.5s15 -29.167 15 -48.5c0 -24 -8 -42.667 -24 -56s-36.333 -20 -61 -20c-40 0 -74.333 7.66699 -103 23zM450 381c-4 20 -14.668 30 -32.001 30
c-21.333 0 -40.666 -15.333 -57.999 -46c43.333 0 73.333 5.33301 90 16z" />
    <glyph glyph-name="uni067E" unicode="&#x67e;" horiz-adv-x="797" arabic-form="isolated" 
d="M647 282l63 103.998c15.333 -18 28.333 -43.667 39 -77s16 -65.666 16 -96.999c0 -27.333 -7.66699 -55.333 -23 -84s-35.333 -52.334 -60 -71.001c-36 -25.333 -86.833 -45.833 -152.5 -61.5s-136.5 -23.5 -212.5 -23.5c-104 0 -177.333 15.5 -220 46.5
s-64 81.167 -64 150.5c0 27.333 3.5 51.833 10.5 73.5s14.833 35.5 23.5 41.5l25 18c-6 -19.333 -9 -38.666 -9 -57.999c0 -58 19.333 -99.333 58 -124s106 -37 202 -37c72.667 0.666992 142.167 7.5 208.5 20.5s117.5 29.833 153.5 50.5
c-10.667 52.667 -30 95.334 -58 128.001zM422 -255.002l-53 -64.999c-30 12.667 -54 31 -72 55l48 63c19.333 -22.667 45 -40.334 77 -53.001zM458 -147.001l-53.001 -66.999c-26 12 -47.667 29 -65 51l-40 -56c-30.667 13.333 -55 33.333 -73 60l53 66
c16.667 -22.667 36.334 -41.334 59.001 -56.001l46 61c18 -21.333 42.333 -41 73 -59z" />
    <glyph glyph-name="uni0686" unicode="&#x686;" horiz-adv-x="556" arabic-form="isolated" 
d="M42 243c-7.33301 7.33301 -11.001 16.6641 -11.001 27.9971c0 23.333 11.667 49.333 35 78c13.333 15.333 28.833 27.833 46.5 37.5s33.5 14.5 47.5 14.5c28.667 0 77 -15.333 145 -46c38 -18 70.833 -30 98.5 -36s63.167 -9.33301 106.5 -10l-41 -96
c-109.333 -1.33301 -201 -25.166 -275 -71.499s-111 -104.166 -111 -173.499c0 -48.667 20.167 -86.167 60.5 -112.5s98.5 -39.5 174.5 -39.5c76.667 0 149.667 10.333 219 31l-4 -29c-2 -13.333 -15.333 -29.166 -40 -47.499s-58.667 -35 -102 -50
s-86.666 -22.5 -129.999 -22.5c-75.333 0 -134.666 19 -177.999 57s-65 91.333 -65 160c0 77.333 24 145.833 72 205.5s113.667 105.5 197 137.5v1c-43.333 22 -88.333 35.333 -135 40c-32.667 -10 -69.334 -28.667 -110.001 -56zM398.999 -60.002l-53 -64.999
c-30 12.667 -54 31 -72 55l48 63c19.333 -22.667 45 -40.334 77 -53.001zM434.999 47.999l-53.001 -66.999c-26 12 -47.667 29 -65 51l-40 -56c-30.667 13.333 -55 33.333 -73 60l53 66c16.667 -22.667 36.334 -41.334 59.001 -56.001l46 61c18 -21.333 42.333 -41 73 -59z
" />
    <glyph glyph-name="uni0688" unicode="&#x688;" horiz-adv-x="440" arabic-form="isolated" 
d="M143 320l24 118.998c84.667 -59.333 142 -109 172 -149s45 -81 45 -123c0 -46.667 -11.667 -86 -35 -118c-28 -37.333 -84.667 -56 -170 -56c-39.333 0 -69.833 9.83301 -91.5 29.5s-32.5 45.5 -32.5 77.5c0 18 2.83301 34.5 8.5 49.5s12.167 25.167 19.5 30.5l22 14
c-4.66699 -13.333 -7 -27.666 -7 -42.999c0 -32.667 30.667 -49 92 -49c68 0 118.667 6.66699 152 20c-8.66699 28.667 -26.5 56.834 -53.5 84.501s-75.5 65.5 -145.5 113.5zM97 517.998l-12 30.001l47 -7c0 23.333 -2.33301 49.5 -7 78.5s-10.334 50.5 -17.001 64.5l48 28
c2 -8 6.33301 -16.5 13 -25.5s13 -15.167 19 -18.5l-27 -14c1.33301 -18.667 2 -31.334 2 -38.001c0 -20 -2 -41.667 -6 -65c8.66699 29.333 19.834 51.333 33.501 66s28.167 22 43.5 22c14 0 26 -6.5 36 -19.5s15 -29.167 15 -48.5c0 -24 -8 -42.667 -24 -56
s-36.333 -20 -61 -20c-40 0 -74.333 7.66699 -103 23zM259 557.999c-4 20 -14.668 30 -32.001 30c-21.333 0 -40.666 -15.333 -57.999 -46c43.333 0 73.333 5.33301 90 16z" />
    <glyph glyph-name="uni0691" unicode="&#x691;" horiz-adv-x="381" arabic-form="isolated" 
d="M184 174l52.001 108.001c70 -68.667 105 -146.334 105 -233.001c0 -48 -14 -95.333 -42 -142s-66.667 -85.667 -116 -117l-158 30l-18 26c74 20.667 137.167 48 189.5 82s84.833 68.667 97.5 104c-10.667 44.667 -47.334 92 -110.001 142zM129.001 376.001l-12 30.001
l47 -7c0 23.333 -2.33301 49.5 -7 78.5s-10.334 50.5 -17.001 64.5l48 28c2 -8 6.33301 -16.5 13 -25.5s13 -15.167 19 -18.5l-27 -14c1.33301 -18.667 2 -31.334 2 -38.001c0 -20 -2 -41.667 -6 -65c8.66699 29.333 19.834 51.333 33.501 66s28.167 22 43.5 22
c14 0 26 -6.5 36 -19.5s15 -29.167 15 -48.5c0 -24 -8 -42.667 -24 -56s-36.333 -20 -61 -20c-40 0 -74.333 7.66699 -103 23zM291.001 416.002c-4 20 -14.668 30 -32.001 30c-21.333 0 -40.666 -15.333 -57.999 -46c43.333 0 73.333 5.33301 90 16z" />
    <glyph glyph-name="uni0698" unicode="&#x698;" horiz-adv-x="381" arabic-form="isolated" 
d="M184 174l52.001 108.001c70 -68.667 105 -146.334 105 -233.001c0 -48 -14 -95.333 -42 -142s-66.667 -85.667 -116 -117l-158 30l-18 26c74 20.667 137.167 48 189.5 82s84.833 68.667 97.5 104c-10.667 44.667 -47.334 92 -110.001 142zM268.001 522.001
l-52.001 -64.001c-9.33301 4 -21.666 12.333 -36.999 25s-26.333 23.667 -33 33l54 67c16 -23.333 38.667 -43.666 68 -60.999zM338 410l-53 -65.999c-25.333 12 -47 28.667 -65 50l-40 -55c-12.667 5.33301 -26 13.5 -40 24.5s-25 22.5 -33 34.5l50 65
c17.333 -22 38 -40.333 62 -55l47 61c18 -22.667 42 -42.334 72 -59.001z" />
    <glyph glyph-name="uni06A1.init" unicode="&#x6a1;" horiz-adv-x="329" 
d="M244 149c-1.33301 26 -2.66699 42.3311 -4 48.998c-7.33301 -8.66699 -18.833 -16.167 -34.5 -22.5s-30.5 -9.5 -44.5 -9.5c-34 0 -63.5 13 -88.5 39s-37.5 57.333 -37.5 94c0 36 12.333 70.333 37 103s51.667 49 81 49c36 0 68.833 -23.167 98.5 -69.5
s44.5 -102.166 44.5 -167.499c0 -35.333 -5.5 -67.166 -16.5 -95.499s-25.5 -49.833 -43.5 -64.5c-47.333 -40.667 -126 -61 -236 -61c-8 0 -14.5 4.66699 -19.5 14s-7.5 22.333 -7.5 39c0 36 9 54 27 54c120.667 0 202 16.333 244 49zM77.999 303.998
c17.333 -31.333 48 -47.001 92 -47.001c26.667 0 47.334 4 62.001 12c-6 26.667 -17.667 47.834 -35 63.501s-35.333 23.5 -54 23.5c-14.667 0 -27.834 -4.83301 -39.501 -14.5s-20.167 -22.167 -25.5 -37.5z" />
    <glyph glyph-name="uni06A1.medi" unicode="&#x6a1;" horiz-adv-x="362" 
d="M97 111c-23.333 28 -34.998 60.3311 -34.998 96.998c0 26.667 5 51.667 15 75c13.333 30 30.5 54 51.5 72s41.833 27 62.5 27c26.667 0 52 -16 76 -48s36 -67.333 36 -106c0 -40 -16.667 -79 -50 -117c29.333 -7.33301 65.666 -11 108.999 -11
c9.33301 0 17.5 -5.16699 24.5 -15.5s10.5 -23.166 10.5 -38.499s-3.5 -28 -10.5 -38s-15.167 -15 -24.5 -15c-75.333 0 -139.666 15.667 -192.999 47c-52 -31.333 -108.333 -47 -169 -47c-18 0 -27 17.667 -27 53c0 14.667 2.66699 27.334 8 38.001s11.666 16 18.999 16
c41.333 0 73.666 3.66699 96.999 11zM176.002 135.998c18 8.66699 34.501 19.6689 49.501 33.002s25.833 26.666 32.5 39.999c-6 19.333 -16.667 36.166 -32 50.499s-31 21.5 -47 21.5c-12.667 0 -26.5 -5.83301 -41.5 -17.5s-26.5 -25.5 -34.5 -41.5
c2.66699 -18.667 10.667 -35.667 24 -51s29.666 -27 48.999 -35z" />
    <glyph glyph-name="uni06A1.fina" unicode="&#x6a1;" horiz-adv-x="862" 
d="M87 298c-4.66699 -14 -6.99805 -29 -6.99805 -45c-1.33301 -12 -1.33301 -22.667 0 -32c3.33301 -51.333 24.166 -87.5 62.499 -108.5s102.5 -31.5 192.5 -31.5c110 0 198.667 10.667 266 32c-26 30 -39 62.333 -39 97c0 44 13.833 84.167 41.5 120.5
s57.167 54.5 88.5 54.5c26.667 0 52 -16 76 -48s36 -67.667 36 -107c0 -40.667 -17 -80.334 -51 -119.001c30.667 -7.33301 67 -11 109 -11c9.33301 0 17.5 -5.16699 24.5 -15.5s10.5 -23.166 10.5 -38.499s-3.5 -28 -10.5 -38s-15.167 -15 -24.5 -15
c-76.667 0 -143.334 17 -200.001 51c-95.333 -49.333 -213 -74 -353 -74c-102 0 -174.333 15.167 -217 45.5s-64 80.833 -64 151.5c0 27.333 3.5 52 10.5 74s14.833 35.667 23.5 41zM677.002 136c16.667 8.66699 32.8311 20.166 48.498 34.499s26.834 27.833 33.501 40.5
c-6 19.333 -16.5 36.5 -31.5 51.5s-30.833 22.5 -47.5 22.5c-12.667 0 -27 -6.16699 -43 -18.5s-27.333 -26.166 -34 -41.499c2.66699 -18.667 10.834 -36.167 24.501 -52.5s30.167 -28.5 49.5 -36.5z" />
    <glyph glyph-name="uni06A4" unicode="&#x6a4;" horiz-adv-x="793" arabic-form="isolated" 
d="M642 693l-52.001 -64.001c-9.33301 4 -21.666 12.333 -36.999 25s-26.333 23.667 -33 33l54 67c16 -23.333 38.667 -43.666 68 -60.999zM711.999 580.999l-53 -65.999c-25.333 12 -47 28.667 -65 50l-40 -55c-12.667 5.33301 -26 13.5 -40 24.5s-25 22.5 -33 34.5l50 65
c17.333 -22 38 -40.333 62 -55l47 61c18 -22.667 42 -42.334 72 -59.001zM91.999 299c-6 -20.667 -9 -38.999 -9 -54.999c0 -58 18.833 -99.333 56.5 -124s102.834 -37 195.501 -37c72 0.666992 142.5 7.5 211.5 20.5s123.167 29.833 162.5 50.5
c-1.33301 21.333 -3 37.666 -5 48.999c-7.33301 -8.66699 -18.333 -16.167 -33 -22.5s-29.667 -9.5 -45 -9.5c-34.667 0 -64.334 13.167 -89.001 39.5s-37 57.5 -37 93.5s12.167 70.333 36.5 103s51.166 49 80.499 49c36.667 0 69.834 -23 99.501 -69
s44.5 -101.667 44.5 -167c0 -71.333 -27.667 -126.333 -83 -165c-33.333 -23.333 -84.5 -43 -153.5 -59s-141.167 -24 -216.5 -24c-100 0 -170.833 15.5 -212.5 46.5s-62.5 81.167 -62.5 150.5c0 27.333 3.5 52 10.5 74s14.833 35.667 23.5 41zM541.999 310.001
c17.333 -31.333 48 -47 92 -47c28 0 48.667 3.66699 62 11c-6 26.667 -17.5 47.834 -34.5 63.501s-35.167 23.5 -54.5 23.5c-14 0 -27 -4.83301 -39 -14.5s-20.667 -21.834 -26 -36.501z" />
    <glyph glyph-name="uni06A9" unicode="&#x6a9;" horiz-adv-x="818" arabic-form="isolated" 
d="M98 272c-6 -14 -8.99805 -33.667 -8.99805 -59c0 -45.333 14.333 -78.333 43 -99s80 -31 154 -31c133.333 0 224.666 13 273.999 39c-6.66699 28 -25.834 65.333 -57.501 112s-70.5 91.667 -116.5 135c0 26.667 8.33301 50.334 25 71.001s37.667 34.334 63 41.001l322 86
l-50 -97l-268 -75c44.667 -44.667 79.334 -89.834 104.001 -135.501s37 -82.834 37 -111.501c0 -16 -4.83301 -34.667 -14.5 -56s-21.834 -37.666 -36.501 -48.999c-26 -20.667 -66.167 -37.667 -120.5 -51s-113.833 -20 -178.5 -20c-82 0 -141 14 -177 42
s-54 71.333 -54 130c0 26.667 3.66699 50.667 11 72s15.333 34.666 24 39.999z" />
    <glyph glyph-name="uni06AF" unicode="&#x6af;" horiz-adv-x="824" arabic-form="isolated" 
d="M98 272c-6 -14 -8.99805 -33.667 -8.99805 -59c0 -45.333 14.333 -78.333 43 -99s80 -31 154 -31c133.333 0 224.666 13 273.999 39c-6.66699 28 -25.834 65.333 -57.501 112s-70.5 91.667 -116.5 135c0 26.667 8.33301 50.334 25 71.001s37.667 34.334 63 41.001l322 86
l-50 -97l-268 -75c44.667 -44.667 79.334 -89.834 104.001 -135.501s37 -82.834 37 -111.501c0 -16 -4.83301 -34.667 -14.5 -56s-21.834 -37.666 -36.501 -48.999c-26 -20.667 -66.167 -37.667 -120.5 -51s-113.833 -20 -178.5 -20c-82 0 -141 14 -177 42
s-54 71.333 -54 130c0 26.667 3.66699 50.667 11 72s15.333 34.666 24 39.999zM449.002 524l25 57l343 97h7l-28 -58l-342 -96h-5z" />
    <glyph glyph-name="uni06BA" unicode="&#x6ba;" horiz-adv-x="520" arabic-form="isolated" 
d="M106 149c-12 -28.667 -17.998 -64.002 -17.998 -106.002c0 -54 12.667 -93.667 38 -119s65.333 -38 120 -38c40 0 76.5 5.83301 109.5 17.5s58.167 27.834 75.5 48.501c-3.33301 66.667 -21.333 129.334 -54 188.001l63 97c33.333 -62 50 -131.667 50 -209
c0 -67.333 -14.667 -121.666 -44 -162.999c-19.333 -26.667 -47.833 -48.334 -85.5 -65.001s-79.834 -25 -126.501 -25c-64.667 0 -114.834 17.333 -150.501 52s-53.5 84 -53.5 148c0 36 5.33301 68.833 16 98.5s22.667 49.167 36 58.5z" />
    <glyph glyph-name="uni06BE" unicode="&#x6be;" horiz-adv-x="449" arabic-form="isolated" 
d="M368 103c30 -32.667 45.001 -72.667 45.001 -120c0 -37.333 -8 -67.833 -24 -91.5s-37.333 -35.5 -64 -35.5c-64.667 0 -127.334 49 -188.001 147c-22.667 -4 -37.334 -6 -44.001 -6c-11.333 0 -24.666 9.33301 -39.999 28s-25.333 38.667 -30 60l6 6l91 6
c26 60.667 58.5 111.667 97.5 153s73.833 62 104.5 62c20 0 37 -11.667 51 -35s21 -50.333 21 -81c0 -32.667 -8.66699 -63.667 -26 -93zM188.001 17c18.667 -18.667 40.001 -33.667 64.001 -45s46 -17 66 -17c33.333 0 50 15.667 50 47c0 25.333 -10.333 49 -31 71
c-30.667 -25.333 -80.334 -44 -149.001 -56zM167.002 98c88 0.666992 143.665 7.66699 166.998 21c2.66699 7.33301 4 18 4 32c0 16.667 -3.66699 31.667 -11 45s-17 20 -29 20c-19.333 0 -40.666 -10.333 -63.999 -31s-45.666 -49.667 -66.999 -87z" />
    <glyph glyph-name="uni06C1" unicode="&#x6c1;" horiz-adv-x="341" arabic-form="isolated" 
d="M140 324l18 54c44 -20.667 80.333 -53 109 -97s43 -89 43 -135c0 -44.667 -14 -81.334 -42 -110.001s-64.667 -43 -110 -43c-38 0 -68.5 12.833 -91.5 38.5s-34.5 57.834 -34.5 96.501c0 76 36 141.333 108 196zM158 253c-43.333 -29.333 -65 -62.332 -65 -98.999
c0 -16.667 6.33301 -29.834 19 -39.501s28.667 -14.5 48 -14.5c41.333 0 72.333 12 93 36c-19.333 54 -51 93 -95 117z" />
    <glyph glyph-name="uni06C2.fina" unicode="&#x6c2;" horiz-adv-x="370" 
d="M61 -41l-44 -6l-2 2c29.333 61.333 62.5 109.666 99.5 144.999s72.5 53 106.5 53c18 0 42.667 -8.83301 74 -26.5s56.333 -26.5 75 -26.5c8.66699 0 16.667 -5.16699 24 -15.5s11 -23.166 11 -38.499s-3.66699 -28 -11 -38s-15.333 -15 -24 -15c-30 0 -61 9.5 -93 28.5
s-55.333 28.5 -70 28.5c-48 0 -96.667 -30.333 -146 -91zM249 413l-34.001 -49.001c-8.66699 6 -18.667 9 -30 9c-21.333 0 -36.333 -9 -45 -27c13.333 -12 32.333 -18 57 -18c26 0 52.667 8 80 24l-15 -61c-50 -12 -98.667 -35 -146 -69c-4 8 -6 15 -6 21
c0 11.333 4.33301 21.333 13 30s18.667 14.334 30 17.001c-31.333 6.66699 -47 22.667 -47 48c0 26 8.83301 47.833 26.5 65.5s38.834 26.5 63.501 26.5c20 0 37.667 -5.66699 53 -17z" />
    <glyph glyph-name="uni06C3.fina" unicode="&#x6c3;" horiz-adv-x="370" 
d="M61 -41l-44 -6l-2 2c29.333 61.333 62.5 109.666 99.5 144.999s72.5 53 106.5 53c18 0 42.667 -8.83301 74 -26.5s56.333 -26.5 75 -26.5c8.66699 0 16.667 -5.16699 24 -15.5s11 -23.166 11 -38.499s-3.66699 -28 -11 -38s-15.333 -15 -24 -15c-30 0 -61 9.5 -93 28.5
s-55.333 28.5 -70 28.5c-48 0 -96.667 -30.333 -146 -91zM297 315l-52.999 -66c-25.333 12 -47 28.667 -65 50l-40 -55c-12.667 5.33301 -26 13.5 -40 24.5s-25 22.5 -33 34.5l53 67c17.333 -24 37 -43 59 -57l46 62c17.333 -22 41.666 -42 72.999 -60z" />
    <glyph glyph-name="uni06CC" unicode="&#x6cc;" horiz-adv-x="647" arabic-form="isolated" 
d="M100 145c-10.667 -24 -15.999 -54.666 -15.999 -91.999c0 -52 16 -90.667 48 -116s82.667 -38 152 -38c133.333 0 213 27.667 239 83c-9.33301 9.33301 -46 19.666 -110 30.999c-38.667 7.33301 -65.667 18.166 -81 32.499s-23 33.5 -23 57.5c0 50 22.667 101 68 153
s94.333 78 147 78c38 0 68 -12 90 -36l-43 -92c-25.333 16.667 -53 25 -83 25c-32 0 -60.333 -9.66699 -85 -29s-41 -43.333 -49 -72c10.667 -9.33301 47.667 -19.333 111 -30c42 -7.33301 70.5 -15.833 85.5 -25.5s22.5 -23.5 22.5 -41.5
c0 -68 -28.167 -125.833 -84.5 -173.5s-129.833 -71.5 -220.5 -71.5c-78 0 -137 18.5 -177 55.5s-60 90.5 -60 160.5c0 28.667 4.66699 54.834 14 78.501s19.666 39.167 30.999 46.5z" />
    <glyph glyph-name="uni06D2" unicode="&#x6d2;" horiz-adv-x="883" arabic-form="isolated" 
d="M362 256l-62.999 -77.999l-7 -7c-16 54 -38.667 97 -68 129c-6 -26.667 -15 -48.834 -27 -66.501s-30 -34.5 -54 -50.5c-37.333 -25.333 -62.333 -51.333 -75 -78c48 -17.333 136.333 -26 265 -26c50.667 0 137.667 3 261 9s210.666 10 261.999 12l7 -12
c-20 -38.667 -48.333 -69.667 -85 -93c-216.667 -16.667 -370.667 -25 -462 -25c-118.667 0 -201 13 -247 39c-14 8 -25 21.833 -33 41.5s-12 39.5 -12 59.5c0 51.333 23.333 95 70 131c30.667 23.333 53.167 43 67.5 59s25.5 33.333 33.5 52c15.333 34.667 31.333 52 48 52
c16 0 36 -14.667 60 -44s43.667 -64 59 -104z" />
    <glyph glyph-name="uni06D3" unicode="&#x6d3;" horiz-adv-x="883" arabic-form="isolated" 
d="M362 256l-62.999 -77.999l-7 -7c-16 54 -38.667 97 -68 129c-6 -26.667 -15 -48.834 -27 -66.501s-30 -34.5 -54 -50.5c-37.333 -25.333 -62.333 -51.333 -75 -78c48 -17.333 136.333 -26 265 -26c50.667 0 137.667 3 261 9s210.666 10 261.999 12l7 -12
c-20 -38.667 -48.333 -69.667 -85 -93c-216.667 -16.667 -370.667 -25 -462 -25c-118.667 0 -201 13 -247 39c-14 8 -25 21.833 -33 41.5s-12 39.5 -12 59.5c0 51.333 23.333 95 70 131c30.667 23.333 53.167 43 67.5 59s25.5 33.333 33.5 52c15.333 34.667 31.333 52 48 52
c16 0 36 -14.667 60 -44s43.667 -64 59 -104zM283.001 623.001l-34.001 -49.001c-8.66699 6 -18.667 9 -30 9c-21.333 0 -36.333 -9 -45 -27c13.333 -12 32.333 -18 57 -18c26 0 52.667 8 80 24l-15 -61c-50 -12 -98.667 -35 -146 -69c-4 8 -6 15 -6 21
c0 11.333 4.33301 21.333 13 30s18.667 14.334 30 17.001c-31.333 6.66699 -47 22.667 -47 48c0 26 8.83301 47.833 26.5 65.5s38.834 26.5 63.501 26.5c20 0 37.667 -5.66699 53 -17z" />
    <glyph glyph-name="uni06D5.fina" unicode="&#x6d5;" horiz-adv-x="399" 
d="M248 428c21.333 -46 41.333 -119.668 60 -221.001c8 -42.667 18.333 -71.167 31 -85.5s32.667 -21.5 60 -21.5c8.66699 0 16.5 -5.16699 23.5 -15.5s10.5 -23.166 10.5 -38.499s-3.5 -28 -10.5 -38s-14.833 -15 -23.5 -15c-79.333 0 -128.666 39 -147.999 117l-24 -27
c-25.333 -30.667 -53 -46 -83 -46c-28 0 -54 10.667 -78 32s-36 44 -36 68c0 24.667 7.33301 46.667 22 66c25.333 34 77.666 69 156.999 105l-19 51zM226 241.999c-66.667 -20 -112.666 -41 -137.999 -63c18 -34 49.667 -51 95 -51c21.333 0 41.333 5.66699 60 17
c-4.66699 36 -10.334 68.333 -17.001 97z" />
    <glyph glyph-name="uniFB51" unicode="&#x671;" horiz-adv-x="230" arabic-form="final" 
d="M132 604c8 -82 12 -201.334 12 -358.001c0 -60 6.33301 -99.333 19 -118s35 -28 67 -28c8.66699 0 16.667 -5.16699 24 -15.5s11 -23.166 11 -38.499s-3.66699 -28 -11 -38s-15.333 -15 -24 -15c-58 0 -99.333 15 -124 45c-12.667 16.667 -21.667 37.5 -27 62.5
s-8 67.833 -8 128.5c0 131.333 -5.33301 234 -16 308l76 67h1zM9 608.999c-7.33301 12 -11.001 22.998 -11.001 32.998c0 24.667 13.333 40.334 40 47.001c6.66699 29.333 18 52.5 34 69.5s35.333 25.5 58 25.5c16.667 0 30.334 -6.66699 41.001 -20s16 -30.333 16 -51
c0 -22 -8.5 -39.833 -25.5 -53.5s-41.167 -20.5 -72.5 -20.5c-24.667 0 -42.5 -2.16699 -53.5 -6.5s-19.833 -12.166 -26.5 -23.499zM63.999 690.997c8 -1.33301 18.668 -2 32.001 -2c36 0 54 6.66699 54 20c0 14 -10 21 -30 21c-24.667 0 -43.334 -13 -56.001 -39z" />
    <glyph glyph-name="uniFB57" unicode="&#x67e;" horiz-adv-x="827" arabic-form="final" 
d="M94 303c-5.33301 -17.333 -8 -36.668 -8 -58.001c0 -53.333 20.833 -92 62.5 -116s111.5 -36 209.5 -36c161.333 0 287 41.333 377 124l34 -3v-1l-37 -54c12 -39.333 43.667 -59 95 -59c8.66699 0 16.667 -5.16699 24 -15.5s11 -23.166 11 -38.499s-3.66699 -28 -11 -38
s-15.333 -15 -24 -15c-82.667 0 -124 44 -124 132c-92 -95.333 -222 -143 -390 -143c-98.667 0 -169.5 14.833 -212.5 44.5s-64.5 77.5 -64.5 143.5c0 27.333 3.5 51.833 10.5 73.5s14.833 35.5 23.5 41.5zM422 -245.002l-53 -64.999c-30 12.667 -54 31 -72 55l48 63
c19.333 -22.667 45 -40.334 77 -53.001zM458 -137.001l-53.001 -66.999c-26 12 -47.667 29 -65 51l-40 -56c-30.667 13.333 -55 33.333 -73 60l53 66c16.667 -22.667 36.334 -41.334 59.001 -56.001l46 61c18 -21.333 42.333 -41 73 -59z" />
    <glyph glyph-name="uniFB58" unicode="&#x67e;" horiz-adv-x="266" arabic-form="initial" 
d="M81 261l64 109.001c40.667 -52.667 61 -109.334 61 -170.001c0 -45.333 -13.667 -89.333 -41 -132c-32.667 -50 -87.667 -75 -165 -75c-18 0 -27 17.667 -27 53c0 36 9 54 27 54c70 0 119.667 10.333 149 31c-4 23.333 -12.833 47.333 -26.5 72s-27.5 44 -41.5 58z
M225 -236.999l-53 -64.999c-30 12.667 -54 31 -72 55l48 63c19.333 -22.667 45 -40.334 77 -53.001zM261 -128.998l-53.001 -66.999c-26 12 -47.667 29 -65 51l-40 -56c-30.667 13.333 -55 33.333 -73 60l53 66c16.667 -22.667 36.334 -41.334 59.001 -56.001l46 61
c18 -21.333 42.333 -41 73 -59z" />
    <glyph glyph-name="uniFB59" unicode="&#x67e;" horiz-adv-x="323" arabic-form="medial" 
d="M124 199l36 43.999c13.333 -51.333 33.333 -88 60 -110s61 -33 103 -33c9.33301 0 17.5 -5.16699 24.5 -15.5s10.5 -23.166 10.5 -38.499s-3.5 -28 -10.5 -38s-15.167 -15 -24.5 -15c-84.667 0 -142.667 33.667 -174 101c-32 -67.333 -81.667 -101 -149 -101
c-18 0 -27 18 -27 54c0 35.333 9 53 27 53c58 0 101.333 18.667 130 56zM243 -237.001l-53 -64.999c-30 12.667 -54 31 -72 55l48 63c19.333 -22.667 45 -40.334 77 -53.001zM279 -129l-53.001 -66.999c-26 12 -47.667 29 -65 51l-40 -56c-30.667 13.333 -55 33.333 -73 60
l53 66c16.667 -22.667 36.334 -41.334 59.001 -56.001l46 61c18 -21.333 42.333 -41 73 -59z" />
    <glyph glyph-name="uniFB67" unicode="&#x679;" horiz-adv-x="827" arabic-form="final" 
d="M94 303c-5.33301 -17.333 -8 -36.668 -8 -58.001c0 -53.333 20.833 -92 62.5 -116s111.5 -36 209.5 -36c161.333 0 287 41.333 377 124l34 -3v-1l-37 -54c12 -39.333 43.667 -59 95 -59c8.66699 0 16.667 -5.16699 24 -15.5s11 -23.166 11 -38.499s-3.66699 -28 -11 -38
s-15.333 -15 -24 -15c-82.667 0 -124 44 -124 132c-92 -95.333 -222 -143 -390 -143c-98.667 0 -169.5 14.833 -212.5 44.5s-64.5 77.5 -64.5 143.5c0 27.333 3.5 51.833 10.5 73.5s14.833 35.5 23.5 41.5zM291 340.998l-12 30.002l47 -7c0 23.333 -2.33301 49.5 -7 78.5
s-10.334 50.5 -17.001 64.5l48 28c2 -8 6.33301 -16.5 13 -25.5s13 -15.167 19 -18.5l-27 -14c1.33301 -18.667 2 -31.334 2 -38.001c0 -20.667 -2 -42.334 -6 -65.001c8.66699 29.333 19.834 51.333 33.501 66s28.167 22 43.5 22c14 0 26 -6.5 36 -19.5
s15 -29.167 15 -48.5c0 -24 -8 -42.667 -24 -56s-36.333 -20 -61 -20c-40 0 -74.333 7.66699 -103 23zM453 381c-4 20 -14.668 30 -32.001 30c-21.333 0 -40.666 -15.333 -57.999 -46c43.333 0 73.333 5.33301 90 16z" />
    <glyph glyph-name="uniFB68" unicode="&#x679;" horiz-adv-x="243" arabic-form="initial" 
d="M68 264l71.002 103c18 -22.667 32.167 -50.334 42.5 -83.001s15.5 -63 15.5 -91c0 -46 -14 -89.667 -42 -131c-31.333 -46 -83 -69 -155 -69c-18 0 -27 17.667 -27 53c0 36 9 54 27 54c65.333 0 111.666 9 138.999 27c-8.66699 48.667 -32.334 94.334 -71.001 137.001z
M23.002 446l-12 30.001l47 -7c0 23.333 -2.33301 49.5 -7 78.5s-10.334 50.5 -17.001 64.5l48 28c2 -8 6.33301 -16.5 13 -25.5s13 -15.167 19 -18.5l-27 -14c1.33301 -18.667 2 -31.334 2 -38.001c0 -20 -2 -41.667 -6 -65c8.66699 29.333 19.834 51.333 33.501 66
s28.167 22 43.5 22c14 0 26 -6.5 36 -19.5s15 -29.167 15 -48.5c0 -24 -8 -42.667 -24 -56s-36.333 -20 -61 -20c-40 0 -74.333 7.66699 -103 23zM185.002 486.001c-4 20 -14.668 30 -32.001 30c-21.333 0 -40.666 -15.333 -57.999 -46c43.333 0 73.333 5.33301 90 16z" />
    <glyph glyph-name="uniFB69" unicode="&#x679;" horiz-adv-x="323" arabic-form="medial" 
d="M124 199l36 43.999c13.333 -51.333 33.333 -88 60 -110s61 -33 103 -33c9.33301 0 17.5 -5.16699 24.5 -15.5s10.5 -23.166 10.5 -38.499s-3.5 -28 -10.5 -38s-15.167 -15 -24.5 -15c-84.667 0 -142.667 33.667 -174 101c-32 -67.333 -81.667 -101 -149 -101
c-18 0 -27 18 -27 54c0 35.333 9 53 27 53c58 0 101.333 18.667 130 56zM69 340.999l-12 30.002l47 -7c0 23.333 -2.33301 49.5 -7 78.5s-10.334 50.5 -17.001 64.5l48 28c2 -8 6.33301 -16.5 13 -25.5s13 -15.167 19 -18.5l-27 -14c1.33301 -18.667 2 -31.334 2 -38.001
c0 -20.667 -2 -42.334 -6 -65.001c8.66699 29.333 19.834 51.333 33.501 66s28.167 22 43.5 22c14 0 26 -6.5 36 -19.5s15 -29.167 15 -48.5c0 -24 -8 -42.667 -24 -56s-36.333 -20 -61 -20c-40 0 -74.333 7.66699 -103 23zM231 381.001c-4 20 -14.668 30 -32.001 30
c-21.333 0 -40.666 -15.333 -57.999 -46c43.333 0 73.333 5.33301 90 16z" />
    <glyph glyph-name="uniFB6B" unicode="&#x6a4;" horiz-adv-x="862" arabic-form="final" 
d="M715 633l-52.001 -64.001c-9.33301 4 -21.666 12.333 -36.999 25s-26.333 23.667 -33 33l54 67c16 -23.333 38.667 -43.666 68 -60.999zM784.999 520.999l-53 -65.999c-25.333 12 -47 28.667 -65 50l-40 -55c-12.667 5.33301 -26 13.5 -40 24.5s-25 22.5 -33 34.5l50 65
c17.333 -22 38 -40.333 62 -55l47 61c18 -22.667 42 -42.334 72 -59.001zM86.999 298c-4.66699 -14 -6.99805 -29 -6.99805 -45c-1.33301 -12 -1.33301 -22.667 0 -32c3.33301 -51.333 24.166 -87.5 62.499 -108.5s102.5 -31.5 192.5 -31.5c110 0 198.667 10.667 266 32
c-26 30 -39 62.333 -39 97c0 44 13.833 84.167 41.5 120.5s57.167 54.5 88.5 54.5c26.667 0 52 -16 76 -48s36 -67.667 36 -107c0 -40.667 -17 -80.334 -51 -119.001c30.667 -7.33301 67 -11 109 -11c9.33301 0 17.5 -5.16699 24.5 -15.5s10.5 -23.166 10.5 -38.499
s-3.5 -28 -10.5 -38s-15.167 -15 -24.5 -15c-76.667 0 -143.334 17 -200.001 51c-95.333 -49.333 -213 -74 -353 -74c-102 0 -174.333 15.167 -217 45.5s-64 80.833 -64 151.5c0 27.333 3.5 52 10.5 74s14.833 35.667 23.5 41zM677.001 136
c16.667 8.66699 32.8311 20.166 48.498 34.499s26.834 27.833 33.501 40.5c-6 19.333 -16.5 36.5 -31.5 51.5s-30.833 22.5 -47.5 22.5c-12.667 0 -27 -6.16699 -43 -18.5s-27.333 -26.166 -34 -41.499c2.66699 -18.667 10.834 -36.167 24.501 -52.5
s30.167 -28.5 49.5 -36.5z" />
    <glyph glyph-name="uniFB6C" unicode="&#x6a4;" horiz-adv-x="329" arabic-form="initial" 
d="M191 692l-52.001 -64.001c-9.33301 4 -21.666 12.333 -36.999 25s-26.333 23.667 -33 33l54 67c16 -23.333 38.667 -43.666 68 -60.999zM260.999 579.999l-53 -65.999c-25.333 12 -47 28.667 -65 50l-40 -55c-12.667 5.33301 -26 13.5 -40 24.5s-25 22.5 -33 34.5l50 65
c17.333 -22 38 -40.333 62 -55l47 61c18 -22.667 42 -42.334 72 -59.001zM243.999 149c-1.33301 26 -2.66699 42.3311 -4 48.998c-7.33301 -8.66699 -18.833 -16.167 -34.5 -22.5s-30.5 -9.5 -44.5 -9.5c-34 0 -63.5 13 -88.5 39s-37.5 57.333 -37.5 94
c0 36 12.333 70.333 37 103s51.667 49 81 49c36 0 68.833 -23.167 98.5 -69.5s44.5 -102.166 44.5 -167.499c0 -35.333 -5.5 -67.166 -16.5 -95.499s-25.5 -49.833 -43.5 -64.5c-47.333 -40.667 -126 -61 -236 -61c-8 0 -14.5 4.66699 -19.5 14s-7.5 22.333 -7.5 39
c0 36 9 54 27 54c120.667 0 202 16.333 244 49zM77.998 303.998c17.333 -31.333 48 -47.001 92 -47.001c26.667 0 47.334 4 62.001 12c-6 26.667 -17.667 47.834 -35 63.501s-35.333 23.5 -54 23.5c-14.667 0 -27.834 -4.83301 -39.501 -14.5s-20.167 -22.167 -25.5 -37.5z
" />
    <glyph glyph-name="uniFB6D" unicode="&#x6a4;" horiz-adv-x="362" arabic-form="medial" 
d="M231 624l-52.001 -64.001c-9.33301 4 -21.666 12.333 -36.999 25s-26.333 23.667 -33 33l54 67c16 -23.333 38.667 -43.666 68 -60.999zM300.999 511.999l-53 -65.999c-25.333 12 -47 28.667 -65 50l-40 -55c-12.667 5.33301 -26 13.5 -40 24.5s-25 22.5 -33 34.5l50 65
c17.333 -22 38 -40.333 62 -55l47 61c18 -22.667 42 -42.334 72 -59.001zM96.999 111c-23.333 28 -34.998 60.3311 -34.998 96.998c0 26.667 5 51.667 15 75c13.333 30 30.5 54 51.5 72s41.833 27 62.5 27c26.667 0 52 -16 76 -48s36 -67.333 36 -106
c0 -40 -16.667 -79 -50 -117c29.333 -7.33301 65.666 -11 108.999 -11c9.33301 0 17.5 -5.16699 24.5 -15.5s10.5 -23.166 10.5 -38.499s-3.5 -28 -10.5 -38s-15.167 -15 -24.5 -15c-75.333 0 -139.666 15.667 -192.999 47c-52 -31.333 -108.333 -47 -169 -47
c-18 0 -27 17.667 -27 53c0 14.667 2.66699 27.334 8 38.001s11.666 16 18.999 16c41.333 0 73.666 3.66699 96.999 11zM176.001 135.998c18 8.66699 34.501 19.6689 49.501 33.002s25.833 26.666 32.5 39.999c-6 19.333 -16.667 36.166 -32 50.499s-31 21.5 -47 21.5
c-12.667 0 -26.5 -5.83301 -41.5 -17.5s-26.5 -25.5 -34.5 -41.5c2.66699 -18.667 10.667 -35.667 24 -51s29.666 -27 48.999 -35z" />
    <glyph glyph-name="uniFB7B" unicode="&#x686;" horiz-adv-x="534" arabic-form="final" 
d="M50 197c-8 6 -11.9971 15.332 -11.9971 27.999c0 24.667 11.667 50.667 35 78c13.333 15.333 28.833 27.833 46.5 37.5s33.834 14.5 48.501 14.5c29.333 0 76.666 -15 141.999 -45c38.667 -18 71.167 -29.5 97.5 -34.5s64.166 -7.5 113.499 -7.5l-38 -93
c-28 0 -56 -2.66699 -84 -8c-0.666992 -25.333 9.33301 -42.833 30 -52.5s55.667 -14.5 105 -14.5c8.66699 0 16.667 -5.16699 24 -15.5s11 -23.166 11 -38.499s-3.66699 -28 -11 -38s-15.333 -15 -24 -15c-116.667 0 -175 39.667 -175 119
c0 19.333 3.33301 35.666 10 48.999l-1 1c-80.667 -17.333 -148.334 -48.166 -203.001 -92.499s-82 -95.5 -82 -153.5c0 -48.667 21.167 -87 63.5 -115s101.166 -42 176.499 -42c78 0 150 10.333 216 31l-4 -29c-3.33301 -22.667 -33 -48.167 -89 -76.5
s-116 -42.5 -180 -42.5c-75.333 0 -135.5 19.667 -180.5 59s-67.5 93.333 -67.5 162c0 82 23.833 150.5 71.5 205.5s117.167 102.833 208.5 143.5v1c-40 20.667 -86.333 34 -139 40c-34 -10 -70.333 -28.667 -109 -56zM351.003 -133.001l-53 -64.999
c-30 12.667 -54 31 -72 55l48 63c19.333 -22.667 45 -40.334 77 -53.001zM387.003 -25l-53.001 -66.999c-26 12 -47.667 29 -65 51l-40 -56c-30.667 13.333 -55 33.333 -73 60l53 66c16.667 -22.667 36.334 -41.334 59.001 -56.001l46 61c18 -21.333 42.333 -41 73 -59z" />
    <glyph glyph-name="uniFB7C" unicode="&#x686;" horiz-adv-x="533" arabic-form="initial" 
d="M0 -7c-8 0 -14.499 4.66797 -19.499 14.001s-7.5 22.333 -7.5 39c0 36 9 54 27 54c140.667 0 252 27.333 334 82v1c-24 14 -53.167 27.667 -87.5 41s-63.166 22.333 -86.499 27c-36.667 -4.66699 -76.334 -18.334 -119.001 -41.001c-4 6.66699 -6 14.667 -6 24
c0 21.333 14.333 45 43 71c32.667 30 65 45 97 45c26.667 0 76 -20.667 148 -62c41.333 -23.333 75.166 -39 101.499 -47s56.833 -12.333 91.5 -13l-41 -98c-47.333 0 -85.5 -4 -114.5 -12s-73.167 -27 -132.5 -57c-52 -27.333 -94 -45.5 -126 -54.5s-66 -13.5 -102 -13.5z
M354.001 -209.999l-53 -64.999c-30 12.667 -54 31 -72 55l48 63c19.333 -22.667 45 -40.334 77 -53.001zM390.001 -101.998l-53.001 -66.999c-26 12 -47.667 29 -65 51l-40 -56c-30.667 13.333 -55 33.333 -73 60l53 66c16.667 -22.667 36.334 -41.334 59.001 -56.001l46 61
c18 -21.333 42.333 -41 73 -59z" />
    <glyph glyph-name="uniFB7D" unicode="&#x686;" horiz-adv-x="539" arabic-form="medial" 
d="M44 198c-7.33301 6 -10.998 15.666 -10.998 28.999c0 25.333 11.667 51 35 77c12.667 15.333 28 27.833 46 37.5s34 14.5 48 14.5c28.667 0 76 -15.667 142 -47c40 -18 72.667 -29.667 98 -35s61.666 -8.66602 108.999 -9.99902l-38 -91c-46 0 -77.333 -3.66699 -94 -11
c-1.33301 -4 -2 -7.66699 -2 -11c0 -19.333 13 -32.666 39 -39.999s67 -11 123 -11c8.66699 0 16.5 -5.16699 23.5 -15.5s10.5 -23.166 10.5 -38.499s-3.5 -28 -10.5 -38s-14.833 -15 -23.5 -15c-134.667 0 -202 38.333 -202 115c0 14 1.66699 27 5 39l-1 1
c-19.333 -8.66699 -59 -35.334 -119 -80.001c-38 -28 -73.333 -47.333 -106 -58s-71.334 -16.334 -116.001 -17.001c-18 0 -27 17.667 -27 53c0 36 9 54 27 54c63.333 0 119.166 7.66699 167.499 23s98.833 41.333 151.5 78v1c-52.667 28.667 -108 46 -166 52
c-37.333 -11.333 -73.666 -30 -108.999 -56zM365.002 -216.001l-53 -64.999c-30 12.667 -54 31 -72 55l48 63c19.333 -22.667 45 -40.334 77 -53.001zM401.002 -108l-53.001 -66.999c-26 12 -47.667 29 -65 51l-40 -56c-30.667 13.333 -55 33.333 -73 60l53 66
c16.667 -22.667 36.334 -41.334 59.001 -56.001l46 61c18 -21.333 42.333 -41 73 -59z" />
    <glyph glyph-name="uniFB89" unicode="&#x688;" horiz-adv-x="499" arabic-form="final" 
d="M110 205c-5.33301 -14 -8.00098 -29.6709 -8.00098 -47.0039c0 -19.333 7 -34.666 21 -45.999s34 -17 60 -17c54 0 94.333 12.333 121 37c-22 72.667 -41 153.334 -57 242.001l85 67c16.667 -124.667 33.334 -212.667 50.001 -264c9.33301 -30 21.833 -50.333 37.5 -61
s42.167 -16 79.5 -16c9.33301 0 17.5 -5.16699 24.5 -15.5s10.5 -23.166 10.5 -38.499s-3.5 -28 -10.5 -38s-15.167 -15 -24.5 -15c-54 0 -94.333 8.33301 -121 25s-47 45.334 -61 86.001l-23 -85c-28.667 -22.667 -66.667 -34 -114 -34c-36 0 -65.167 11 -87.5 33
s-33.5 51.667 -33.5 89c0 40.667 9.66699 68 29 82zM189.999 518.996l-12 30.002l47 -7c0 23.333 -2.33301 49.5 -7 78.5s-10.334 50.5 -17.001 64.5l48 28c2 -8 6.33301 -16.5 13 -25.5s13 -15.167 19 -18.5l-27 -14c1.33301 -18.667 2 -31.334 2 -38.001
c0 -20.667 -2 -42.334 -6 -65.001c8.66699 29.333 19.834 51.333 33.501 66s28.167 22 43.5 22c14 0 26 -6.5 36 -19.5s15 -29.167 15 -48.5c0 -24 -8 -42.667 -24 -56s-36.333 -20 -61 -20c-40 0 -74.333 7.66699 -103 23zM351.999 558.998c-4 20 -14.668 30 -32.001 30
c-21.333 0 -40.666 -15.333 -57.999 -46c43.333 0 73.333 5.33301 90 16z" />
    <glyph glyph-name="uniFB8B" unicode="&#x698;" horiz-adv-x="420" arabic-form="final" 
d="M238 103l47.001 89.999c30.667 -34.667 55.667 -58.834 75 -72.501s39.333 -20.5 60 -20.5c8.66699 0 16.667 -5.16699 24 -15.5s11 -23.166 11 -38.499s-3.66699 -28 -11 -38s-15.333 -15 -24 -15c-27.333 0 -51.666 7.33301 -72.999 22l-2 -2
c5.33301 -12.667 8 -29 8 -49c0 -33.333 -11 -69.666 -33 -108.999s-56 -75.333 -102 -108l-158 30l-18 26c71.333 20.667 130.166 46.5 176.499 77.5s76.166 63.5 89.499 97.5c-2.66699 35.333 -26 77 -70 125zM321.001 454.999l-52.001 -64.001
c-9.33301 4 -21.666 12.333 -36.999 25s-26.333 23.667 -33 33l54 67c16 -23.333 38.667 -43.666 68 -60.999zM391 342.998l-53 -65.999c-25.333 12 -47 28.667 -65 50l-40 -55c-12.667 5.33301 -26 13.5 -40 24.5s-25 22.5 -33 34.5l50 65c17.333 -22 38 -40.333 62 -55
l47 61c18 -22.667 42 -42.334 72 -59.001z" />
    <glyph glyph-name="uniFB8D" unicode="&#x691;" horiz-adv-x="420" arabic-form="final" 
d="M238 103l47.001 89.999c30.667 -34.667 55.667 -58.834 75 -72.501s39.333 -20.5 60 -20.5c8.66699 0 16.667 -5.16699 24 -15.5s11 -23.166 11 -38.499s-3.66699 -28 -11 -38s-15.333 -15 -24 -15c-27.333 0 -51.666 7.33301 -72.999 22l-2 -2
c5.33301 -12.667 8 -29 8 -49c0 -33.333 -11 -69.666 -33 -108.999s-56 -75.333 -102 -108l-158 30l-18 26c71.333 20.667 130.166 46.5 176.499 77.5s76.166 63.5 89.499 97.5c-2.66699 35.333 -26 77 -70 125zM187.001 294.999l-12 30.002l47 -7
c0 23.333 -2.33301 49.5 -7 78.5s-10.334 50.5 -17.001 64.5l48 28c2 -8 6.33301 -16.5 13 -25.5s13 -15.167 19 -18.5l-27 -14c1.33301 -18.667 2 -31.334 2 -38.001c0 -20.667 -2 -42.334 -6 -65.001c8.66699 29.333 19.834 51.333 33.501 66s28.167 22 43.5 22
c14 0 26 -6.5 36 -19.5s15 -29.167 15 -48.5c0 -24 -8 -42.667 -24 -56s-36.333 -20 -61 -20c-40 0 -74.333 7.66699 -103 23zM349.001 335.001c-4 20 -14.668 30 -32.001 30c-21.333 0 -40.666 -15.333 -57.999 -46c43.333 0 73.333 5.33301 90 16z" />
    <glyph glyph-name="uniFB8F" unicode="&#x6a9;" horiz-adv-x="807" arabic-form="final" 
d="M98 272c-6 -14 -9.00195 -33.666 -9.00195 -58.999c0 -45.333 14.333 -78.333 43 -99s80 -31 154 -31c132 0 217.333 17.333 256 52c-11.333 48 -64.666 126 -159.999 234c0 26 8.33301 49.5 25 70.5s38 34.833 64 41.5l322 86l-51 -97l-267 -75l140 -180
c34.667 -44 63.334 -74.167 86.001 -90.5s49 -24.5 79 -24.5h27c8.66699 0 16.667 -5.16699 24 -15.5s11 -23.166 11 -38.499s-3.66699 -28 -11 -38s-15.333 -15 -24 -15h-31c-73.333 0 -135 45.667 -185 137c-12.667 -46.667 -37 -81.334 -73 -104.001
c-53.333 -36 -136.333 -54 -249 -54c-82 0 -141 14 -177 42s-54 71.333 -54 130c0 26.667 3.66699 50.667 11 72s15.333 34.666 24 39.999z" />
    <glyph glyph-name="uniFB90" unicode="&#x6a9;" horiz-adv-x="451" arabic-form="initial" 
d="M430 567l-50.999 -97l-267 -75c44.667 -44.667 79.167 -89.834 103.5 -135.501s36.5 -82.834 36.5 -111.501c0 -16.667 -5.33301 -35.667 -16 -57s-23.334 -37.333 -38.001 -48c-47.333 -33.333 -113.333 -50 -198 -50c-18 0 -27 17.667 -27 53c0 36 9 54 27 54
c93.333 0 157.333 9 192 27c-6 26 -24.833 62 -56.5 108s-70.5 90.667 -116.5 134c0 26.667 8.33301 50.334 25 71.001s37.667 34.334 63 41.001z" />
    <glyph glyph-name="uniFB91" unicode="&#x6a9;" horiz-adv-x="435" arabic-form="medial" 
d="M430 567l-51 -97.002l-267 -75l139 -180c36 -45.333 65.833 -75.833 89.5 -91.5s50.834 -23.5 81.501 -23.5h13c9.33301 0 17.5 -5.16699 24.5 -15.5s10.5 -23.166 10.5 -38.499s-3.5 -28 -10.5 -38s-15.167 -15 -24.5 -15h-16c-40 0 -74.5 10.333 -103.5 31
s-58.167 56 -87.5 106c-24 -91.333 -100 -137 -228 -137c-8 0 -14.5 4.66699 -19.5 14s-7.5 22.333 -7.5 39s2.5 29.834 7.5 39.501s11.5 14.5 19.5 14.5c97.333 0 156.666 11.667 177.999 35c-11.333 48 -64.333 126 -159 234c0 26 8.33301 49.5 25 70.5
s37.667 34.833 63 41.5z" />
    <glyph glyph-name="uniFB93" unicode="&#x6af;" horiz-adv-x="807" arabic-form="final" 
d="M98 272c-6 -14 -9.00195 -33.666 -9.00195 -58.999c0 -45.333 14.333 -78.333 43 -99s80 -31 154 -31c132 0 217.333 17.333 256 52c-11.333 48 -64.666 126 -159.999 234c0 26 8.33301 49.5 25 70.5s38 34.833 64 41.5l322 86l-51 -97l-267 -75l140 -180
c34.667 -44 63.334 -74.167 86.001 -90.5s49 -24.5 79 -24.5h27c8.66699 0 16.667 -5.16699 24 -15.5s11 -23.166 11 -38.499s-3.66699 -28 -11 -38s-15.333 -15 -24 -15h-31c-73.333 0 -135 45.667 -185 137c-12.667 -46.667 -37 -81.334 -73 -104.001
c-53.333 -36 -136.333 -54 -249 -54c-82 0 -141 14 -177 42s-54 71.333 -54 130c0 26.667 3.66699 50.667 11 72s15.333 34.666 24 39.999zM448.998 524.001l25 57l343 97h7l-28 -58l-342 -96h-5z" />
    <glyph glyph-name="uniFB94" unicode="&#x6af;" horiz-adv-x="461" arabic-form="initial" 
d="M430 567l-50.999 -97l-267 -75c44.667 -44.667 79.167 -89.834 103.5 -135.501s36.5 -82.834 36.5 -111.501c0 -16.667 -5.33301 -35.667 -16 -57s-23.334 -37.333 -38.001 -48c-47.333 -33.333 -113.333 -50 -198 -50c-18 0 -27 17.667 -27 53c0 36 9 54 27 54
c93.333 0 157.333 9 192 27c-6 26 -24.833 62 -56.5 108s-70.5 90.667 -116.5 134c0 26.667 8.33301 50.334 25 71.001s37.667 34.334 63 41.001zM86.001 524l25 57l343 97h7l-28 -58l-342 -96h-5z" />
    <glyph glyph-name="uniFB95" unicode="&#x6af;" horiz-adv-x="435" arabic-form="medial" 
d="M430 567l-51 -97.002l-267 -75l139 -180c36 -45.333 65.833 -75.833 89.5 -91.5s50.834 -23.5 81.501 -23.5h13c9.33301 0 17.5 -5.16699 24.5 -15.5s10.5 -23.166 10.5 -38.499s-3.5 -28 -10.5 -38s-15.167 -15 -24.5 -15h-16c-40 0 -74.5 10.333 -103.5 31
s-58.167 56 -87.5 106c-24 -91.333 -100 -137 -228 -137c-8 0 -14.5 4.66699 -19.5 14s-7.5 22.333 -7.5 39s2.5 29.834 7.5 39.501s11.5 14.5 19.5 14.5c97.333 0 156.666 11.667 177.999 35c-11.333 48 -64.333 126 -159 234c0 26 8.33301 49.5 25 70.5
s37.667 34.833 63 41.5zM86 523.998l25 57l343 97h7l-28 -58l-342 -96h-5z" />
    <glyph glyph-name="uniFB9F" unicode="&#x6ba;" horiz-adv-x="556" arabic-form="final" 
d="M101 149c-12 -26 -18.002 -61.332 -18.002 -105.999c0 -54 12.667 -93.667 38 -119s65.333 -38 120 -38c37.333 0 72.333 5.83301 105 17.5s57.667 27.5 75 47.5c-4.66699 64 -19 119 -43 165l62 85c29.333 -67.333 68 -101 116 -101c9.33301 0 17.5 -5.33301 24.5 -16
s10.5 -23.667 10.5 -39s-3.5 -27.833 -10.5 -37.5s-15.167 -14.5 -24.5 -14.5c-33.333 0 -58.666 12.333 -75.999 37l-1 -1c0.666992 -67.333 -13.666 -122 -42.999 -164c-19.333 -26.667 -47.166 -48.334 -83.499 -65.001s-77.5 -25 -123.5 -25
c-64.667 0 -114.834 17.167 -150.501 51.5s-53.5 83.5 -53.5 147.5c0 36 5.16699 69 15.5 99s22.5 49.667 36.5 59z" />
    <glyph glyph-name="uniFBA5" unicode="&#x6c0;" horiz-adv-x="399" arabic-form="final" 
d="M248 428c21.333 -46 41.333 -119.668 60 -221.001c8 -42.667 18.333 -71.167 31 -85.5s32.667 -21.5 60 -21.5c8.66699 0 16.5 -5.16699 23.5 -15.5s10.5 -23.166 10.5 -38.499s-3.5 -28 -10.5 -38s-14.833 -15 -23.5 -15c-79.333 0 -128.666 39 -147.999 117l-24 -27
c-25.333 -30.667 -53 -46 -83 -46c-28 0 -54 10.667 -78 32s-36 44 -36 68c0 24.667 7.33301 46.667 22 66c25.333 34 77.666 69 156.999 105l-19 51zM226 241.999c-66.667 -20 -112.666 -41 -137.999 -63c18 -34 49.667 -51 95 -51c21.333 0 41.333 5.66699 60 17
c-4.66699 36 -10.334 68.333 -17.001 97zM275.001 613.999l-34.001 -49.001c-8.66699 6 -18.667 9 -30 9c-21.333 0 -36.333 -9 -45 -27c13.333 -12 32.333 -18 57 -18c26 0 52.667 8 80 24l-15 -61c-50 -12 -98.667 -35 -146 -69c-4 8 -6 15 -6 21
c0 11.333 4.33301 21.333 13 30s18.667 14.334 30 17.001c-31.333 6.66699 -47 22.667 -47 48c0 26 8.83301 47.833 26.5 65.5s38.834 26.5 63.501 26.5c20 0 37.667 -5.66699 53 -17z" />
    <glyph glyph-name="uniFBA7" unicode="&#x6c1;" horiz-adv-x="370" arabic-form="final" 
d="M61 -41l-44 -6l-2 2c29.333 61.333 62.5 109.666 99.5 144.999s72.5 53 106.5 53c18 0 42.667 -8.83301 74 -26.5s56.333 -26.5 75 -26.5c8.66699 0 16.667 -5.16699 24 -15.5s11 -23.166 11 -38.499s-3.66699 -28 -11 -38s-15.333 -15 -24 -15c-30 0 -61 9.5 -93 28.5
s-55.333 28.5 -70 28.5c-48 0 -96.667 -30.333 -146 -91z" />
    <glyph glyph-name="uniFBA8" unicode="&#x6c1;" horiz-adv-x="387" arabic-form="initial" 
d="M151 199l1.99707 -0.000976562c20.667 -31.333 46.334 -51.333 77.001 -60l28 80c8 4.66699 18 7 30 7c18.667 0 35.334 -7.33301 50.001 -22s22 -30 22 -46c0 -34.667 -9 -68.667 -27 -102c-16 -27.333 -37.667 -41 -65 -41c-21.333 0 -44.166 7.5 -68.499 22.5
s-44.833 34.833 -61.5 59.5h-2c-24 -69.333 -69.333 -104 -136 -104c-8.66699 0 -16 5 -22 15s-9 22.667 -9 38c0 16.667 3 29.834 9 39.501s13.333 14.5 22 14.5c56.667 0 98.667 27.667 126 83zM206.997 -85.001l18 -5c-15.333 -40 -23 -70 -23 -90c0 -24 11 -36 33 -36
c10 0 19 2.66699 27 8l2 -3l-17 -78c-10.667 -6 -23 -9 -37 -9c-20.667 0 -37.667 6.66699 -51 20s-20 31 -20 53c0 42 22.667 88.667 68 140z" />
    <glyph glyph-name="uniFBA9" unicode="&#x6c1;" horiz-adv-x="406" arabic-form="medial" 
d="M441 46c0 -15.333 -3.66797 -27.998 -11.001 -37.998s-15.333 -15 -24 -15c-61.333 0 -103 -5 -125 -15c-8.66699 -10.667 -13 -26 -13 -46c0 -38 22.333 -67.333 67 -88v-2l-92 -75c-38 23.333 -67.5 51.666 -88.5 84.999s-31.5 68 -31.5 104c0 40.667 13.667 95 41 163
l-3 1c-23.333 -44.667 -47.666 -77 -72.999 -97s-54.666 -30 -87.999 -30c-18 0 -27 17.333 -27 52c0 16.667 2.66699 30 8 40s11.666 15 18.999 15c44.667 0 81.5 11.833 110.5 35.5s55.5 65.167 79.5 124.5c14.667 -0.666992 26.667 -5.33398 36 -14.001
s14 -18.334 14 -29.001c0 -10 -9 -38 -27 -84c-17.333 -46 -26 -85.333 -26 -118c0 -40 11 -70.333 33 -91h1c8 58.667 28 102.667 60 132s73.667 44 125 44c8.66699 0 16.667 -5.16699 24 -15.5s11 -23.166 11 -38.499zM126.999 -193.998l18 -6
c-15.333 -39.333 -23 -69.333 -23 -90c0 -23.333 11 -35 33 -35c11.333 0 20.333 2.33301 27 7l2 -2l-17 -79c-10.667 -6 -23 -9 -37 -9c-20.667 0 -37.667 6.66699 -51 20s-20 31 -20 53c0 43.333 22.667 90.333 68 141z" />
    <glyph glyph-name="uniFBAB" unicode="&#x6be;" horiz-adv-x="468" arabic-form="final" 
d="M398 14c2.66699 -12 3.99902 -21.666 3.99902 -28.999c0 -36.667 -7.66699 -67 -23 -91s-36.666 -36 -63.999 -36c-30.667 0 -62.834 13.167 -96.501 39.5s-64.5 62.5 -92.5 108.5c-17.333 -4.66699 -32 -7 -44 -7c-11.333 0 -24.666 9.5 -39.999 28.5
s-25.333 39.167 -30 60.5l6 6l91 6c26.667 62.667 59.5 114 98.5 154s73.833 60 104.5 60c18.667 0 35.167 -12.167 49.5 -36.5s21.5 -50.833 21.5 -79.5c0 -26 -6.33301 -51.667 -19 -77c25.333 -14 60 -21 104 -21c9.33301 0 17.333 -5.16699 24 -15.5
s10 -23.833 10 -40.5c0 -14.667 -3.5 -26.834 -10.5 -36.501s-14.833 -14.5 -23.5 -14.5c-26.667 0 -50 7 -70 21zM156.999 100.001c84 -2.66699 139.333 3.33301 166 18c3.33301 12 5 23.667 5 35c0 16 -3.83301 30.833 -11.5 44.5s-17.5 20.5 -29.5 20.5
c-20 0 -41.5 -10.333 -64.5 -31s-44.833 -49.667 -65.5 -87zM175.999 19.001c43.333 -42 87.333 -63 132 -63c32.667 0 49 14.667 49 44c0 28 -12.667 52.667 -38 74c-29.333 -20.667 -77 -39 -143 -55z" />
    <glyph glyph-name="uniFBAC" unicode="&#x6be;" horiz-adv-x="359" arabic-form="initial" 
d="M280 106c13.333 -13.333 24.4971 -31.167 33.4971 -53.5s13.5 -44.833 13.5 -67.5c0 -36.667 -7.66699 -67 -23 -91s-36.666 -36 -63.999 -36c-31.333 0 -64 12.667 -98 38s-63.667 60.333 -89 105c-16 -5.33301 -33.667 -8 -53 -8
c-7.33301 0 -13.666 4.83301 -18.999 14.5s-8 22.5 -8 38.5c0 14.667 2.83301 27.334 8.5 38.001s11.834 16 18.501 16c20 0 31.333 0.333008 34 1c26 60 58.5 110.5 97.5 151.5s74.167 61.5 105.5 61.5c18.667 0 35.167 -11.833 49.5 -35.5s21.5 -50.5 21.5 -80.5
c0 -34.667 -9.33301 -65.334 -28 -92.001zM100.997 18.999c43.333 -42 87.333 -63 132 -63c32.667 0 49 14.667 49 44c0 28 -12.667 52.667 -38 74c-29.333 -20.667 -77 -39 -143 -55zM81.9971 99.999c84 -2.66699 139.333 3.33301 166 18c2.66699 9.33301 4 21 4 35
c0 16 -3.66699 30.833 -11 44.5s-17 20.5 -29 20.5c-20 0 -41.5 -10.333 -64.5 -31s-44.833 -49.667 -65.5 -87z" />
    <glyph glyph-name="uniFBAD" unicode="&#x6be;" horiz-adv-x="393" arabic-form="medial" 
d="M323 14c2.66699 -12 3.99805 -21.667 3.99805 -29c0 -36.667 -7.66699 -67 -23 -91s-36.666 -36 -63.999 -36c-31.333 0 -64 12.667 -98 38s-63.667 60.333 -89 105c-16 -5.33301 -33.667 -8 -53 -8c-7.33301 0 -13.666 4.83301 -18.999 14.5s-8 22.5 -8 38.5
c0 12.667 2.66699 24.834 8 36.501s11.666 17.5 18.999 17.5h34c26.667 62.667 59.5 114 98.5 154s73.833 60 104.5 60c18.667 0 35.167 -12.167 49.5 -36.5s21.5 -50.833 21.5 -79.5c0 -26 -6.33301 -51.667 -19 -77c24.667 -14 59.334 -21 104.001 -21
c9.33301 0 17.333 -5.16699 24 -15.5s10 -23.833 10 -40.5c0 -14.667 -3.5 -26.834 -10.5 -36.501s-14.833 -14.5 -23.5 -14.5c-26.667 0 -50 7 -70 21zM81.998 100c84 -2.66699 139.333 3.33301 166 18c2.66699 9.33301 4 21 4 35c0 16 -3.66699 30.833 -11 44.5
s-17 20.5 -29 20.5c-20 0 -41.5 -10.333 -64.5 -31s-44.833 -49.667 -65.5 -87zM100.998 19c43.333 -42 87.333 -63 132 -63c32.667 0 49 14.667 49 44c0 28 -12.667 52.667 -38 74c-29.333 -20.667 -77 -39 -143 -55z" />
    <glyph glyph-name="uniFBAF" unicode="&#x6d2;" horiz-adv-x="332" arabic-form="final" 
d="M332 100c9.33301 0 17.002 -5.50098 23.002 -16.501s9 -23.833 9 -38.5c0 -14 -3 -26.167 -9 -36.5s-14 -15.5 -24 -15.5c-114 0 -192.667 -30.667 -236 -92c42.667 -16 100 -24 172 -24c154 0 282.333 4.66699 385 14l7 -12
c-20.667 -37.333 -47.334 -65.666 -80.001 -84.999c-133.333 -16 -266.333 -24 -399 -24c-100.667 0 -151 22.667 -151 68c0 26.667 14.667 65.667 44 117c27.333 45.333 63.666 80.833 108.999 106.5s95.333 38.5 150 38.5z" />
    <glyph glyph-name="uniFBB1" unicode="&#x6d3;" horiz-adv-x="332" arabic-form="final" 
d="M332 100c9.33301 0 17.002 -5.50098 23.002 -16.501s9 -23.833 9 -38.5c0 -14 -3 -26.167 -9 -36.5s-14 -15.5 -24 -15.5c-114 0 -192.667 -30.667 -236 -92c42.667 -16 100 -24 172 -24c154 0 282.333 4.66699 385 14l7 -12
c-20.667 -37.333 -47.334 -65.666 -80.001 -84.999c-133.333 -16 -266.333 -24 -399 -24c-100.667 0 -151 22.667 -151 68c0 26.667 14.667 65.667 44 117c27.333 45.333 63.666 80.833 108.999 106.5s95.333 38.5 150 38.5zM211.002 315.999l-34.001 -49.001
c-8.66699 6 -18.667 9 -30 9c-21.333 0 -36.333 -9 -45 -27c13.333 -12 32.333 -18 57 -18c26 0 52.667 8 80 24l-15 -61c-50 -12 -98.667 -35 -146 -69c-4 8 -6 15 -6 21c0 11.333 4.33301 21.333 13 30s18.667 14.334 30 17.001c-31.333 6.66699 -47 22.667 -47 48
c0 26 8.83301 47.833 26.5 65.5s38.834 26.5 63.501 26.5c20 0 37.667 -5.66699 53 -17z" />
    <glyph glyph-name="uniFBE8" unicode="&#x649;" horiz-adv-x="246" arabic-form="initial" 
d="M81 261l64 109.001c40.667 -52.667 61 -109.334 61 -170.001c0 -45.333 -13.667 -89.333 -41 -132c-32.667 -50 -87.667 -75 -165 -75c-18 0 -27 17.667 -27 53c0 36 9 54 27 54c70 0 119.667 10.333 149 31c-4 23.333 -12.833 47.333 -26.5 72s-27.5 44 -41.5 58z" />
    <glyph glyph-name="uniFBE9" unicode="&#x649;" horiz-adv-x="323" arabic-form="medial" 
d="M124 199l36.001 43.999h1c14 -50.667 34 -87.167 60 -109.5s60 -33.5 102 -33.5c9.33301 0 17.5 -5.16699 24.5 -15.5s10.5 -23.166 10.5 -38.499s-3.5 -28 -10.5 -38s-15.167 -15 -24.5 -15c-80.667 0 -138.334 33.667 -173.001 101h-1
c-32 -67.333 -81.667 -101 -149 -101c-18 0 -27 18 -27 54c0 35.333 9 53 27 53c58 0 101.333 18.667 130 56z" />
    <glyph glyph-name="uniFBFD" unicode="&#x6cc;" horiz-adv-x="630" arabic-form="final" 
d="M115 103c-10.667 -25.333 -15.998 -56.332 -15.998 -92.999c0 -53.333 16.5 -93 49.5 -119s86.833 -39 161.5 -39c135.333 0 215.333 13 240 39c-8.66699 6.66699 -24.334 10 -47.001 10h-89c-52.667 0 -79 15.667 -79 47c0 17.333 7 37 21 59s32 39.667 54 53
c24 14.667 51.5 25 82.5 31s76.833 9 137.5 9c8.66699 0 16.667 -5.16699 24 -15.5s11 -23.166 11 -38.499s-3.66699 -28 -11 -38s-15.333 -15 -24 -15h-12c-16.667 0 -42 2.33301 -76 7c-32.667 6 -59.334 9 -80.001 9c-36 0 -61.333 -13 -76 -39
c8.66699 -5.33301 23 -8 43 -8h90c50 0 75 -13.333 75 -40c0 -35.333 -17 -71 -51 -107c-22 -22 -56.167 -39.833 -102.5 -53.5s-100.5 -20.5 -162.5 -20.5c-76.667 0 -134.5 18.833 -173.5 56.5s-58.5 90.167 -58.5 157.5c0 31.333 4.5 59.166 13.5 83.499
s19.167 40.166 30.5 47.499z" />
    <glyph glyph-name="uniFBFE" unicode="&#x6cc;" horiz-adv-x="246" arabic-form="initial" 
d="M81 261l64 109.001c40.667 -52.667 61 -109.334 61 -170.001c0 -45.333 -13.667 -89.333 -41 -132c-32.667 -50 -87.667 -75 -165 -75c-18 0 -27 17.667 -27 53c0 36 9 54 27 54c70 0 119.667 10.333 149 31c-4 23.333 -12.833 47.333 -26.5 72s-27.5 44 -41.5 58z
M242 -129.999l-52.999 -66c-25.333 12 -47 28.667 -65 50l-40 -55c-12.667 5.33301 -26 13.5 -40 24.5s-25 22.5 -33 34.5l53 67c17.333 -24 37 -43 59 -57l46 62c17.333 -22 41.666 -42 72.999 -60z" />
    <glyph glyph-name="uniFBFF" unicode="&#x6cc;" horiz-adv-x="323" arabic-form="medial" 
d="M124 199l36 43.999c13.333 -51.333 33.333 -88 60 -110s61 -33 103 -33c9.33301 0 17.5 -5.16699 24.5 -15.5s10.5 -23.166 10.5 -38.499s-3.5 -28 -10.5 -38s-15.167 -15 -24.5 -15c-84.667 0 -142.667 33.667 -174 101c-32 -67.333 -81.667 -101 -149 -101
c-18 0 -27 18 -27 54c0 35.333 9 53 27 53c58 0 101.333 18.667 130 56zM287 -130.001l-52.999 -66c-25.333 12 -47 28.667 -65 50l-40 -55c-12.667 5.33301 -26 13.5 -40 24.5s-25 22.5 -33 34.5l53 67c17.333 -24 37 -43 59 -57l46 62c17.333 -22 41.666 -42 72.999 -60z
" />
    <glyph glyph-name="uniFC5E" unicode="&#xfc5e;" arabic-form="isolated" 
d="M166 819l26 -11.001c5.33301 -13.333 8 -28.666 8 -45.999c0 -23.333 -5.66699 -42.333 -17 -57s-24.666 -22 -39.999 -22c-18 0 -30.333 9.66699 -37 29c-12.667 -44.667 -30 -67 -52 -67c-10 0 -18.5 5.33301 -25.5 16s-10.5 25 -10.5 43
c0 21.333 4.33301 40.666 13 57.999l22 18c-1.33301 -9.33301 -2 -16.666 -2 -21.999c0 -26 6.33301 -39 19 -39c9.33301 0 18.666 8 27.999 24c0 22 1.33301 36.333 4 43l20 17c0 -36.667 7.66699 -55 23 -55s23 14.667 23 44c0 6 -0.666992 15 -2 27zM-16 857.999
l-14.001 49.001c16 21.333 35.333 32 58 32c12.667 0 22.834 -4.83301 30.501 -14.5s11.5 -21.167 11.5 -34.5c0 -6 -2.66699 -15 -8 -27c24.667 1.33301 44.334 6.33301 59.001 15c-31.333 16 -47 44.667 -47 86c0 18 3.66699 32.333 11 43s16.666 16 27.999 16
c20.667 0 38.167 -8 52.5 -24s21.5 -35.333 21.5 -58c0 -10.667 -1.66699 -22 -5 -34c5.33301 -0.666992 14 -1 26 -1l-21 -44c-10.667 0 -19 0.666992 -25 2c-30 -34.667 -79.333 -54.334 -148 -59.001c18 24 27 43.333 27 58c0 12.667 -6 19 -18 19
c-13.333 0 -26.333 -8 -39 -24zM152.999 910c2.66699 4.66699 4 10.332 4 16.999c0 8.66699 -3.5 16.834 -10.5 24.501s-15.167 11.5 -24.5 11.5c-12.667 0 -19 -4 -19 -12c0 -7.33301 4.5 -15 13.5 -23s21.167 -14 36.5 -18z" />
    <glyph glyph-name="uniFC5F" unicode="&#xfc5f;" arabic-form="isolated" 
d="M166 1006l26 -11.001c5.33301 -13.333 8 -28.666 8 -45.999c0 -23.333 -5.66699 -42.333 -17 -57s-24.666 -22 -39.999 -22c-18 0 -30.333 9.66699 -37 29c-12.667 -44.667 -30 -67 -52 -67c-10 0 -18.5 5.33301 -25.5 16s-10.5 25 -10.5 43
c0 21.333 4.33301 40.666 13 57.999l22 18c-1.33301 -9.33301 -2 -16.666 -2 -21.999c0 -26 6.33301 -39 19 -39c9.33301 0 18.666 8 27.999 24c0 22 1.33301 36.333 4 43l20 17c0 -36.667 7.66699 -55 23 -55s23 14.667 23 44c0 6 -0.666992 15 -2 27zM0 627.999
c0.666992 12 6.66699 29.332 18 51.999c52 34.667 120.333 66.334 205 95.001l-21 -55c-62.667 -21.333 -130 -52 -202 -92zM8 713.998c0.666992 12 6.66699 29.333 18 52c56 36 124.333 67.667 205 95l-21 -55c-62.667 -21.333 -130 -52 -202 -92z" />
    <glyph glyph-name="uniFC60" unicode="&#xfc60;" arabic-form="isolated" 
d="M166 819l26 -11.001c5.33301 -13.333 8 -28.666 8 -45.999c0 -23.333 -5.66699 -42.333 -17 -57s-24.666 -22 -39.999 -22c-18 0 -30.333 9.66699 -37 29c-12.667 -44.667 -30 -67 -52 -67c-10 0 -18.5 5.33301 -25.5 16s-10.5 25 -10.5 43
c0 21.333 4.33301 40.666 13 57.999l22 18c-1.33301 -9.33301 -2 -16.666 -2 -21.999c0 -26 6.33301 -39 19 -39c9.33301 0 18.666 8 27.999 24c0 22 1.33301 36.333 4 43l20 17c0 -36.667 7.66699 -55 23 -55s23 14.667 23 44c0 6 -0.666992 15 -2 27zM-4 777.999
c0.666992 12 6.66699 29.332 18 51.999c52 34.667 120.333 66.334 205 95.001l-21 -55c-62.667 -21.333 -130 -52 -202 -92z" />
    <glyph glyph-name="uniFC61" unicode="&#xfc61;" arabic-form="isolated" 
d="M166 819l26 -11.001c5.33301 -13.333 8 -28.666 8 -45.999c0 -23.333 -5.66699 -42.333 -17 -57s-24.666 -22 -39.999 -22c-18 0 -30.333 9.66699 -37 29c-12.667 -44.667 -30 -67 -52 -67c-10 0 -18.5 5.33301 -25.5 16s-10.5 25 -10.5 43
c0 21.333 4.33301 40.666 13 57.999l22 18c-1.33301 -9.33301 -2 -16.666 -2 -21.999c0 -26 6.33301 -39 19 -39c9.33301 0 18.666 8 27.999 24c0 22 1.33301 36.333 4 43l20 17c0 -36.667 7.66699 -55 23 -55s23 14.667 23 44c0 6 -0.666992 15 -2 27zM-17 830.999
c45.333 10 79.999 22.999 103.999 38.999c-26 24 -39 51 -39 81c0 17.333 5 31.333 15 42s21.333 16 34 16c19.333 0 36 -8.16699 50 -24.5s21 -34.5 21 -54.5c0 -14 -3.66699 -27.667 -11 -41c6 -0.666992 16.667 -1 32 -1l-22 -45c-13.333 0 -26 1.66699 -38 5
c-11.333 -11.333 -25.666 -21.166 -42.999 -29.499s-33 -12.5 -47 -12.5c-9.33301 0 -19.333 3 -30 9zM142.999 925.998c-9.33301 17.333 -22.667 26 -40 26c-12.667 0 -19 -6 -19 -18c0 -17.333 12 -30.333 36 -39c11.333 10.667 19 21 23 31z" />
    <glyph glyph-name="uniFC62" unicode="&#xfc62;" arabic-form="isolated" 
d="M166 957l26 -11.001c5.33301 -13.333 8 -28.666 8 -45.999c0 -23.333 -5.66699 -42.333 -17 -57s-24.666 -22 -39.999 -22c-18 0 -30.333 9.66699 -37 29c-12.667 -44.667 -30 -67 -52 -67c-10 0 -18.5 5.33301 -25.5 16s-10.5 25 -10.5 43
c0 21.333 4.33301 40.666 13 57.999l22 18c-1.33301 -9.33301 -2 -16.666 -2 -21.999c0 -26 6.33301 -39 19 -39c9.33301 0 18.666 8 27.999 24c0 22 1.33301 36.333 4 43l20 17c0 -36.667 7.66699 -55 23 -55s23 14.667 23 44c0 6 -0.666992 15 -2 27zM8 667.999
c0.666992 12 6.66699 29.333 18 52c56 36 124.333 67.667 205 95l-21 -55c-62.667 -21.333 -130 -52 -202 -92z" />
    <glyph glyph-name="uniFC63" unicode="&#xfc63;" arabic-form="isolated" 
d="M166 819l26 -11.001c5.33301 -13.333 8 -28.666 8 -45.999c0 -23.333 -5.66699 -42.333 -17 -57s-24.666 -22 -39.999 -22c-18 0 -30.333 9.66699 -37 29c-12.667 -44.667 -30 -67 -52 -67c-10 0 -18.5 5.33301 -25.5 16s-10.5 25 -10.5 43
c0 21.333 4.33301 40.666 13 57.999l22 18c-1.33301 -9.33301 -2 -16.666 -2 -21.999c0 -26 6.33301 -39 19 -39c9.33301 0 18.666 8 27.999 24c0 22 1.33301 36.333 4 43l20 17c0 -36.667 7.66699 -55 23 -55s23 14.667 23 44c0 6 -0.666992 15 -2 27zM95 827.999
l-10.001 4c0 32.667 -3 64.667 -9 96c-3.33301 18.667 -5.66602 40 -6.99902 64l50 36c0 -24.667 1.33301 -53 4 -85c2 -40 3 -61.333 3 -64c0 -8.66699 -2.83301 -18 -8.5 -28s-13.167 -17.667 -22.5 -23z" />
    <glyph glyph-name="uniFDF2" unicode="&#xfdf2;" horiz-adv-x="861" arabic-form="isolated" 
d="M545 409l79.002 75.998c4 -75.333 9.33301 -135.333 16 -180l5 -32c5.33301 -39.333 8 -75 8 -107c0 -48.667 -10.333 -89.667 -31 -123s-48.334 -50 -83.001 -50c-60 0 -99 30.333 -117 91c-22 -60 -54.333 -90.333 -97 -91h-2c-50.667 1.33301 -79 32 -85 92
c-16.667 -24 -31.334 -40 -44.001 -48s-27.334 -12 -44.001 -12c-29.333 0 -55.5 8.83301 -78.5 26.5s-34.5 39.5 -34.5 65.5c0 31.333 14 59.5 42 84.5s72 51.5 132 79.5l-9 37l65 69c13.333 -46.667 23.666 -102.667 30.999 -168c4.66699 -47.333 10.667 -79 18 -95
s19.333 -24 36 -24c25.333 0 43 12.333 53 37c-12 64 -20.333 139.333 -25 226l74 68c3.33301 -89.333 8.83301 -158.666 16.5 -207.999s16.667 -82.166 27 -98.499s24.166 -24.5 41.499 -24.5c24.667 0 42.334 6.33301 53.001 19c-1.33301 16 -8.66602 57 -21.999 123
s-21.666 121.667 -24.999 167zM222.002 221.998c-61.333 -20 -104.666 -42 -129.999 -66c18 -30 46.333 -45 85 -45c23.333 0 42.666 6 57.999 18c-2.66699 32.667 -7 63.667 -13 93zM810.002 603.998l-0.000976562 -29.001c0 -56 2 -136.667 6 -242
c4.66699 -87.333 7 -150.333 7 -189c0 -43.333 -2.66699 -74.666 -8 -93.999c-9.33301 -26 -22.666 -49.667 -39.999 -71h-24c0 126.667 -4 235.667 -12 327c-10 104 -15 180.667 -15 230l85 69zM461.001 599.997l26 -11.001c5.33301 -13.333 8 -28.666 8 -45.999
c0 -23.333 -5.66699 -42.333 -17 -57s-24.666 -22 -39.999 -22c-18 0 -30.333 9.66699 -37 29c-12.667 -44.667 -30 -67 -52 -67c-10 0 -18.5 5.33301 -25.5 16s-10.5 25 -10.5 43c0 21.333 4.33301 40.666 13 57.999l22 18c-1.33301 -9.33301 -2 -16.666 -2 -21.999
c0 -26 6.33301 -39 19 -39c9.33301 0 18.666 8 27.999 24c0 22 1.33301 36.333 4 43l20 17c0 -36.667 7.66699 -55 23 -55s23 14.667 23 44c0 6 -0.666992 15 -2 27zM390.001 604.996l-10.001 4c0 32.667 -3 64.667 -9 96c-3.33301 18.667 -5.66602 40 -6.99902 64l50 36
c0 -24.667 1.33301 -53 4 -85c2 -40 3 -61.333 3 -64c0 -8.66699 -2.83301 -18 -8.5 -28s-13.167 -17.667 -22.5 -23z" />
    <glyph glyph-name="uniFDFC" unicode="&#xfdfc;" horiz-adv-x="816" arabic-form="isolated" 
d="M647 639l-38.9971 -98.998c-10.667 5.33301 -19.667 8 -27 8c-37.333 0 -57 -40.667 -59 -122c37.333 38 70.666 57 99.999 57c18 0 32.167 -6.33301 42.5 -19s15.5 -29 15.5 -49c0 -23.333 -6.66699 -50 -20 -80l-35 -5c4.66699 12.667 7 23 7 31
c0 6 -2.16699 11.167 -6.5 15.5s-10.166 6.5 -17.499 6.5c-20.667 0 -47 -16.333 -79 -49c5.33301 -66 16.333 -113.167 33 -141.5s40 -42.5 70 -42.5s51 7.33301 63 22c-3.33301 34 -15.666 63.333 -36.999 88l50 92c26.667 -41.333 40 -87.333 40 -138
c0 -47.333 -11.667 -86.5 -35 -117.5s-53.333 -46.5 -90 -46.5c-43.333 0 -76.5 17.833 -99.5 53.5s-38.5 94.834 -46.5 177.501l-57 -69c3.33301 -36.667 5 -73.334 5 -110.001c0 -62.667 -18.5 -114.667 -55.5 -156s-91.833 -62 -164.5 -62
c-46 0 -81.167 12.333 -105.5 37s-36.5 59.334 -36.5 104.001c0 24 4.16699 47.667 12.5 71s16.833 37.666 25.5 42.999l21 15c-8 -18.667 -12 -41.334 -12 -68.001c0 -64.667 36.333 -97 109 -97c63.333 0 113.333 15.667 150 47c0 40 -1.66699 80 -5 120
c-34.667 -31.333 -70.667 -47 -108 -47c-34.667 0 -63.834 12.5 -87.501 37.5s-35.5 56.833 -35.5 95.5c0 28.667 5 56 15 82s20 41.333 30 46l26 14c-15.333 -29.333 -23 -59.666 -23 -90.999c0 -24.667 6.5 -43.834 19.5 -57.501s32.167 -20.5 57.5 -20.5
c32 0 64 13 96 39c-2.66699 25.333 -8.33398 62.666 -17.001 111.999s-14.334 87.333 -17.001 114c-5.33301 10 -9.33301 23 -12 39l73 45c12 -47.333 33.333 -87 64 -119l-41 -25c1.33301 -44 3.66602 -82.333 6.99902 -115l61 71v46c0 69.333 11.333 124.833 34 166.5
s53.667 62.5 93 62.5c17.333 0 33.333 -4 48 -12zM707.003 -53.998l-51 -63c-18.667 9.33301 -39 25 -61 47l-37 -52c-28.667 14 -51.334 32.667 -68.001 56l50 62c16.667 -22 35 -39 55 -51l44 57c18.667 -24 41.334 -42.667 68.001 -56z" />
    <glyph glyph-name="uniFE82" unicode="&#x622;" horiz-adv-x="238" arabic-form="final" 
d="M140 604c8 -82 12 -201.334 12 -358.001c0 -60 6.33301 -99.333 19 -118s35 -28 67 -28c8.66699 0 16.667 -5.16699 24 -15.5s11 -23.166 11 -38.499s-3.66699 -28 -11 -38s-15.333 -15 -24 -15c-58 0 -99.333 15 -124 45c-12.667 16.667 -21.667 37.5 -27 62.5
s-8 67.833 -8 128.5c0 131.333 -5.33301 234 -16 308l76 67h1zM233 764.999l14.9971 -0.00195312c-3.33301 -26 -8.33301 -47.667 -15 -65c-5.33301 -15.333 -15.166 -26.666 -29.499 -33.999s-43.5 -14 -87.5 -20c-46 -7.33301 -76 -14.833 -90 -22.5
s-24.667 -23.167 -32 -46.5h-18c2 34 7.33301 62.333 16 85c7.33301 19.333 19 32.333 35 39s50.333 13.334 103 20.001c38.667 4.66699 63.334 9.5 74.001 14.5s20.334 14.833 29.001 29.5z" />
    <glyph glyph-name="uniFE84" unicode="&#x623;" horiz-adv-x="230" arabic-form="final" 
d="M132 604c8 -82 12 -201.334 12 -358.001c0 -60 6.33301 -99.333 19 -118s35 -28 67 -28c8.66699 0 16.667 -5.16699 24 -15.5s11 -23.166 11 -38.499s-3.66699 -28 -11 -38s-15.333 -15 -24 -15c-58 0 -99.333 15 -124 45c-12.667 16.667 -21.667 37.5 -27 62.5
s-8 67.833 -8 128.5c0 131.333 -5.33301 234 -16 308l76 67h1zM157 787.999l-34.001 -49.001c-8.66699 6 -18.667 9 -30 9c-21.333 0 -36.333 -9 -45 -27c13.333 -12 32.333 -18 57 -18c26 0 52.667 8 80 24l-15 -61c-50 -12 -98.667 -35 -146 -69c-4 8 -6 15 -6 21
c0 11.333 4.33301 21.333 13 30s18.667 14.334 30 17.001c-31.333 6.66699 -47 22.667 -47 48c0 26 8.83301 47.833 26.5 65.5s38.834 26.5 63.501 26.5c20 0 37.667 -5.66699 53 -17z" />
    <glyph glyph-name="uniFE86" unicode="&#x624;" horiz-adv-x="380" arabic-form="final" 
d="M7 -154c78 18 139.835 40.3311 185.502 66.998s74.5 53.334 86.5 80.001c-54.667 2.66699 -97.5 17.667 -128.5 45s-46.5 61.333 -46.5 102c0 36 11.667 69.667 35 101s48.333 47 75 47c31.333 0 59.166 -18 83.499 -54s39.166 -80.667 44.499 -134h38
c9.33301 0 17.5 -5.16699 24.5 -15.5s10.5 -23.166 10.5 -38.499s-3.5 -28 -10.5 -38s-15.167 -15 -24.5 -15h-43c-18.667 -82 -70 -149.667 -154 -203l-158 30zM145.002 139.998c6 -12 18.333 -22 37 -30s40.667 -12 66 -12c9.33301 0 24 0.666992 44 2
c-6.66699 28 -17.667 50.5 -33 67.5s-32.333 25.5 -51 25.5c-14 0 -27 -5 -39 -15s-20 -22.667 -24 -38zM262.002 504.998l-34.002 -49.001c-9.33301 6 -19.333 9 -30 9c-21.333 0 -36.333 -9 -45 -27c13.333 -12 32.333 -18 57 -18c26.667 0 53.334 8 80.001 24l-15 -61
c-50 -12 -98.667 -35 -146 -69c-4 8 -6 15 -6 21c0 11.333 4.33301 21.333 13 30s18.667 14.334 30 17.001c-31.333 6.66699 -47 22.667 -47 48c0 26 8.83301 47.833 26.5 65.5s38.834 26.5 63.501 26.5c20 0 37.667 -5.66699 53 -17z" />
    <glyph glyph-name="uniFE88" unicode="&#x625;" horiz-adv-x="230" arabic-form="final" 
d="M132 604c8 -82 12 -201.334 12 -358.001c0 -60 6.33301 -99.333 19 -118s35 -28 67 -28c8.66699 0 16.667 -5.16699 24 -15.5s11 -23.166 11 -38.499s-3.66699 -28 -11 -38s-15.333 -15 -24 -15c-58 0 -99.333 15 -124 45c-12.667 16.667 -21.667 37.5 -27 62.5
s-8 67.833 -8 128.5c0 131.333 -5.33301 234 -16 308l76 67h1zM189 -88.001l-34 -49.002c-8.66699 6 -18.667 9 -30 9c-20.667 0 -35.667 -9 -45 -27c13.333 -12 32.333 -18 57 -18c26 0 53 8 81 24l-16 -61c-22 -5.33301 -46.833 -14.666 -74.5 -27.999
s-51.5 -27 -71.5 -41c-3.33301 6.66699 -5 13.334 -5 20.001c0 11.333 4.16699 21.333 12.5 30s18.166 14.667 29.499 18c-31.333 6.66699 -47 22.667 -47 48c0 26 8.83301 47.833 26.5 65.5s38.834 26.5 63.501 26.5c20 0 37.667 -5.66699 53 -17z" />
    <glyph glyph-name="uniFE8A" unicode="&#x626;" horiz-adv-x="566" arabic-form="final" 
d="M119 128c-11.333 -26.667 -17.002 -57.001 -17.002 -91.001c0 -104.667 53.333 -157 160 -157c56.667 0 106.334 5.16699 149.001 15.5s73 22.166 91 35.499v1c-23.333 18.667 -66.333 39 -129 61c6.66699 38 17.334 65.667 32.001 83c38.667 16 92.334 24 161.001 24
c8.66699 0 16.5 -5.16699 23.5 -15.5s10.5 -23.166 10.5 -38.499s-3.5 -28 -10.5 -38s-14.833 -15 -23.5 -15h-61l-1 -1c29.333 -21.333 44 -40.666 44 -57.999c0 -26 -11 -51 -33 -75s-57.833 -45 -107.5 -63s-103.5 -27 -161.5 -27c-61.333 0 -109.333 17.833 -144 53.5
s-52 85.834 -52 150.501c0 31.333 4.66699 60.166 14 86.499s19.666 43.5 30.999 51.5zM196.998 357.999l-34.001 -49.001c-8.66699 6 -18.667 9 -30 9c-21.333 0 -36.333 -9 -45 -27c13.333 -12 32.333 -18 57 -18c26 0 52.667 8 80 24l-15 -61
c-50 -12 -98.667 -35 -146 -69c-4 8 -6 15 -6 21c0 11.333 4.33301 21.333 13 30s18.667 14.334 30 17.001c-31.333 6.66699 -47 22.667 -47 48c0 26 8.83301 47.833 26.5 65.5s38.834 26.5 63.501 26.5c20 0 37.667 -5.66699 53 -17z" />
    <glyph glyph-name="uniFE8B" unicode="&#x626;" horiz-adv-x="249" arabic-form="initial" 
d="M81 261l64 109.001c40.667 -52.667 61 -109.334 61 -170.001c0 -45.333 -13.667 -89.333 -41 -132c-32.667 -50 -87.667 -75 -165 -75c-18 0 -27 17.667 -27 53c0 36 9 54 27 54c70 0 119.667 10.333 149 31c-4 23.333 -12.833 47.333 -26.5 72s-27.5 44 -41.5 58z
M181 571.001l-34.001 -49.001c-8.66699 6 -18.667 9 -30 9c-21.333 0 -36.333 -9 -45 -27c13.333 -12 32.333 -18 57 -18c26 0 52.667 8 80 24l-15 -61c-50 -12 -98.667 -35 -146 -69c-4 8 -6 15 -6 21c0 11.333 4.33301 21.333 13 30s18.667 14.334 30 17.001
c-31.333 6.66699 -47 22.667 -47 48c0 26 8.83301 47.833 26.5 65.5s38.834 26.5 63.501 26.5c20 0 37.667 -5.66699 53 -17z" />
    <glyph glyph-name="uniFE8C" unicode="&#x626;" horiz-adv-x="323" arabic-form="medial" 
d="M124 199l36.001 43.999h1c14 -50.667 34 -87.167 60 -109.5s60 -33.5 102 -33.5c9.33301 0 17.5 -5.16699 24.5 -15.5s10.5 -23.166 10.5 -38.499s-3.5 -28 -10.5 -38s-15.167 -15 -24.5 -15c-80.667 0 -138.334 33.667 -173.001 101h-1
c-32 -67.333 -81.667 -101 -149 -101c-18 0 -27 18 -27 54c0 35.333 9 53 27 53c58 0 101.333 18.667 130 56zM215.001 485.999l-34.001 -49.001c-8.66699 6 -18.667 9 -30 9c-21.333 0 -36.333 -9 -45 -27c13.333 -12 32.333 -18 57 -18c26 0 52.667 8 80 24l-15 -61
c-50 -12 -98.667 -35 -146 -69c-4 8 -6 15 -6 21c0 11.333 4.33301 21.333 13 30s18.667 14.334 30 17.001c-31.333 6.66699 -47 22.667 -47 48c0 26 8.83301 47.833 26.5 65.5s38.834 26.5 63.501 26.5c20 0 37.667 -5.66699 53 -17z" />
    <glyph glyph-name="uniFE8E" unicode="&#x627;" horiz-adv-x="230" arabic-form="final" 
d="M132 604c8 -82 12 -201.334 12 -358.001c0 -60 6.33301 -99.333 19 -118s35 -28 67 -28c8.66699 0 16.667 -5.16699 24 -15.5s11 -23.166 11 -38.499s-3.66699 -28 -11 -38s-15.333 -15 -24 -15c-58 0 -99.333 15 -124 45c-12.667 16.667 -21.667 37.5 -27 62.5
s-8 67.833 -8 128.5c0 131.333 -5.33301 234 -16 308l76 67h1z" />
    <glyph glyph-name="uniFE90" unicode="&#x628;" horiz-adv-x="827" arabic-form="final" 
d="M94 303c-5.33301 -17.333 -8 -36.668 -8 -58.001c0 -53.333 20.833 -92 62.5 -116s111.5 -36 209.5 -36c161.333 0 287 41.333 377 124l34 -3v-1l-37 -54c12 -39.333 43.667 -59 95 -59c8.66699 0 16.667 -5.16699 24 -15.5s11 -23.166 11 -38.499s-3.66699 -28 -11 -38
s-15.333 -15 -24 -15c-82.667 0 -124 44 -124 132c-92 -95.333 -222 -143 -390 -143c-98.667 0 -169.5 14.833 -212.5 44.5s-64.5 77.5 -64.5 143.5c0 27.333 3.5 51.833 10.5 73.5s14.833 35.5 23.5 41.5zM406 -136.002l-54.999 -69c-34 16 -59.667 36.667 -77 62l56 69
c19.333 -24 44.666 -44.667 75.999 -62z" />
    <glyph glyph-name="uniFE91" unicode="&#x628;" horiz-adv-x="246" arabic-form="initial" 
d="M81 261l64 109.001c40.667 -52.667 61 -109.334 61 -170.001c0 -45.333 -13.667 -89.333 -41 -132c-32.667 -50 -87.667 -75 -165 -75c-18 0 -27 17.667 -27 53c0 36 9 54 27 54c70 0 119.667 10.333 149 31c-4 23.333 -12.833 47.333 -26.5 72s-27.5 44 -41.5 58z
M192 -131.999l-54.999 -69c-34 16 -59.667 36.667 -77 62l56 69c19.333 -24 44.666 -44.667 75.999 -62z" />
    <glyph glyph-name="uniFE92" unicode="&#x628;" horiz-adv-x="323" arabic-form="medial" 
d="M124 199l36.001 43.999h1c14 -50.667 34 -87.167 60 -109.5s60 -33.5 102 -33.5c9.33301 0 17.5 -5.16699 24.5 -15.5s10.5 -23.166 10.5 -38.499s-3.5 -28 -10.5 -38s-15.167 -15 -24.5 -15c-80.667 0 -138.334 33.667 -173.001 101h-1
c-32 -67.333 -81.667 -101 -149 -101c-18 0 -27 18 -27 54c0 35.333 9 53 27 53c58 0 101.333 18.667 130 56zM232.001 -132.001l-54.999 -69c-34 16 -59.667 36.667 -77 62l56 69c19.333 -24 44.666 -44.667 75.999 -62z" />
    <glyph glyph-name="uniFE94" unicode="&#x629;" horiz-adv-x="399" arabic-form="final" 
d="M248 428c21.333 -46 41.333 -119.668 60 -221.001c8 -42.667 18.333 -71.167 31 -85.5s32.667 -21.5 60 -21.5c8.66699 0 16.5 -5.16699 23.5 -15.5s10.5 -23.166 10.5 -38.499s-3.5 -28 -10.5 -38s-14.833 -15 -23.5 -15c-79.333 0 -128.666 39 -147.999 117l-24 -27
c-25.333 -30.667 -53 -46 -83 -46c-28 0 -54 10.667 -78 32s-36 44 -36 68c0 24.667 7.33301 46.667 22 66c25.333 34 77.666 69 156.999 105l-19 51zM226 241.999c-66.667 -20 -112.666 -41 -137.999 -63c18 -34 49.667 -51 95 -51c21.333 0 41.333 5.66699 60 17
c-4.66699 36 -10.334 68.333 -17.001 97zM336.001 534.999l-52.999 -66c-25.333 12 -47 28.667 -65 50l-40 -55c-12.667 5.33301 -26 13.5 -40 24.5s-25 22.5 -33 34.5l53 67c17.333 -24 37 -43 59 -57l46 62c17.333 -22 41.666 -42 72.999 -60z" />
    <glyph glyph-name="uniFE96" unicode="&#x62a;" horiz-adv-x="827" arabic-form="final" 
d="M94 303c-5.33301 -17.333 -8 -36.668 -8 -58.001c0 -53.333 20.833 -92 62.5 -116s111.5 -36 209.5 -36c161.333 0 287 41.333 377 124l34 -3v-1l-37 -54c12 -39.333 43.667 -59 95 -59c8.66699 0 16.667 -5.16699 24 -15.5s11 -23.166 11 -38.499s-3.66699 -28 -11 -38
s-15.333 -15 -24 -15c-82.667 0 -124 44 -124 132c-92 -95.333 -222 -143 -390 -143c-98.667 0 -169.5 14.833 -212.5 44.5s-64.5 77.5 -64.5 143.5c0 27.333 3.5 51.833 10.5 73.5s14.833 35.5 23.5 41.5zM507 372.998l-52.999 -66c-25.333 12 -47 28.667 -65 50l-40 -55
c-12.667 5.33301 -26 13.5 -40 24.5s-25 22.5 -33 34.5l53 67c17.333 -24 37 -43 59 -57l46 62c17.333 -22 41.666 -42 72.999 -60z" />
    <glyph glyph-name="uniFE97" unicode="&#x62a;" horiz-adv-x="246" arabic-form="initial" 
d="M81 261l64 109.001c40.667 -52.667 61 -109.334 61 -170.001c0 -45.333 -13.667 -89.333 -41 -132c-32.667 -50 -87.667 -75 -165 -75c-18 0 -27 17.667 -27 53c0 36 9 54 27 54c70 0 119.667 10.333 149 31c-4 23.333 -12.833 47.333 -26.5 72s-27.5 44 -41.5 58z
M239 501.001l-52.999 -66c-25.333 12 -47 28.667 -65 50l-40 -55c-12.667 5.33301 -26 13.5 -40 24.5s-25 22.5 -33 34.5l53 67c17.333 -24 37 -43 59 -57l46 62c17.333 -22 41.666 -42 72.999 -60z" />
    <glyph glyph-name="uniFE98" unicode="&#x62a;" horiz-adv-x="323" arabic-form="medial" 
d="M124 199l36.001 43.999h1c14 -50.667 34 -87.167 60 -109.5s60 -33.5 102 -33.5c9.33301 0 17.5 -5.16699 24.5 -15.5s10.5 -23.166 10.5 -38.499s-3.5 -28 -10.5 -38s-15.167 -15 -24.5 -15c-80.667 0 -138.334 33.667 -173.001 101h-1
c-32 -67.333 -81.667 -101 -149 -101c-18 0 -27 18 -27 54c0 35.333 9 53 27 53c58 0 101.333 18.667 130 56zM262.001 403.999l-52.999 -66c-25.333 12 -47 28.667 -65 50l-40 -55c-12.667 5.33301 -26 13.5 -40 24.5s-25 22.5 -33 34.5l53 67c17.333 -24 37 -43 59 -57
l46 62c17.333 -22 41.666 -42 72.999 -60z" />
    <glyph glyph-name="uniFE9A" unicode="&#x62b;" horiz-adv-x="827" arabic-form="final" 
d="M94 303c-5.33301 -17.333 -8 -36.668 -8 -58.001c0 -53.333 20.833 -92 62.5 -116s111.5 -36 209.5 -36c161.333 0 287 41.333 377 124l34 -3v-1l-37 -54c12 -39.333 43.667 -59 95 -59c8.66699 0 16.667 -5.16699 24 -15.5s11 -23.166 11 -38.499s-3.66699 -28 -11 -38
s-15.333 -15 -24 -15c-82.667 0 -124 44 -124 132c-92 -95.333 -222 -143 -390 -143c-98.667 0 -169.5 14.833 -212.5 44.5s-64.5 77.5 -64.5 143.5c0 27.333 3.5 51.833 10.5 73.5s14.833 35.5 23.5 41.5zM437 484.998l-52.001 -64.001
c-9.33301 4 -21.666 12.333 -36.999 25s-26.333 23.667 -33 33l54 67c16 -23.333 38.667 -43.666 68 -60.999zM506.999 372.997l-53 -65.999c-25.333 12 -47 28.667 -65 50l-40 -55c-12.667 5.33301 -26 13.5 -40 24.5s-25 22.5 -33 34.5l50 65
c17.333 -22 38 -40.333 62 -55l47 61c18 -22.667 42 -42.334 72 -59.001z" />
    <glyph glyph-name="uniFE9B" unicode="&#x62b;" horiz-adv-x="249" arabic-form="initial" 
d="M81 261l64 109.001c40.667 -52.667 61 -109.334 61 -170.001c0 -45.333 -13.667 -89.333 -41 -132c-32.667 -50 -87.667 -75 -165 -75c-18 0 -27 17.667 -27 53c0 36 9 54 27 54c70 0 119.667 10.333 149 31c-4 23.333 -12.833 47.333 -26.5 72s-27.5 44 -41.5 58z
M171 581.001l-52.001 -64.001c-9.33301 4 -21.666 12.333 -36.999 25s-26.333 23.667 -33 33l54 67c16 -23.333 38.667 -43.666 68 -60.999zM240.999 469l-53 -65.999c-25.333 12 -47 28.667 -65 50l-40 -55c-12.667 5.33301 -26 13.5 -40 24.5s-25 22.5 -33 34.5l50 65
c17.333 -22 38 -40.333 62 -55l47 61c18 -22.667 42 -42.334 72 -59.001z" />
    <glyph glyph-name="uniFE9C" unicode="&#x62b;" horiz-adv-x="323" arabic-form="medial" 
d="M124 199l36.001 43.999h1c14 -50.667 34 -87.167 60 -109.5s60 -33.5 102 -33.5c9.33301 0 17.5 -5.16699 24.5 -15.5s10.5 -23.166 10.5 -38.499s-3.5 -28 -10.5 -38s-15.167 -15 -24.5 -15c-80.667 0 -138.334 33.667 -173.001 101h-1
c-32 -67.333 -81.667 -101 -149 -101c-18 0 -27 18 -27 54c0 35.333 9 53 27 53c58 0 101.333 18.667 130 56zM194.001 514.999l-52.001 -64.001c-9.33301 4 -21.666 12.333 -36.999 25s-26.333 23.667 -33 33l54 67c16 -23.333 38.667 -43.666 68 -60.999zM264 402.998
l-53 -65.999c-25.333 12 -47 28.667 -65 50l-40 -55c-12.667 5.33301 -26 13.5 -40 24.5s-25 22.5 -33 34.5l50 65c17.333 -22 38 -40.333 62 -55l47 61c18 -22.667 42 -42.334 72 -59.001z" />
    <glyph glyph-name="uniFE9E" unicode="&#x62c;" horiz-adv-x="534" arabic-form="final" 
d="M50 197c-8 6 -11.9971 15.332 -11.9971 27.999c0 24.667 11.667 50.667 35 78c13.333 15.333 28.833 27.833 46.5 37.5s33.834 14.5 48.501 14.5c29.333 0 76.666 -15 141.999 -45c38.667 -18 71.167 -29.5 97.5 -34.5s64.166 -7.5 113.499 -7.5l-38 -93
c-28 0 -56 -2.66699 -84 -8c-0.666992 -25.333 9.33301 -42.833 30 -52.5s55.667 -14.5 105 -14.5c8.66699 0 16.667 -5.16699 24 -15.5s11 -23.166 11 -38.499s-3.66699 -28 -11 -38s-15.333 -15 -24 -15c-116.667 0 -175 39.667 -175 119
c0 19.333 3.33301 35.666 10 48.999l-1 1c-80.667 -17.333 -148.334 -48.166 -203.001 -92.499s-82 -95.5 -82 -153.5c0 -48.667 21.167 -87 63.5 -115s101.166 -42 176.499 -42c78 0 150 10.333 216 31l-4 -29c-3.33301 -22.667 -33 -48.167 -89 -76.5
s-116 -42.5 -180 -42.5c-75.333 0 -135.5 19.667 -180.5 59s-67.5 93.333 -67.5 162c0 82 23.833 150.5 71.5 205.5s117.167 102.833 208.5 143.5v1c-40 20.667 -86.333 34 -139 40c-34 -10 -70.333 -28.667 -109 -56zM353.003 -63.001l-54.999 -69
c-34 16 -59.667 36.667 -77 62l56 69c19.333 -24 44.666 -44.667 75.999 -62z" />
    <glyph glyph-name="uniFE9F" unicode="&#x62c;" horiz-adv-x="533" arabic-form="initial" 
d="M0 -7c-8 0 -14.499 4.66797 -19.499 14.001s-7.5 22.333 -7.5 39c0 36 9 54 27 54c140.667 0 252 27.333 334 82v1c-24 14 -53.167 27.667 -87.5 41s-63.166 22.333 -86.499 27c-36.667 -4.66699 -76.334 -18.334 -119.001 -41.001c-4 6.66699 -6 14.667 -6 24
c0 21.333 14.333 45 43 71c32.667 30 65 45 97 45c26.667 0 76 -20.667 148 -62c41.333 -23.333 75.166 -39 101.499 -47s56.833 -12.333 91.5 -13l-41 -98c-47.333 0 -85.5 -4 -114.5 -12s-73.167 -27 -132.5 -57c-52 -27.333 -94 -45.5 -126 -54.5s-66 -13.5 -102 -13.5z
M351.001 -103.999l-54.999 -69c-34 16 -59.667 36.667 -77 62l56 69c19.333 -24 44.666 -44.667 75.999 -62z" />
    <glyph glyph-name="uniFEA0" unicode="&#x62c;" horiz-adv-x="539" arabic-form="medial" 
d="M44 198c-7.33301 6 -10.998 15.666 -10.998 28.999c0 25.333 11.667 51 35 77c12.667 15.333 28 27.833 46 37.5s34 14.5 48 14.5c28.667 0 76 -15.667 142 -47c40 -18 72.667 -29.667 98 -35s61.666 -8.66602 108.999 -9.99902l-38 -91c-46 0 -77.333 -3.66699 -94 -11
c-1.33301 -4 -2 -7.66699 -2 -11c0 -19.333 13 -32.666 39 -39.999s67 -11 123 -11c8.66699 0 16.5 -5.16699 23.5 -15.5s10.5 -23.166 10.5 -38.499s-3.5 -28 -10.5 -38s-14.833 -15 -23.5 -15c-134.667 0 -202 38.333 -202 115c0 14 1.66699 27 5 39l-1 1
c-19.333 -8.66699 -59 -35.334 -119 -80.001c-38 -28 -73.333 -47.333 -106 -58s-71.334 -16.334 -116.001 -17.001c-18 0 -27 17.667 -27 53c0 36 9 54 27 54c63.333 0 119.166 7.66699 167.499 23s98.833 41.333 151.5 78v1c-52.667 28.667 -108 46 -166 52
c-37.333 -11.333 -73.666 -30 -108.999 -56zM352.002 -115.001l-54.999 -69c-34 16 -59.667 36.667 -77 62l56 69c19.333 -24 44.666 -44.667 75.999 -62z" />
    <glyph glyph-name="uniFEA2" unicode="&#x62d;" horiz-adv-x="534" arabic-form="final" 
d="M50 197c-8 6 -11.9971 15.332 -11.9971 27.999c0 24.667 11.667 50.667 35 78c13.333 15.333 28.833 27.833 46.5 37.5s33.834 14.5 48.501 14.5c29.333 0 76.666 -15 141.999 -45c38.667 -18 71.167 -29.5 97.5 -34.5s64.166 -7.5 113.499 -7.5l-38 -93
c-28 0 -56 -2.66699 -84 -8c-0.666992 -25.333 9.33301 -42.833 30 -52.5s55.667 -14.5 105 -14.5c8.66699 0 16.667 -5.16699 24 -15.5s11 -23.166 11 -38.499s-3.66699 -28 -11 -38s-15.333 -15 -24 -15c-116.667 0 -175 39.667 -175 119
c0 19.333 3.33301 35.666 10 48.999l-1 1c-80.667 -17.333 -148.334 -48.166 -203.001 -92.499s-82 -95.5 -82 -153.5c0 -48.667 21.167 -87 63.5 -115s101.166 -42 176.499 -42c78 0 150 10.333 216 31l-4 -29c-3.33301 -22.667 -33 -48.167 -89 -76.5
s-116 -42.5 -180 -42.5c-75.333 0 -135.5 19.667 -180.5 59s-67.5 93.333 -67.5 162c0 82 23.833 150.5 71.5 205.5s117.167 102.833 208.5 143.5v1c-40 20.667 -86.333 34 -139 40c-34 -10 -70.333 -28.667 -109 -56z" />
    <glyph glyph-name="uniFEA3" unicode="&#x62d;" horiz-adv-x="533" arabic-form="initial" 
d="M0 -7c-8 0 -14.499 4.66797 -19.499 14.001s-7.5 22.333 -7.5 39c0 36 9 54 27 54c140.667 0 252 27.333 334 82v1c-24 14 -53.167 27.667 -87.5 41s-63.166 22.333 -86.499 27c-36.667 -4.66699 -76.334 -18.334 -119.001 -41.001c-4 6.66699 -6 14.667 -6 24
c0 21.333 14.333 45 43 71c32.667 30 65 45 97 45c26.667 0 76 -20.667 148 -62c41.333 -23.333 75.166 -39 101.499 -47s56.833 -12.333 91.5 -13l-41 -98c-47.333 0 -85.5 -4 -114.5 -12s-73.167 -27 -132.5 -57c-52 -27.333 -94 -45.5 -126 -54.5s-66 -13.5 -102 -13.5z
" />
    <glyph glyph-name="uniFEA4" unicode="&#x62d;" horiz-adv-x="539" arabic-form="medial" 
d="M44 198c-7.33301 6 -10.998 15.666 -10.998 28.999c0 25.333 11.667 51 35 77c12.667 15.333 28 27.833 46 37.5s34 14.5 48 14.5c28.667 0 76 -15.667 142 -47c40 -18 72.667 -29.667 98 -35s61.666 -8.66602 108.999 -9.99902l-38 -91c-46 0 -77.333 -3.66699 -94 -11
c-1.33301 -4 -2 -7.66699 -2 -11c0 -19.333 13 -32.666 39 -39.999s67 -11 123 -11c8.66699 0 16.5 -5.16699 23.5 -15.5s10.5 -23.166 10.5 -38.499s-3.5 -28 -10.5 -38s-14.833 -15 -23.5 -15c-134.667 0 -202 38.333 -202 115c0 14 1.66699 27 5 39l-1 1
c-19.333 -8.66699 -59 -35.334 -119 -80.001c-38 -28 -73.333 -47.333 -106 -58s-71.334 -16.334 -116.001 -17.001c-18 0 -27 17.667 -27 53c0 36 9 54 27 54c63.333 0 119.166 7.66699 167.499 23s98.833 41.333 151.5 78v1c-52.667 28.667 -108 46 -166 52
c-37.333 -11.333 -73.666 -30 -108.999 -56z" />
    <glyph glyph-name="uniFEA6" unicode="&#x62e;" horiz-adv-x="534" arabic-form="final" 
d="M50 197c-8 6 -11.9971 15.332 -11.9971 27.999c0 24.667 11.667 50.667 35 78c13.333 15.333 28.833 27.833 46.5 37.5s33.834 14.5 48.501 14.5c29.333 0 76.666 -15 141.999 -45c38.667 -18 71.167 -29.5 97.5 -34.5s64.166 -7.5 113.499 -7.5l-38 -93
c-28 0 -56 -2.66699 -84 -8c-0.666992 -25.333 9.33301 -42.833 30 -52.5s55.667 -14.5 105 -14.5c8.66699 0 16.667 -5.16699 24 -15.5s11 -23.166 11 -38.499s-3.66699 -28 -11 -38s-15.333 -15 -24 -15c-116.667 0 -175 39.667 -175 119
c0 19.333 3.33301 35.666 10 48.999l-1 1c-80.667 -17.333 -148.334 -48.166 -203.001 -92.499s-82 -95.5 -82 -153.5c0 -48.667 21.167 -87 63.5 -115s101.166 -42 176.499 -42c78 0 150 10.333 216 31l-4 -29c-3.33301 -22.667 -33 -48.167 -89 -76.5
s-116 -42.5 -180 -42.5c-75.333 0 -135.5 19.667 -180.5 59s-67.5 93.333 -67.5 162c0 82 23.833 150.5 71.5 205.5s117.167 102.833 208.5 143.5v1c-40 20.667 -86.333 34 -139 40c-34 -10 -70.333 -28.667 -109 -56zM226.003 498.999l-54.999 -69
c-34 16 -59.667 36.667 -77 62l56 69c19.333 -24 44.666 -44.667 75.999 -62z" />
    <glyph glyph-name="uniFEA7" unicode="&#x62e;" horiz-adv-x="533" arabic-form="initial" 
d="M0 -7c-8 0 -14.499 4.66797 -19.499 14.001s-7.5 22.333 -7.5 39c0 36 9 54 27 54c140.667 0 252 27.333 334 82v1c-24 14 -53.167 27.667 -87.5 41s-63.166 22.333 -86.499 27c-36.667 -4.66699 -76.334 -18.334 -119.001 -41.001c-4 6.66699 -6 14.667 -6 24
c0 21.333 14.333 45 43 71c32.667 30 65 45 97 45c26.667 0 76 -20.667 148 -62c41.333 -23.333 75.166 -39 101.499 -47s56.833 -12.333 91.5 -13l-41 -98c-47.333 0 -85.5 -4 -114.5 -12s-73.167 -27 -132.5 -57c-52 -27.333 -94 -45.5 -126 -54.5s-66 -13.5 -102 -13.5z
M219.001 499.001l-54.999 -69c-34 16 -59.667 36.667 -77 62l56 69c19.333 -24 44.666 -44.667 75.999 -62z" />
    <glyph glyph-name="uniFEA8" unicode="&#x62e;" horiz-adv-x="539" arabic-form="medial" 
d="M44 198c-7.33301 6 -10.998 15.666 -10.998 28.999c0 25.333 11.667 51 35 77c12.667 15.333 28 27.833 46 37.5s34 14.5 48 14.5c28.667 0 76 -15.667 142 -47c40 -18 72.667 -29.667 98 -35s61.666 -8.66602 108.999 -9.99902l-38 -91c-46 0 -77.333 -3.66699 -94 -11
c-1.33301 -4 -2 -7.66699 -2 -11c0 -19.333 13 -32.666 39 -39.999s67 -11 123 -11c8.66699 0 16.5 -5.16699 23.5 -15.5s10.5 -23.166 10.5 -38.499s-3.5 -28 -10.5 -38s-14.833 -15 -23.5 -15c-134.667 0 -202 38.333 -202 115c0 14 1.66699 27 5 39l-1 1
c-19.333 -8.66699 -59 -35.334 -119 -80.001c-38 -28 -73.333 -47.333 -106 -58s-71.334 -16.334 -116.001 -17.001c-18 0 -27 17.667 -27 53c0 36 9 54 27 54c63.333 0 119.166 7.66699 167.499 23s98.833 41.333 151.5 78v1c-52.667 28.667 -108 46 -166 52
c-37.333 -11.333 -73.666 -30 -108.999 -56zM221.002 498.999l-54.999 -69c-34 16 -59.667 36.667 -77 62l56 69c19.333 -24 44.666 -44.667 75.999 -62z" />
    <glyph glyph-name="uniFEAA" unicode="&#x62f;" horiz-adv-x="499" arabic-form="final" 
d="M110 205c-5.33301 -14 -8.00098 -29.6709 -8.00098 -47.0039c0 -19.333 7 -34.666 21 -45.999s34 -17 60 -17c54 0 94.333 12.333 121 37c-22 72.667 -41 153.334 -57 242.001l85 67c16.667 -124.667 33.334 -212.667 50.001 -264c9.33301 -30 21.833 -50.333 37.5 -61
s42.167 -16 79.5 -16c9.33301 0 17.5 -5.16699 24.5 -15.5s10.5 -23.166 10.5 -38.499s-3.5 -28 -10.5 -38s-15.167 -15 -24.5 -15c-54 0 -94.333 8.33301 -121 25s-47 45.334 -61 86.001l-23 -85c-28.667 -22.667 -66.667 -34 -114 -34c-36 0 -65.167 11 -87.5 33
s-33.5 51.667 -33.5 89c0 40.667 9.66699 68 29 82z" />
    <glyph glyph-name="uniFEAC" unicode="&#x630;" horiz-adv-x="499" arabic-form="final" 
d="M110 205c-5.33301 -14 -8.00098 -29.6709 -8.00098 -47.0039c0 -19.333 7 -34.666 21 -45.999s34 -17 60 -17c54 0 94.333 12.333 121 37c-22 72.667 -41 153.334 -57 242.001l85 67c16.667 -124.667 33.334 -212.667 50.001 -264c9.33301 -30 21.833 -50.333 37.5 -61
s42.167 -16 79.5 -16c9.33301 0 17.5 -5.16699 24.5 -15.5s10.5 -23.166 10.5 -38.499s-3.5 -28 -10.5 -38s-15.167 -15 -24.5 -15c-54 0 -94.333 8.33301 -121 25s-47 45.334 -61 86.001l-23 -85c-28.667 -22.667 -66.667 -34 -114 -34c-36 0 -65.167 11 -87.5 33
s-33.5 51.667 -33.5 89c0 40.667 9.66699 68 29 82zM343.999 557.996l-54.999 -69c-34 16 -59.667 36.667 -77 62l56 69c19.333 -24 44.666 -44.667 75.999 -62z" />
    <glyph glyph-name="uniFEAE" unicode="&#x631;" horiz-adv-x="420" arabic-form="final" 
d="M238 103l47.001 89.999c30.667 -34.667 55.667 -58.834 75 -72.501s39.333 -20.5 60 -20.5c8.66699 0 16.667 -5.16699 24 -15.5s11 -23.166 11 -38.499s-3.66699 -28 -11 -38s-15.333 -15 -24 -15c-27.333 0 -51.666 7.33301 -72.999 22l-2 -2
c5.33301 -12.667 8 -29 8 -49c0 -33.333 -11 -69.666 -33 -108.999s-56 -75.333 -102 -108l-158 30l-18 26c71.333 20.667 130.166 46.5 176.499 77.5s76.166 63.5 89.499 97.5c-2.66699 35.333 -26 77 -70 125z" />
    <glyph glyph-name="uniFEB0" unicode="&#x632;" horiz-adv-x="420" arabic-form="final" 
d="M238 103l47.001 89.999c30.667 -34.667 55.667 -58.834 75 -72.501s39.333 -20.5 60 -20.5c8.66699 0 16.667 -5.16699 24 -15.5s11 -23.166 11 -38.499s-3.66699 -28 -11 -38s-15.333 -15 -24 -15c-27.333 0 -51.666 7.33301 -72.999 22l-2 -2
c5.33301 -12.667 8 -29 8 -49c0 -33.333 -11 -69.666 -33 -108.999s-56 -75.333 -102 -108l-158 30l-18 26c71.333 20.667 130.166 46.5 176.499 77.5s76.166 63.5 89.499 97.5c-2.66699 35.333 -26 77 -70 125zM338.001 337.999l-54.999 -69c-34 16 -59.667 36.667 -77 62
l56 69c19.333 -24 44.666 -44.667 75.999 -62z" />
    <glyph glyph-name="uniFEB2" unicode="&#x633;" horiz-adv-x="888" arabic-form="final" 
d="M101 148c-12 -24.667 -18 -60.001 -18 -106.001c0 -53.333 12.667 -92.666 38 -117.999s65.333 -38 120 -38c37.333 0 72.333 5.83301 105 17.5s57.667 27.5 75 47.5c-4.66699 64 -19 119 -43 165l62 85c12.667 -32 27.667 -56.667 45 -74s34.333 -26 51 -26
s30.667 6.83301 42 20.5s23 38.5 35 74.5l39 18l-7 -38c2.66699 -50.667 18.334 -76 47.001 -76c34 0 57.667 38.333 71 115l42 15l-6 -38c2.66699 -29.333 12.167 -52 28.5 -68s36.5 -24 60.5 -24c8.66699 0 16.667 -5.16699 24 -15.5s11 -23.166 11 -38.499
s-3.66699 -28 -11 -38s-15.333 -15 -24 -15c-62 0 -101.333 28.667 -118 86c-20.667 -57.333 -50.334 -86 -89.001 -86s-62.334 26.333 -71.001 79c-17.333 -52 -42.333 -78 -75 -78c-22 0 -40.333 12 -55 36l-1 -1c0.666992 -67.333 -13.666 -122 -42.999 -164
c-19.333 -26.667 -47.166 -48.334 -83.499 -65.001s-77.5 -25 -123.5 -25c-64.667 0 -114.834 17.167 -150.501 51.5s-53.5 83.5 -53.5 147.5c0 36 5.16699 69 15.5 99s22.5 49.667 36.5 59z" />
    <glyph glyph-name="uniFEB3" unicode="&#x633;" horiz-adv-x="546" arabic-form="initial" 
d="M454 326c16 -17.333 29.835 -41.499 41.502 -72.499s17.5 -59.5 17.5 -85.5c0 -33.333 -8.66699 -66.333 -26 -99c-13.333 -24.667 -25.666 -41.834 -36.999 -51.501s-24 -14.5 -38 -14.5c-22.667 0 -45.334 8.5 -68.001 25.5s-41.334 39.5 -56.001 67.5
c-12 -34.667 -25.5 -59.667 -40.5 -75s-32.167 -23 -51.5 -23c-41.333 0 -71 26.667 -89 80c-30.667 -56.667 -66.334 -85 -107.001 -85c-18.667 0 -28 18 -28 54c0 16.667 2.83301 29.667 8.5 39s12.167 14 19.5 14c51.333 0 89.333 31.667 114 95l40 16l-8 -34
c4.66699 -22 13 -39.667 25 -53s24.333 -20 37 -20c28 0 54.667 37 80 111l41 18l-8 -39c11.333 -24 28.333 -43.667 51 -59s48.667 -23.666 78 -24.999c-4 49.333 -19.667 89.666 -47 120.999z" />
    <glyph glyph-name="uniFEB4" unicode="&#x633;" horiz-adv-x="593" arabic-form="medial" 
d="M504 230l-6.99609 -38.999c2.66699 -28.667 12.667 -51 30 -67s39.333 -24 66 -24c8.66699 0 16.5 -5.16699 23.5 -15.5s10.5 -23.166 10.5 -38.499s-3.5 -28 -10.5 -38s-14.833 -15 -23.5 -15c-68.667 0 -110 30.667 -124 92c-20.667 -55.333 -50.667 -83 -90 -83
c-20.667 0 -37.834 6.83301 -51.501 20.5s-22.834 32.167 -27.501 55.5c-26 -56.667 -59.667 -85 -101 -85c-21.333 0 -39.666 7.16699 -54.999 21.5s-26.333 33.833 -33 58.5c-26.667 -53.333 -63.667 -80 -111 -80c-6.66699 0 -12.834 5 -18.501 15s-8.5 22.667 -8.5 38
s2.66699 28.166 8 38.499s11.666 15.5 18.999 15.5c54 0 95 28 123 84l38 10l-9 -31c3.33301 -18.667 10.666 -33.834 21.999 -45.501s26 -17.5 44 -17.5c38 0 69 32 93 96l39 16l-6 -35c1.33301 -21.333 6.33301 -38 15 -50s19.667 -18 33 -18c35.333 0 59 34.667 71 104z
" />
    <glyph glyph-name="uniFEB6" unicode="&#x634;" horiz-adv-x="888" arabic-form="final" 
d="M101 148c-12 -24.667 -18 -60.001 -18 -106.001c0 -53.333 12.667 -92.666 38 -117.999s65.333 -38 120 -38c37.333 0 72.333 5.83301 105 17.5s57.667 27.5 75 47.5c-4.66699 64 -19 119 -43 165l62 85c12.667 -32 27.667 -56.667 45 -74s34.333 -26 51 -26
s30.667 6.83301 42 20.5s23 38.5 35 74.5l39 18l-7 -38c2.66699 -50.667 18.334 -76 47.001 -76c34 0 57.667 38.333 71 115l42 15l-6 -38c2.66699 -29.333 12.167 -52 28.5 -68s36.5 -24 60.5 -24c8.66699 0 16.667 -5.16699 24 -15.5s11 -23.166 11 -38.499
s-3.66699 -28 -11 -38s-15.333 -15 -24 -15c-62 0 -101.333 28.667 -118 86c-20.667 -57.333 -50.334 -86 -89.001 -86s-62.334 26.333 -71.001 79c-17.333 -52 -42.333 -78 -75 -78c-22 0 -40.333 12 -55 36l-1 -1c0.666992 -67.333 -13.666 -122 -42.999 -164
c-19.333 -26.667 -47.166 -48.334 -83.499 -65.001s-77.5 -25 -123.5 -25c-64.667 0 -114.834 17.167 -150.501 51.5s-53.5 83.5 -53.5 147.5c0 36 5.16699 69 15.5 99s22.5 49.667 36.5 59zM645 462.999l-52.001 -64.001c-9.33301 4 -21.666 12.333 -36.999 25
s-26.333 23.667 -33 33l54 67c16 -23.333 38.667 -43.666 68 -60.999zM714.999 350.998l-53 -65.999c-25.333 12 -47 28.667 -65 50l-40 -55c-12.667 5.33301 -26 13.5 -40 24.5s-25 22.5 -33 34.5l50 65c17.333 -22 38 -40.333 62 -55l47 61
c18 -22.667 42 -42.334 72 -59.001z" />
    <glyph glyph-name="uniFEB7" unicode="&#x634;" horiz-adv-x="546" arabic-form="initial" 
d="M454 326c16 -17.333 29.835 -41.499 41.502 -72.499s17.5 -59.5 17.5 -85.5c0 -33.333 -8.66699 -66.333 -26 -99c-13.333 -24.667 -25.666 -41.834 -36.999 -51.501s-24 -14.5 -38 -14.5c-22.667 0 -45.334 8.5 -68.001 25.5s-41.334 39.5 -56.001 67.5
c-12 -34.667 -25.5 -59.667 -40.5 -75s-32.167 -23 -51.5 -23c-41.333 0 -71 26.667 -89 80c-30.667 -56.667 -66.334 -85 -107.001 -85c-18.667 0 -28 18 -28 54c0 16.667 2.83301 29.667 8.5 39s12.167 14 19.5 14c51.333 0 89.333 31.667 114 95l40 16l-8 -34
c4.66699 -22 13 -39.667 25 -53s24.333 -20 37 -20c28 0 54.667 37 80 111l41 18l-8 -39c11.333 -24 28.333 -43.667 51 -59s48.667 -23.666 78 -24.999c-4 49.333 -19.667 89.666 -47 120.999zM311.002 478.001l-52.001 -64.001c-9.33301 4 -21.666 12.333 -36.999 25
s-26.333 23.667 -33 33l54 67c16 -23.333 38.667 -43.666 68 -60.999zM381.001 366l-53 -65.999c-25.333 12 -47 28.667 -65 50l-40 -55c-12.667 5.33301 -26 13.5 -40 24.5s-25 22.5 -33 34.5l50 65c17.333 -22 38 -40.333 62 -55l47 61c18 -22.667 42 -42.334 72 -59.001z
" />
    <glyph glyph-name="uniFEB8" unicode="&#x634;" horiz-adv-x="593" arabic-form="medial" 
d="M504 230l-6.99609 -38.999c2.66699 -28.667 12.667 -51 30 -67s39.333 -24 66 -24c8.66699 0 16.5 -5.16699 23.5 -15.5s10.5 -23.166 10.5 -38.499s-3.5 -28 -10.5 -38s-14.833 -15 -23.5 -15c-68.667 0 -110 30.667 -124 92c-20.667 -55.333 -50.667 -83 -90 -83
c-20.667 0 -37.834 6.83301 -51.501 20.5s-22.834 32.167 -27.501 55.5c-26 -56.667 -59.667 -85 -101 -85c-21.333 0 -39.666 7.16699 -54.999 21.5s-26.333 33.833 -33 58.5c-26.667 -53.333 -63.667 -80 -111 -80c-6.66699 0 -12.834 5 -18.501 15s-8.5 22.667 -8.5 38
s2.66699 28.166 8 38.499s11.666 15.5 18.999 15.5c54 0 95 28 123 84l38 10l-9 -31c3.33301 -18.667 10.666 -33.834 21.999 -45.501s26 -17.5 44 -17.5c38 0 69 32 93 96l39 16l-6 -35c1.33301 -21.333 6.33301 -38 15 -50s19.667 -18 33 -18c35.333 0 59 34.667 71 104z
M356.004 458.001l-52.001 -64.001c-9.33301 4 -21.666 12.333 -36.999 25s-26.333 23.667 -33 33l54 67c16 -23.333 38.667 -43.666 68 -60.999zM426.003 346l-53 -65.999c-25.333 12 -47 28.667 -65 50l-40 -55c-12.667 5.33301 -26 13.5 -40 24.5s-25 22.5 -33 34.5l50 65
c17.333 -22 38 -40.333 62 -55l47 61c18 -22.667 42 -42.334 72 -59.001z" />
    <glyph glyph-name="uniFEBA" unicode="&#x635;" horiz-adv-x="943" arabic-form="final" 
d="M873 108c17.333 -5.33301 40.665 -8 69.998 -8c8.66699 0 16.5 -5.16699 23.5 -15.5s10.5 -23.166 10.5 -38.499s-3.5 -28 -10.5 -38s-14.833 -15 -23.5 -15c-48.667 0 -91 18.667 -127 56c-26.667 -17.333 -60 -31 -100 -41s-77.333 -15 -112 -15
c-56 0 -97.333 12.333 -124 37l-1 -3c0.666992 -64.667 -13.666 -118.667 -42.999 -162c-19.333 -26.667 -47.166 -48.334 -83.499 -65.001s-77.5 -25 -123.5 -25c-64.667 0 -114.834 17.167 -150.501 51.5s-53.5 83.5 -53.5 147.5c0 36.667 5.16699 70 15.5 100
s22.5 49.333 36.5 58l24 17c-12 -26 -18 -61.667 -18 -107c0 -53.333 12.667 -92.666 38 -117.999s65.333 -38 120 -38c37.333 0 72.333 5.83301 105 17.5s57.667 27.5 75 47.5c-4.66699 64 -19 119 -43 165l59 82c22.667 -42.667 46.667 -71.334 72 -86.001
c34 64 76.833 119 128.5 165s99.834 69 144.501 69c33.333 0 62.5 -15.5 87.5 -46.5s37.5 -66.833 37.5 -107.5c0 -20 -11.333 -48 -34 -84zM852.999 146c-6 28 -17.6709 50.5 -35.0039 67.5s-38.333 25.5 -63 25.5c-29.333 0 -64.166 -13.667 -104.499 -41
s-75.166 -59 -104.499 -95c14.667 -3.33301 35.334 -5 62.001 -5c114.667 0 196.334 16 245.001 48z" />
    <glyph glyph-name="uniFEBB" unicode="&#x635;" horiz-adv-x="626" arabic-form="initial" 
d="M127 190c18.667 -36.667 42.333 -62.667 71 -78c34 64 76.833 119 128.5 165s99.834 69 144.501 69c33.333 0 62.5 -15.5 87.5 -46.5s37.5 -66.833 37.5 -107.5c0 -12 -4.83301 -28.333 -14.5 -49s-21.834 -40.667 -36.501 -60
c-20.667 -26.667 -56.667 -48.334 -108 -65.001s-101 -25 -149 -25c-79.333 0 -137.333 30 -174 90c-23.333 -60 -61.333 -90 -114 -90c-7.33301 0 -13.666 5.33301 -18.999 16s-8 23.334 -8 38.001c0 16 2.66699 28.833 8 38.5s11.666 14.5 18.999 14.5
c25.333 0 46 5.5 62 16.5s30 29.833 42 56.5zM541.999 146c-6 28 -17.6689 50.5 -35.002 67.5s-38 25.5 -62 25.5c-30 0 -65.167 -13.667 -105.5 -41s-75.166 -59 -104.499 -95c15.333 -3.33301 36 -5 62 -5c114.667 0 196.334 16 245.001 48z" />
    <glyph glyph-name="uniFEBC" unicode="&#x635;" horiz-adv-x="632" arabic-form="medial" 
d="M127 190c18.667 -36.667 42.332 -62.6689 70.999 -78.002c34 64 76.833 119 128.5 165s99.834 69 144.501 69c33.333 0 62.5 -15.5 87.5 -46.5s37.5 -66.833 37.5 -107.5c0 -20.667 -11.667 -48.667 -35 -84c16.667 -5.33301 40.334 -8 71.001 -8
c8.66699 0 16.667 -5.16699 24 -15.5s11 -23.166 11 -38.499s-3.66699 -28 -11 -38s-15.333 -15 -24 -15c-50.667 0 -92.667 19 -126 57c-27.333 -18 -61.333 -32 -102 -42s-79.334 -15 -116.001 -15c-79.333 0 -137.333 30 -174 90c-23.333 -60 -61.333 -90 -114 -90
c-7.33301 0 -13.666 5.33301 -18.999 16s-8 23.334 -8 38.001c0 16 2.66699 28.833 8 38.5s11.666 14.5 18.999 14.5c25.333 0 46 5.5 62 16.5s30 29.833 42 56.5zM541.998 145.998c-6 28 -17.6689 50.5 -35.002 67.5s-38 25.5 -62 25.5c-30 0 -65.167 -13.667 -105.5 -41
s-75.166 -59 -104.499 -95c15.333 -3.33301 36 -5 62 -5c114.667 0 196.334 16 245.001 48z" />
    <glyph glyph-name="uniFEBE" unicode="&#x636;" horiz-adv-x="943" arabic-form="final" 
d="M873 108c17.333 -5.33301 40.665 -8 69.998 -8c8.66699 0 16.5 -5.16699 23.5 -15.5s10.5 -23.166 10.5 -38.499s-3.5 -28 -10.5 -38s-14.833 -15 -23.5 -15c-48.667 0 -91 18.667 -127 56c-26.667 -17.333 -60 -31 -100 -41s-77.333 -15 -112 -15
c-56 0 -97.333 12.333 -124 37l-1 -3c0.666992 -64.667 -13.666 -118.667 -42.999 -162c-19.333 -26.667 -47.166 -48.334 -83.499 -65.001s-77.5 -25 -123.5 -25c-64.667 0 -114.834 17.167 -150.501 51.5s-53.5 83.5 -53.5 147.5c0 36.667 5.16699 70 15.5 100
s22.5 49.333 36.5 58l24 17c-12 -26 -18 -61.667 -18 -107c0 -53.333 12.667 -92.666 38 -117.999s65.333 -38 120 -38c37.333 0 72.333 5.83301 105 17.5s57.667 27.5 75 47.5c-4.66699 64 -19 119 -43 165l59 82c22.667 -42.667 46.667 -71.334 72 -86.001
c34 64 76.833 119 128.5 165s99.834 69 144.501 69c33.333 0 62.5 -15.5 87.5 -46.5s37.5 -66.833 37.5 -107.5c0 -20 -11.333 -48 -34 -84zM852.999 146c-6 28 -17.6709 50.5 -35.0039 67.5s-38.333 25.5 -63 25.5c-29.333 0 -64.166 -13.667 -104.499 -41
s-75.166 -59 -104.499 -95c14.667 -3.33301 35.334 -5 62.001 -5c114.667 0 196.334 16 245.001 48zM650.995 430l-54.999 -69c-34 16 -59.667 36.667 -77 62l56 69c19.333 -24 44.666 -44.667 75.999 -62z" />
    <glyph glyph-name="uniFEBF" unicode="&#x636;" horiz-adv-x="626" arabic-form="initial" 
d="M127 190c18.667 -36.667 42.333 -62.667 71 -78c34 64 76.833 119 128.5 165s99.834 69 144.501 69c33.333 0 62.5 -15.5 87.5 -46.5s37.5 -66.833 37.5 -107.5c0 -12 -4.83301 -28.333 -14.5 -49s-21.834 -40.667 -36.501 -60
c-20.667 -26.667 -56.667 -48.334 -108 -65.001s-101 -25 -149 -25c-79.333 0 -137.333 30 -174 90c-23.333 -60 -61.333 -90 -114 -90c-7.33301 0 -13.666 5.33301 -18.999 16s-8 23.334 -8 38.001c0 16 2.66699 28.833 8 38.5s11.666 14.5 18.999 14.5
c25.333 0 46 5.5 62 16.5s30 29.833 42 56.5zM541.999 146c-6 28 -17.6689 50.5 -35.002 67.5s-38 25.5 -62 25.5c-30 0 -65.167 -13.667 -105.5 -41s-75.166 -59 -104.499 -95c15.333 -3.33301 36 -5 62 -5c114.667 0 196.334 16 245.001 48zM350.997 430l-54.999 -69
c-34 16 -59.667 36.667 -77 62l56 69c19.333 -24 44.666 -44.667 75.999 -62z" />
    <glyph glyph-name="uniFEC0" unicode="&#x636;" horiz-adv-x="632" arabic-form="medial" 
d="M127 190c18.667 -36.667 42.332 -62.6689 70.999 -78.002c34 64 76.833 119 128.5 165s99.834 69 144.501 69c33.333 0 62.5 -15.5 87.5 -46.5s37.5 -66.833 37.5 -107.5c0 -20.667 -11.667 -48.667 -35 -84c16.667 -5.33301 40.334 -8 71.001 -8
c8.66699 0 16.667 -5.16699 24 -15.5s11 -23.166 11 -38.499s-3.66699 -28 -11 -38s-15.333 -15 -24 -15c-50.667 0 -92.667 19 -126 57c-27.333 -18 -61.333 -32 -102 -42s-79.334 -15 -116.001 -15c-79.333 0 -137.333 30 -174 90c-23.333 -60 -61.333 -90 -114 -90
c-7.33301 0 -13.666 5.33301 -18.999 16s-8 23.334 -8 38.001c0 16 2.66699 28.833 8 38.5s11.666 14.5 18.999 14.5c25.333 0 46 5.5 62 16.5s30 29.833 42 56.5zM541.998 145.998c-6 28 -17.6689 50.5 -35.002 67.5s-38 25.5 -62 25.5c-30 0 -65.167 -13.667 -105.5 -41
s-75.166 -59 -104.499 -95c15.333 -3.33301 36 -5 62 -5c114.667 0 196.334 16 245.001 48zM350.996 429.998l-54.999 -69c-34 16 -59.667 36.667 -77 62l56 69c19.333 -24 44.666 -44.667 75.999 -62z" />
    <glyph glyph-name="uniFEC2" unicode="&#x637;" horiz-adv-x="622" arabic-form="final" 
d="M137 571l77.999 50.002c5.33301 -20.667 15.333 -43.334 30 -68.001s29.334 -43 44.001 -55l-55 -33c0 -19.333 0.333008 -49 1 -89s1 -68 1 -84c0 -56.667 -5 -104.334 -15 -143.001h3c36 60.667 75 108.667 117 144s82.667 53 122 53c33.333 0 62.5 -15.5 87.5 -46.5
s37.5 -66.833 37.5 -107.5c0 -20 -11 -47.667 -33 -83c15.333 -6 37.666 -9 66.999 -9c9.33301 0 17.5 -5.16699 24.5 -15.5s10.5 -23.166 10.5 -38.499s-3.5 -28 -10.5 -38s-15.167 -15 -24.5 -15c-48.667 0 -88 19.333 -118 58c-50 -38.667 -119.667 -58 -209 -58
s-171.666 15.667 -246.999 47l-32 88c50 -10 98 -16.333 144 -19l7 13c2.66699 19.333 4 51.666 4 96.999c0 61.333 -3.66699 122 -11 182c-6 46 -10 89.333 -12 130c-6 10 -9.66699 23.333 -11 40zM226.999 103.002c14.667 -3.33301 35.3301 -5 61.9971 -5
c114.667 0 196.334 16 245.001 48c-6 28 -17.667 50.5 -35 67.5s-38.333 25.5 -63 25.5c-29.333 0 -64.166 -13.667 -104.499 -41s-75.166 -59 -104.499 -95z" />
    <glyph glyph-name="uniFEC3" unicode="&#x637;" horiz-adv-x="516" arabic-form="initial" 
d="M33 571l77 50.001c5.33301 -20.667 15.5 -43.334 30.5 -68.001s29.833 -43 44.5 -55l-55 -33c0 -19.333 0.333008 -49 1 -89s1 -68 1 -84c0 -54 -5.33301 -101.667 -16 -143h3c36.667 60.667 75.834 108.667 117.501 144s82.167 53 121.5 53
c33.333 0 62.5 -15.5 87.5 -46.5s37.5 -66.833 37.5 -107.5c0 -12 -4.83301 -28.667 -14.5 -50s-21.834 -41 -36.501 -59c-24 -30.667 -59.833 -53.334 -107.5 -68.001s-117.834 -22 -210.501 -22h-114c-7.33301 0 -13.666 5 -18.999 15s-8 23 -8 39s2.5 28.833 7.5 38.5
s11.5 14.5 19.5 14.5h53l10 21c2 22 3 54.667 3 98c0 64.667 -3.33301 125.334 -10 182.001c-6 46 -10 89.333 -12 130c-6 10 -9.66699 23.333 -11 40zM120 100.001h78c50 0 96 4.16699 138 12.5s73.333 19.5 94 33.5c-6 28 -17.833 50.5 -35.5 67.5s-38.5 25.5 -62.5 25.5
c-30 0 -65.333 -13.833 -106 -41.5s-76 -60.167 -106 -97.5z" />
    <glyph glyph-name="uniFEC4" unicode="&#x637;" horiz-adv-x="518" arabic-form="medial" 
d="M33 571l76.999 49.9971c5.33301 -20.667 15.5 -43.334 30.5 -68.001s29.833 -43 44.5 -55l-55 -33c0 -19.333 0.333008 -48.666 1 -87.999s1 -67.666 1 -84.999c0 -54 -5.33301 -101.667 -16 -143h3c79.333 131.333 159 197 239 197c33.333 0 62.5 -15.5 87.5 -46.5
s37.5 -66.833 37.5 -107.5c0 -22 -11 -49.667 -33 -83c16 -6 38.667 -9 68 -9c8.66699 0 16.667 -5.16699 24 -15.5s11 -23.166 11 -38.499s-3.66699 -28 -11 -38s-15.333 -15 -24 -15c-49.333 0 -89 19.333 -119 58c-50 -38.667 -145 -58 -285 -58h-114
c-7.33301 0 -13.666 5 -18.999 15s-8 23 -8 39s2.5 28.833 7.5 38.5s11.5 14.5 19.5 14.5h53l10 21c2 22 3 54.667 3 98c0 64.667 -3.33301 125.334 -10 182.001c-6 46 -10 89.333 -12 130c-6 10 -9.66699 23.333 -11 40zM119.999 99.9971h78c50 0 96 4.16699 138 12.5
s73.333 19.5 94 33.5c-6 28 -17.833 50.5 -35.5 67.5s-38.5 25.5 -62.5 25.5c-30 0 -65.333 -13.833 -106 -41.5s-76 -60.167 -106 -97.5z" />
    <glyph glyph-name="uniFEC6" unicode="&#x638;" horiz-adv-x="622" arabic-form="final" 
d="M137 571l77.999 50.002c5.33301 -20.667 15.333 -43.334 30 -68.001s29.334 -43 44.001 -55l-55 -33c0 -19.333 0.333008 -49 1 -89s1 -68 1 -84c0 -56.667 -5 -104.334 -15 -143.001h3c36 60.667 75 108.667 117 144s82.667 53 122 53c33.333 0 62.5 -15.5 87.5 -46.5
s37.5 -66.833 37.5 -107.5c0 -20 -11 -47.667 -33 -83c15.333 -6 37.666 -9 66.999 -9c9.33301 0 17.5 -5.16699 24.5 -15.5s10.5 -23.166 10.5 -38.499s-3.5 -28 -10.5 -38s-15.167 -15 -24.5 -15c-48.667 0 -88 19.333 -118 58c-50 -38.667 -119.667 -58 -209 -58
s-171.666 15.667 -246.999 47l-32 88c50 -10 98 -16.333 144 -19l7 13c2.66699 19.333 4 51.666 4 96.999c0 61.333 -3.66699 122 -11 182c-6 46 -10 89.333 -12 130c-6 10 -9.66699 23.333 -11 40zM226.999 103.002c14.667 -3.33301 35.3301 -5 61.9971 -5
c114.667 0 196.334 16 245.001 48c-6 28 -17.667 50.5 -35 67.5s-38.333 25.5 -63 25.5c-29.333 0 -64.166 -13.667 -104.499 -41s-75.166 -59 -104.499 -95zM489.995 488.002l-54.999 -69c-34 16 -59.667 36.667 -77 62l56 69c19.333 -24 44.666 -44.667 75.999 -62z" />
    <glyph glyph-name="uniFEC7" unicode="&#x638;" horiz-adv-x="516" arabic-form="initial" 
d="M33 571l77 50.001c5.33301 -20.667 15.5 -43.334 30.5 -68.001s29.833 -43 44.5 -55l-55 -33c0 -19.333 0.333008 -49 1 -89s1 -68 1 -84c0 -54 -5.33301 -101.667 -16 -143h3c36.667 60.667 75.834 108.667 117.501 144s82.167 53 121.5 53
c33.333 0 62.5 -15.5 87.5 -46.5s37.5 -66.833 37.5 -107.5c0 -12 -4.83301 -28.667 -14.5 -50s-21.834 -41 -36.501 -59c-24 -30.667 -59.833 -53.334 -107.5 -68.001s-117.834 -22 -210.501 -22h-114c-7.33301 0 -13.666 5 -18.999 15s-8 23 -8 39s2.5 28.833 7.5 38.5
s11.5 14.5 19.5 14.5h53l10 21c2 22 3 54.667 3 98c0 64.667 -3.33301 125.334 -10 182.001c-6 46 -10 89.333 -12 130c-6 10 -9.66699 23.333 -11 40zM120 100.001h78c50 0 96 4.16699 138 12.5s73.333 19.5 94 33.5c-6 28 -17.833 50.5 -35.5 67.5s-38.5 25.5 -62.5 25.5
c-30 0 -65.333 -13.833 -106 -41.5s-76 -60.167 -106 -97.5zM380 488.001l-54.999 -69c-34 16 -59.667 36.667 -77 62l56 69c19.333 -24 44.666 -44.667 75.999 -62z" />
    <glyph glyph-name="uniFEC8" unicode="&#x638;" horiz-adv-x="518" arabic-form="medial" 
d="M33 571l76.999 49.9971c5.33301 -20.667 15.5 -43.334 30.5 -68.001s29.833 -43 44.5 -55l-55 -33c0 -19.333 0.333008 -48.666 1 -87.999s1 -67.666 1 -84.999c0 -54 -5.33301 -101.667 -16 -143h3c79.333 131.333 159 197 239 197c33.333 0 62.5 -15.5 87.5 -46.5
s37.5 -66.833 37.5 -107.5c0 -22 -11 -49.667 -33 -83c16 -6 38.667 -9 68 -9c8.66699 0 16.667 -5.16699 24 -15.5s11 -23.166 11 -38.499s-3.66699 -28 -11 -38s-15.333 -15 -24 -15c-49.333 0 -89 19.333 -119 58c-50 -38.667 -145 -58 -285 -58h-114
c-7.33301 0 -13.666 5 -18.999 15s-8 23 -8 39s2.5 28.833 7.5 38.5s11.5 14.5 19.5 14.5h53l10 21c2 22 3 54.667 3 98c0 64.667 -3.33301 125.334 -10 182.001c-6 46 -10 89.333 -12 130c-6 10 -9.66699 23.333 -11 40zM119.999 99.9971h78c50 0 96 4.16699 138 12.5
s73.333 19.5 94 33.5c-6 28 -17.833 50.5 -35.5 67.5s-38.5 25.5 -62.5 25.5c-30 0 -65.333 -13.833 -106 -41.5s-76 -60.167 -106 -97.5zM379.999 487.997l-54.999 -69c-34 16 -59.667 36.667 -77 62l56 69c19.333 -24 44.666 -44.667 75.999 -62z" />
    <glyph glyph-name="uniFECA" unicode="&#x639;" horiz-adv-x="477" arabic-form="final" 
d="M135 191l21 71c46 14 92 21 138 21c24 0 44.667 -4 62 -12s26 -18 26 -30c0 -37.333 -21.333 -77 -64 -119c28 -14.667 81 -22 159 -22c8.66699 0 16.667 -5.16699 24 -15.5s11 -23.166 11 -38.499s-3.66699 -28 -11 -38s-15.333 -15 -24 -15
c-50.667 0 -92.5 7 -125.5 21s-64.5 38 -94.5 72c-44 -16 -79.5 -39.333 -106.5 -70s-40.5 -65 -40.5 -103c0 -44 18 -78.833 54 -104.5s90 -38.5 162 -38.5c58.667 0 112.667 8.33301 162 25l-4 -28c-4 -24.667 -27.833 -50 -71.5 -76s-91.5 -39 -143.5 -39
c-68 0 -122.333 19.5 -163 58.5s-61 91.5 -61 157.5c0 52.667 16.5 102.667 49.5 150s74.167 83.666 123.5 108.999c-16 28 -43.667 49.333 -83 64z" />
    <glyph glyph-name="uniFECB" unicode="&#x639;" horiz-adv-x="438" arabic-form="initial" 
d="M410 206l-17.001 -95c-110.667 -78.667 -241.667 -118 -393 -118c-7.33301 0 -13.666 5 -18.999 15s-8 23.333 -8 40c0 16 2.66699 28.667 8 38s11.666 14 18.999 14c63.333 0 109 3.66699 137 11c-28 10 -50 25.833 -66 47.5s-24 47.167 -24 76.5c0 40 17.333 79 52 117
s72.334 57 113.001 57c24 0 46 -9 66 -27s40.667 -47 62 -87l-27 -20c-24 20.667 -51.667 31 -83 31c-20.667 0 -43.167 -4 -67.5 -12s-44.833 -18.333 -61.5 -31c10.667 -26.667 31.667 -51 63 -73s65.666 -36.667 102.999 -44c48.667 14.667 96.334 34.667 143.001 60z
" />
    <glyph glyph-name="uniFECC" unicode="&#x639;" horiz-adv-x="419" arabic-form="medial" 
d="M162 123c-12 28.667 -40.3369 51.332 -85.0039 67.999l21 71c49.333 15.333 94.333 23 135 23c26 0 47.667 -4.66699 65 -14s26 -21.333 26 -36c0 -35.333 -21 -73 -63 -113c32.667 -14.667 85.334 -22 158.001 -22c8.66699 0 16.667 -5.16699 24 -15.5
s11 -23.166 11 -38.499s-3.66699 -28 -11 -38s-15.333 -15 -24 -15c-85.333 0 -154.666 24 -207.999 72c-59.333 -48 -129.666 -72 -210.999 -72c-7.33301 0 -13.666 4.5 -18.999 13.5s-8 21.833 -8 38.5s2.5 30 7.5 40s11.5 15 19.5 15c77.333 0 131.333 7.66699 162 23z
" />
    <glyph glyph-name="uniFECE" unicode="&#x63a;" horiz-adv-x="477" arabic-form="final" 
d="M135 191l21 71c46 14 92 21 138 21c24 0 44.667 -4 62 -12s26 -18 26 -30c0 -37.333 -21.333 -77 -64 -119c28 -14.667 81 -22 159 -22c8.66699 0 16.667 -5.16699 24 -15.5s11 -23.166 11 -38.499s-3.66699 -28 -11 -38s-15.333 -15 -24 -15
c-50.667 0 -92.5 7 -125.5 21s-64.5 38 -94.5 72c-44 -16 -79.5 -39.333 -106.5 -70s-40.5 -65 -40.5 -103c0 -44 18 -78.833 54 -104.5s90 -38.5 162 -38.5c58.667 0 112.667 8.33301 162 25l-4 -28c-4 -24.667 -27.833 -50 -71.5 -76s-91.5 -39 -143.5 -39
c-68 0 -122.333 19.5 -163 58.5s-61 91.5 -61 157.5c0 52.667 16.5 102.667 49.5 150s74.167 83.666 123.5 108.999c-16 28 -43.667 49.333 -83 64zM327 412l-54.999 -69c-34 16 -59.667 36.667 -77 62l56 69c19.333 -24 44.666 -44.667 75.999 -62z" />
    <glyph glyph-name="uniFECF" unicode="&#x63a;" horiz-adv-x="438" arabic-form="initial" 
d="M410 206l-17.001 -95c-110.667 -78.667 -241.667 -118 -393 -118c-7.33301 0 -13.666 5 -18.999 15s-8 23.333 -8 40c0 16 2.66699 28.667 8 38s11.666 14 18.999 14c63.333 0 109 3.66699 137 11c-28 10 -50 25.833 -66 47.5s-24 47.167 -24 76.5c0 40 17.333 79 52 117
s72.334 57 113.001 57c24 0 46 -9 66 -27s40.667 -47 62 -87l-27 -20c-24 20.667 -51.667 31 -83 31c-20.667 0 -43.167 -4 -67.5 -12s-44.833 -18.333 -61.5 -31c10.667 -26.667 31.667 -51 63 -73s65.666 -36.667 102.999 -44c48.667 14.667 96.334 34.667 143.001 60z
M261.999 539l-54.999 -69c-34 16 -59.667 36.667 -77 62l56 69c19.333 -24 44.666 -44.667 75.999 -62z" />
    <glyph glyph-name="uniFED0" unicode="&#x63a;" horiz-adv-x="419" arabic-form="medial" 
d="M162 123c-12 28.667 -40.3369 51.332 -85.0039 67.999l21 71c49.333 15.333 94.333 23 135 23c26 0 47.667 -4.66699 65 -14s26 -21.333 26 -36c0 -35.333 -21 -73 -63 -113c32.667 -14.667 85.334 -22 158.001 -22c8.66699 0 16.667 -5.16699 24 -15.5
s11 -23.166 11 -38.499s-3.66699 -28 -11 -38s-15.333 -15 -24 -15c-85.333 0 -154.666 24 -207.999 72c-59.333 -48 -129.666 -72 -210.999 -72c-7.33301 0 -13.666 4.5 -18.999 13.5s-8 21.833 -8 38.5s2.5 30 7.5 40s11.5 15 19.5 15c77.333 0 131.333 7.66699 162 23z
M272.996 411.998l-54.999 -69c-34 16 -59.667 36.667 -77 62l56 69c19.333 -24 44.666 -44.667 75.999 -62z" />
    <glyph glyph-name="uniFED2" unicode="&#x641;" horiz-adv-x="862" arabic-form="final" 
d="M750 522l-54.999 -69c-34 16 -59.667 36.667 -77 62l56 69c19.333 -24 44.666 -44.667 75.999 -62zM87.001 298c-4.66699 -14 -6.99805 -29 -6.99805 -45c-1.33301 -12 -1.33301 -22.667 0 -32c3.33301 -51.333 24.166 -87.5 62.499 -108.5s102.5 -31.5 192.5 -31.5
c110 0 198.667 10.667 266 32c-26 30 -39 62.333 -39 97c0 44 13.833 84.167 41.5 120.5s57.167 54.5 88.5 54.5c26.667 0 52 -16 76 -48s36 -67.667 36 -107c0 -40.667 -17 -80.334 -51 -119.001c30.667 -7.33301 67 -11 109 -11c9.33301 0 17.5 -5.16699 24.5 -15.5
s10.5 -23.166 10.5 -38.499s-3.5 -28 -10.5 -38s-15.167 -15 -24.5 -15c-76.667 0 -143.334 17 -200.001 51c-95.333 -49.333 -213 -74 -353 -74c-102 0 -174.333 15.167 -217 45.5s-64 80.833 -64 151.5c0 27.333 3.5 52 10.5 74s14.833 35.667 23.5 41zM677.003 136
c16.667 8.66699 32.8311 20.166 48.498 34.499s26.834 27.833 33.501 40.5c-6 19.333 -16.5 36.5 -31.5 51.5s-30.833 22.5 -47.5 22.5c-12.667 0 -27 -6.16699 -43 -18.5s-27.333 -26.166 -34 -41.499c2.66699 -18.667 10.834 -36.167 24.501 -52.5
s30.167 -28.5 49.5 -36.5z" />
    <glyph glyph-name="uniFED3" unicode="&#x641;" horiz-adv-x="329" arabic-form="initial" 
d="M204 569l-54.999 -69c-34 16 -59.667 36.667 -77 62l56 69c19.333 -24 44.666 -44.667 75.999 -62zM244.001 149c-1.33301 26 -2.66699 42.3311 -4 48.998c-7.33301 -8.66699 -18.833 -16.167 -34.5 -22.5s-30.5 -9.5 -44.5 -9.5c-34 0 -63.5 13 -88.5 39
s-37.5 57.333 -37.5 94c0 36 12.333 70.333 37 103s51.667 49 81 49c36 0 68.833 -23.167 98.5 -69.5s44.5 -102.166 44.5 -167.499c0 -35.333 -5.5 -67.166 -16.5 -95.499s-25.5 -49.833 -43.5 -64.5c-47.333 -40.667 -126 -61 -236 -61c-8 0 -14.5 4.66699 -19.5 14
s-7.5 22.333 -7.5 39c0 36 9 54 27 54c120.667 0 202 16.333 244 49zM78 303.998c17.333 -31.333 48 -47.001 92 -47.001c26.667 0 47.334 4 62.001 12c-6 26.667 -17.667 47.834 -35 63.501s-35.333 23.5 -54 23.5c-14.667 0 -27.834 -4.83301 -39.501 -14.5
s-20.167 -22.167 -25.5 -37.5z" />
    <glyph glyph-name="uniFED4" unicode="&#x641;" horiz-adv-x="362" arabic-form="medial" 
d="M246 499l-54.999 -69c-34 16 -59.667 36.667 -77 62l56 69c19.333 -24 44.666 -44.667 75.999 -62zM97.001 111c-23.333 28 -34.998 60.3311 -34.998 96.998c0 26.667 5 51.667 15 75c13.333 30 30.5 54 51.5 72s41.833 27 62.5 27c26.667 0 52 -16 76 -48
s36 -67.333 36 -106c0 -40 -16.667 -79 -50 -117c29.333 -7.33301 65.666 -11 108.999 -11c9.33301 0 17.5 -5.16699 24.5 -15.5s10.5 -23.166 10.5 -38.499s-3.5 -28 -10.5 -38s-15.167 -15 -24.5 -15c-75.333 0 -139.666 15.667 -192.999 47
c-52 -31.333 -108.333 -47 -169 -47c-18 0 -27 17.667 -27 53c0 14.667 2.66699 27.334 8 38.001s11.666 16 18.999 16c41.333 0 73.666 3.66699 96.999 11zM176.003 135.998c18 8.66699 34.501 19.6689 49.501 33.002s25.833 26.666 32.5 39.999
c-6 19.333 -16.667 36.166 -32 50.499s-31 21.5 -47 21.5c-12.667 0 -26.5 -5.83301 -41.5 -17.5s-26.5 -25.5 -34.5 -41.5c2.66699 -18.667 10.667 -35.667 24 -51s29.666 -27 48.999 -35z" />
    <glyph glyph-name="uniFED6" unicode="&#x642;" horiz-adv-x="570" arabic-form="final" 
d="M517 403l-52.999 -66c-25.333 12 -47 28.667 -65 50l-40 -55c-12.667 5.33301 -26 13.5 -40 24.5s-25 22.5 -33 34.5l53 67c17.333 -24 37 -43 59 -57l46 62c17.333 -22 41.666 -42 72.999 -60zM107.001 148c-12 -30.667 -18 -65.6709 -18 -105.004
c0 -52.667 13.667 -92 41 -118s70.666 -39 129.999 -39c99.333 0 173 21 221 63c1.33301 14.667 2 29.334 2 44.001c-58 0 -103 14 -135 42s-48 62.333 -48 103c0 35.333 11.667 69.333 35 102s48 49 74 49c30.667 0 58.334 -19 83.001 -57s38.667 -82 42 -132h36
c9.33301 0 17.5 -5.16699 24.5 -15.5s10.5 -23.166 10.5 -38.499s-3.5 -28 -10.5 -38s-15.167 -15 -24.5 -15h-36c-4 -59.333 -25 -106.666 -63 -141.999c-56 -50.667 -134.333 -76 -235 -76c-66 0 -116.667 17.333 -152 52s-53 84 -53 148
c0 34.667 5.33301 67.334 16 98.001s22.667 50.667 36 60zM339.001 139.996c7.33301 -12 21 -22 41 -30s42.667 -12 68 -12c4 0 16.667 0.666992 38 2c-6.66699 28 -18 50.5 -34 67.5s-33.667 25.5 -53 25.5c-12.667 0 -25 -5.16699 -37 -15.5s-19.667 -22.833 -23 -37.5z
" />
    <glyph glyph-name="uniFED7" unicode="&#x642;" horiz-adv-x="329" arabic-form="initial" 
d="M258 571l-52.999 -66c-25.333 12 -47 28.667 -65 50l-40 -55c-12.667 5.33301 -26 13.5 -40 24.5s-25 22.5 -33 34.5l53 67c17.333 -24 37 -43 59 -57l46 62c17.333 -22 41.666 -42 72.999 -60zM244.001 149c-1.33301 26 -2.66699 42.3311 -4 48.998
c-7.33301 -8.66699 -18.833 -16.167 -34.5 -22.5s-30.5 -9.5 -44.5 -9.5c-34 0 -63.5 13 -88.5 39s-37.5 57.333 -37.5 94c0 36 12.333 70.333 37 103s51.667 49 81 49c36 0 68.833 -23.167 98.5 -69.5s44.5 -102.166 44.5 -167.499c0 -35.333 -5.5 -67.166 -16.5 -95.499
s-25.5 -49.833 -43.5 -64.5c-47.333 -40.667 -126 -61 -236 -61c-8 0 -14.5 4.66699 -19.5 14s-7.5 22.333 -7.5 39c0 36 9 54 27 54c120.667 0 202 16.333 244 49zM78 303.998c17.333 -31.333 48 -47.001 92 -47.001c26.667 0 47.334 4 62.001 12
c-6 26.667 -17.667 47.834 -35 63.501s-35.333 23.5 -54 23.5c-14.667 0 -27.834 -4.83301 -39.501 -14.5s-20.167 -22.167 -25.5 -37.5z" />
    <glyph glyph-name="uniFED8" unicode="&#x642;" horiz-adv-x="362" arabic-form="medial" 
d="M299 501l-52.999 -66c-25.333 12 -47 28.667 -65 50l-40 -55c-12.667 5.33301 -26 13.5 -40 24.5s-25 22.5 -33 34.5l53 67c17.333 -24 37 -43 59 -57l46 62c17.333 -22 41.666 -42 72.999 -60zM97.001 111c-23.333 28 -34.998 60.3311 -34.998 96.998
c0 26.667 5 51.667 15 75c13.333 30 30.5 54 51.5 72s41.833 27 62.5 27c26.667 0 52 -16 76 -48s36 -67.333 36 -106c0 -40 -16.667 -79 -50 -117c29.333 -7.33301 65.666 -11 108.999 -11c9.33301 0 17.5 -5.16699 24.5 -15.5s10.5 -23.166 10.5 -38.499
s-3.5 -28 -10.5 -38s-15.167 -15 -24.5 -15c-75.333 0 -139.666 15.667 -192.999 47c-52 -31.333 -108.333 -47 -169 -47c-18 0 -27 17.667 -27 53c0 14.667 2.66699 27.334 8 38.001s11.666 16 18.999 16c41.333 0 73.666 3.66699 96.999 11zM176.003 135.998
c18 8.66699 34.501 19.6689 49.501 33.002s25.833 26.666 32.5 39.999c-6 19.333 -16.667 36.166 -32 50.499s-31 21.5 -47 21.5c-12.667 0 -26.5 -5.83301 -41.5 -17.5s-26.5 -25.5 -34.5 -41.5c2.66699 -18.667 10.667 -35.667 24 -51s29.666 -27 48.999 -35z" />
    <glyph glyph-name="uniFEDA" unicode="&#x643;" horiz-adv-x="621" arabic-form="final" 
d="M90 249c-6 -18 -8.99707 -39.334 -8.99707 -64.001c0 -78 46 -117 138 -117c107.333 0 192.666 22.667 255.999 68c0 206.667 -4.66699 347.667 -14 423l74 62c8 -82 12 -211 12 -387c0 -56.667 5.33301 -93.167 16 -109.5s30 -24.5 58 -24.5
c9.33301 0 17.5 -5.16699 24.5 -15.5s10.5 -23.166 10.5 -38.499s-3.5 -28 -10.5 -38s-15.167 -15 -24.5 -15c-42.667 0 -75.334 8.66699 -98.001 26s-37.334 44.666 -44.001 81.999l-25 -72c-63.333 -48 -148.333 -72 -255 -72c-52.667 0 -94 13.833 -124 41.5
s-45 66.834 -45 117.501c0 26 3.66699 50.5 11 73.5s15.333 37.5 24 43.5zM223.003 165.999l-58 34v7c94 14 141 22.667 141 26c0 4 -13.667 14.667 -41 32c-16 10 -26.167 17.5 -30.5 22.5s-6.5 10.833 -6.5 17.5c0 8 2.33301 17.667 7 29c12 26.667 30.333 48.167 55 64.5
s52 24.5 82 24.5l-24 -61c-18.667 -2 -34.167 -5 -46.5 -9s-20.666 -7.83301 -24.999 -11.5s-6.5 -7.16699 -6.5 -10.5s14.667 -14.333 44 -33c18 -12 29.833 -21 35.5 -27s8.5 -12.667 8.5 -20c0 -16.667 -5.83301 -31.667 -17.5 -45s-28.834 -22 -51.501 -26z" />
    <glyph glyph-name="uniFEDB" unicode="&#x643;" horiz-adv-x="450" arabic-form="initial" 
d="M422 634l-44.9971 -117.999l-300 -122c58 -39.333 103.667 -79.5 137 -120.5s50 -74.833 50 -101.5c0 -14 -4.33301 -32.333 -13 -55s-20 -42 -34 -58c-20.667 -22.667 -47.334 -39.334 -80.001 -50.001s-78.334 -16 -137.001 -16c-18 0 -27 17.667 -27 53
c0 36 9 54 27 54c102.667 0 172 12 208 36c-32 56.667 -75 102.667 -129 138l-21 -34c-38.667 48 -58 94.667 -58 140c0 24.667 5.16699 44.667 15.5 60s29.166 29 56.499 41z" />
    <glyph glyph-name="uniFEDC" unicode="&#x643;" horiz-adv-x="435" arabic-form="medial" 
d="M418 647l-45.9961 -117.001l-289 -118l176 -196c41.333 -45.333 74.666 -76 99.999 -92s50.666 -24 75.999 -24c8.66699 0 16.5 -5.16699 23.5 -15.5s10.5 -23.166 10.5 -38.499s-3.5 -28 -10.5 -38s-14.833 -15 -23.5 -15c-50 0 -92.5 11.667 -127.5 35
s-75.167 67 -120.5 131c-1.33301 -40 -14 -75.667 -38 -107c-13.333 -18 -33.333 -32.333 -60 -43s-56.334 -16 -89.001 -16c-8 0 -14.5 4.66699 -19.5 14s-7.5 22.333 -7.5 39s2.5 29.834 7.5 39.501s11.5 14.5 19.5 14.5c68 0 114.333 13.333 139 40
c-2.66699 25.333 -9.83398 49.666 -21.501 72.999s-31.167 53.333 -58.5 90c-34 44 -51 82 -51 114c0 20 4 35.167 12 45.5s22 19.833 42 28.5z" />
    <glyph glyph-name="uniFEDE" unicode="&#x644;" horiz-adv-x="532" arabic-form="final" 
d="M91 95c-6.66699 -18 -10 -41.6689 -10 -71.002c0 -74.667 41 -112 123 -112c76 0 135.333 12.333 178 37c0 135.333 -3.33301 254 -10 356c-7.33301 111.333 -11 192.666 -11 243.999l87 72v-398c0 -48 5.83301 -80.5 17.5 -97.5s33.834 -25.5 66.501 -25.5
c8.66699 0 16.5 -5.16699 23.5 -15.5s10.5 -23.166 10.5 -38.499s-3.5 -28 -10.5 -38s-14.833 -15 -23.5 -15c-40 0 -69.333 16 -88 48c0 -39.333 -3.66699 -73.666 -11 -102.999c-10.667 -41.333 -38.834 -74.666 -84.501 -99.999s-98.834 -38 -159.501 -38
c-51.333 0 -90.666 14 -117.999 42s-41 68 -41 120c0 26 4 50.5 12 73.5s16.333 37.5 25 43.5z" />
    <glyph glyph-name="uniFEDF" unicode="&#x644;" horiz-adv-x="239" arabic-form="initial" 
d="M50 571l78.998 49.999c5.33301 -21.333 15.5 -44.166 30.5 -68.499s29.833 -42.5 44.5 -54.5l-55 -33c0 -43.333 1.66699 -96 5 -158c4.66699 -85.333 7 -130.666 7 -135.999c0 -44.667 -9.66699 -82.667 -29 -114c-25.333 -42.667 -69.333 -64 -132 -64
c-7.33301 0 -13.666 4.83301 -18.999 14.5s-8 22.5 -8 38.5c0 36 9 54 27 54c43.333 0 74.333 4.66699 93 14c-0.666992 27.333 -5.33398 90.666 -14.001 189.999c-11.333 108.667 -17.666 184 -18.999 226c-5.33301 12 -8.66602 25.667 -9.99902 41z" />
    <glyph glyph-name="uniFEE0" unicode="&#x644;" horiz-adv-x="225" arabic-form="medial" 
d="M86 149c-0.666992 175.333 -8 310.332 -22 404.999l77 67c8.66699 -80 13 -206.333 13 -379c0 -57.333 5.5 -95.333 16.5 -114s29.167 -28 54.5 -28c8.66699 0 16.334 -5.16699 23.001 -15.5s10 -23.166 10 -38.499s-3.33301 -28 -10 -38s-14.334 -15 -23.001 -15
c-70 0 -112.667 32.667 -128 98c-18 -65.333 -50.333 -98 -97 -98c-8 0 -14.5 4.83301 -19.5 14.5s-7.5 22.5 -7.5 38.5s2.66699 29 8 39s11.666 15 18.999 15c40.667 0 69.334 16.333 86.001 49z" />
    <glyph glyph-name="uniFEE2" unicode="&#x645;" horiz-adv-x="468" arabic-form="final" 
d="M97 -361c-3.33301 32 -17 97.332 -41 195.999c-17.333 71.333 -26 115.333 -26 132c0 52 23.5 109.167 70.5 171.5s93.5 93.5 139.5 93.5c21.333 0 39.833 -4.83301 55.5 -14.5s35.5 -27.167 59.5 -52.5c24.667 -26 44.667 -43.333 60 -52s33 -13 53 -13
c8.66699 0 16.667 -5.16699 24 -15.5s11 -23.166 11 -38.499s-3.66699 -28 -11 -38s-15.333 -15 -24 -15c-39.333 0 -71.333 13 -96 39c-8.66699 -33.333 -23.167 -61.333 -43.5 -84s-41.833 -34 -64.5 -34c-56.667 0 -101.334 49 -134.001 147
c-21.333 -26 -34.666 -44.667 -39.999 -56c5.33301 -39.333 15 -97.333 29 -174c10 -55.333 15 -96.333 15 -123c0 -30 -6 -55 -18 -75zM346 56.999c-35.333 53.333 -72.333 80 -111 80c-23.333 0 -45.666 -11.667 -66.999 -35c18 -33.333 35.167 -56.5 51.5 -69.5
s34.166 -19.5 53.499 -19.5c32.667 0 57 14.667 73 44z" />
    <glyph glyph-name="uniFEE3" unicode="&#x645;" horiz-adv-x="402" arabic-form="initial" 
d="M122 68c-32.667 -50 -73.334 -75 -122.001 -75c-7.33301 0 -13.666 5 -18.999 15s-8 22.667 -8 38c0 16 2.66699 29 8 39s11.666 15 18.999 15c25.333 0 47.666 6.5 66.999 19.5s39 36.833 59 71.5c20.667 35.333 39.334 60.333 56.001 75s35.334 22 56.001 22
c32 0 62 -17.167 90 -51.5s42 -71.833 42 -112.5c0 -36 -11.667 -70 -35 -102s-50 -48 -80 -48c-48.667 0 -93 31.333 -133 94zM156 135c33.333 -41.333 68.667 -61.999 106 -61.999c30 0 53.333 12 70 36c-12 25.333 -27.833 45.666 -47.5 60.999s-38.167 23 -55.5 23
c-28 0 -52.333 -19.333 -73 -58z" />
    <glyph glyph-name="uniFEE4" unicode="&#x645;" horiz-adv-x="451" arabic-form="medial" 
d="M98 42c-26 -32.667 -58.6699 -49.001 -98.0029 -49.001c-18 0 -27 17.667 -27 53c0 36 9 54 27 54c22 0 40.5 4.66699 55.5 14s34.5 27.666 58.5 54.999c38.667 46 75.667 69 111 69c18 0 34.833 -5 50.5 -15s34.834 -28 57.501 -54
c23.333 -27.333 43.333 -45.666 60 -54.999s36 -14 58 -14c8.66699 0 16.5 -5.16699 23.5 -15.5s10.5 -23.166 10.5 -38.499s-3.5 -28 -10.5 -38s-14.833 -15 -23.5 -15c-42 0 -77.667 16.333 -107 49c-11.333 -34 -26.166 -60.833 -44.499 -80.5
s-38.166 -29.5 -59.499 -29.5c-54 0 -101.333 36.667 -142 110zM138.997 97.999c38 -46.667 75.667 -70 113 -70c25.333 0 47 13.667 65 41c-34 50 -69 75 -105 75c-26.667 0 -51 -15.333 -73 -46z" />
    <glyph glyph-name="uniFEE6" unicode="&#x646;" horiz-adv-x="556" arabic-form="final" 
d="M317 300l-54.999 -69c-34 16 -59.667 36.667 -77 62l56 69c19.333 -24 44.666 -44.667 75.999 -62zM101.001 149c-12 -26 -18.002 -61.332 -18.002 -105.999c0 -54 12.667 -93.667 38 -119s65.333 -38 120 -38c37.333 0 72.333 5.83301 105 17.5s57.667 27.5 75 47.5
c-4.66699 64 -19 119 -43 165l62 85c29.333 -67.333 68 -101 116 -101c9.33301 0 17.5 -5.33301 24.5 -16s10.5 -23.667 10.5 -39s-3.5 -27.833 -10.5 -37.5s-15.167 -14.5 -24.5 -14.5c-33.333 0 -58.666 12.333 -75.999 37l-1 -1
c0.666992 -67.333 -13.666 -122 -42.999 -164c-19.333 -26.667 -47.166 -48.334 -83.499 -65.001s-77.5 -25 -123.5 -25c-64.667 0 -114.834 17.167 -150.501 51.5s-53.5 83.5 -53.5 147.5c0 36 5.16699 69 15.5 99s22.5 49.667 36.5 59z" />
    <glyph glyph-name="uniFEE7" unicode="&#x646;" horiz-adv-x="246" arabic-form="initial" 
d="M81 261l64 109.001c40.667 -52.667 61 -109.334 61 -170.001c0 -45.333 -13.667 -89.333 -41 -132c-32.667 -50 -87.667 -75 -165 -75c-18 0 -27 17.667 -27 53c0 36 9 54 27 54c70 0 119.667 10.333 149 31c-4 23.333 -12.833 47.333 -26.5 72s-27.5 44 -41.5 58z
M185 500.001l-54.999 -69c-34 16 -59.667 36.667 -77 62l56 69c19.333 -24 44.666 -44.667 75.999 -62z" />
    <glyph glyph-name="uniFEE8" unicode="&#x646;" horiz-adv-x="323" arabic-form="medial" 
d="M124 199l36.001 43.999h1c14 -50.667 34 -87.167 60 -109.5s60 -33.5 102 -33.5c9.33301 0 17.5 -5.16699 24.5 -15.5s10.5 -23.166 10.5 -38.499s-3.5 -28 -10.5 -38s-15.167 -15 -24.5 -15c-80.667 0 -138.334 33.667 -173.001 101h-1
c-32 -67.333 -81.667 -101 -149 -101c-18 0 -27 18 -27 54c0 35.333 9 53 27 53c58 0 101.333 18.667 130 56zM206.001 400.999l-54.999 -69c-34 16 -59.667 36.667 -77 62l56 69c19.333 -24 44.666 -44.667 75.999 -62z" />
    <glyph glyph-name="uniFEE9" unicode="&#x647;" horiz-adv-x="581" arabic-form="isolated" 
d="M223 354l20.999 85.998h8c100.667 -51.333 176.334 -99.5 227.001 -144.5s76 -81.833 76 -110.5c0 -40 -12.667 -79.333 -38 -118c-14 -21.333 -28.5 -36.166 -43.5 -44.499s-32.833 -12.5 -53.5 -12.5c-35.333 0 -77 15.333 -125 46
c-24 -17.333 -52.5 -32.333 -85.5 -45s-61.167 -19 -84.5 -19c-14 0 -31.333 6.83301 -52 20.5s-38.334 30.5 -53.001 50.5l18 19c84.667 4.66699 148.667 16.667 192 36c-24.667 26.667 -37 51.334 -37 74.001c0 23.333 9.33301 47.333 28 72s41.334 43 68.001 55v3z
M413.999 236.998c-5.33301 -38.667 -22.333 -76 -51 -112c31.333 -16.667 58.333 -25 81 -25c30.667 0 51 14 61 42c-4 13.333 -15 29.5 -33 48.5s-37.333 34.5 -58 46.5zM249.999 223.998c14.667 -24 36.6641 -46.998 65.9971 -68.998c32 22 52.667 48 62 78
c-3.33301 15.333 -10.166 28.166 -20.499 38.499s-22.166 15.5 -35.499 15.5c-12 0 -25.667 -6.83301 -41 -20.5s-25.666 -27.834 -30.999 -42.501z" />
    <glyph glyph-name="uniFEEA" unicode="&#x647;" horiz-adv-x="399" arabic-form="final" 
d="M248 428c21.333 -46 41.333 -119.668 60 -221.001c8 -42.667 18.333 -71.167 31 -85.5s32.667 -21.5 60 -21.5c8.66699 0 16.5 -5.16699 23.5 -15.5s10.5 -23.166 10.5 -38.499s-3.5 -28 -10.5 -38s-14.833 -15 -23.5 -15c-79.333 0 -128.666 39 -147.999 117l-24 -27
c-25.333 -30.667 -53 -46 -83 -46c-28 0 -54 10.667 -78 32s-36 44 -36 68c0 24.667 7.33301 46.667 22 66c25.333 34 77.666 69 156.999 105l-19 51zM226 241.999c-66.667 -20 -112.666 -41 -137.999 -63c18 -34 49.667 -51 95 -51c21.333 0 41.333 5.66699 60 17
c-4.66699 36 -10.334 68.333 -17.001 97z" />
    <glyph glyph-name="uniFEEB" unicode="&#x647;" horiz-adv-x="453" arabic-form="initial" 
d="M86 348l19.9961 86h9c100.667 -51.333 176.334 -99.5 227.001 -144.5s76 -81.833 76 -110.5c0 -38.667 -12.667 -78 -38 -118c-24.667 -38 -57 -57 -97 -57c-35.333 0 -77 15.333 -125 46c-51.333 -38 -104 -57 -158 -57c-7.33301 0 -13.666 4.83301 -18.999 14.5
s-8 22.5 -8 38.5s2.83301 29 8.5 39s11.834 15 18.501 15c36 0 67 4 93 12c-24.667 26 -37 50.667 -37 74s9.33301 47.333 28 72s41.334 43 68.001 55v3zM275.996 231c-4 -38 -20.667 -75.3311 -50 -111.998c31.333 -16.667 58.333 -25 81 -25c30.667 0 51 14 61 42
c-4 13.333 -15.167 29.666 -33.5 48.999s-37.833 34.666 -58.5 45.999zM112.996 218.002c14.667 -24 36.665 -47 65.998 -69c32 22.667 52.333 48.667 61 78c-2.66699 14.667 -9.16699 27.334 -19.5 38.001s-22.166 16 -35.499 16c-12 0 -25.667 -6.83301 -41 -20.5
s-25.666 -27.834 -30.999 -42.501z" />
    <glyph glyph-name="uniFEEC" unicode="&#x647;" horiz-adv-x="418" arabic-form="medial" 
d="M171 391c83.333 -40 125.001 -90.002 125.001 -150.002c0 -46 -16.667 -88.833 -50 -128.5s-77 -70.167 -131 -91.5c3.33301 -26 15.166 -51.667 35.499 -77s43.5 -42.666 69.5 -51.999c8.66699 65.333 31.167 116.333 67.5 153s79.833 55 130.5 55
c8.66699 0 16.667 -5.16699 24 -15.5s11 -23.166 11 -38.499s-3.66699 -28 -11 -38s-15.333 -15 -24 -15c-65.333 0 -111 -11.333 -137 -34c-4.66699 -12 -7 -27 -7 -45c0 -42 21 -69.333 63 -82l-74 -84c-58.667 24.667 -106.167 59.5 -142.5 104.5
s-58.166 94.5 -65.499 148.5c-32 -5.33301 -50.333 -8 -55 -8c-8 0 -14.5 4.83301 -19.5 14.5s-7.5 22.167 -7.5 37.5c0 16 2.66699 29.167 8 39.5s11.666 15.5 18.999 15.5c16.667 0 35 1.33301 55 4c2.66699 54 15.167 107.667 37.5 161s48.5 95.333 78.5 126z
M252.001 182.998c-4.66699 18 -16.334 35.8311 -35.001 53.498s-39.667 30.834 -63 39.501c-11.333 -16.667 -21 -41.167 -29 -73.5s-12.333 -63.5 -13 -93.5c30.667 4.66699 58.834 13.834 84.501 27.501s44.167 29.167 55.5 46.5z" />
    <glyph glyph-name="uniFEEE" unicode="&#x648;" horiz-adv-x="380" arabic-form="final" 
d="M7 -154c78 18 139.835 40.3311 185.502 66.998s74.5 53.334 86.5 80.001c-54.667 2.66699 -97.5 17.667 -128.5 45s-46.5 61.333 -46.5 102c0 36 11.667 69.667 35 101s48.333 47 75 47c31.333 0 59.166 -18 83.499 -54s39.166 -80.667 44.499 -134h38
c9.33301 0 17.5 -5.16699 24.5 -15.5s10.5 -23.166 10.5 -38.499s-3.5 -28 -10.5 -38s-15.167 -15 -24.5 -15h-43c-18.667 -82 -70 -149.667 -154 -203l-158 30zM145.002 139.998c6 -12 18.333 -22 37 -30s40.667 -12 66 -12c9.33301 0 24 0.666992 44 2
c-6.66699 28 -17.667 50.5 -33 67.5s-32.333 25.5 -51 25.5c-14 0 -27 -5 -39 -15s-20 -22.667 -24 -38z" />
    <glyph glyph-name="uniFEF0" unicode="&#x649;" horiz-adv-x="554" arabic-form="final" 
d="M107 128c-11.333 -26.667 -17.002 -57.001 -17.002 -91.001c0 -104.667 53.333 -157 160 -157c56.667 0 106.334 5.16699 149.001 15.5s73 22.166 91 35.499v1c-23.333 18.667 -66.333 39 -129 61c6.66699 38 17.334 65.667 32.001 83c38.667 16 92.334 24 161.001 24
c8.66699 0 16.5 -5.16699 23.5 -15.5s10.5 -23.166 10.5 -38.499s-3.5 -28 -10.5 -38s-14.833 -15 -23.5 -15h-61l-1 -1c29.333 -21.333 44 -40.666 44 -57.999c0 -26 -11 -51 -33 -75s-57.833 -45 -107.5 -63s-103.5 -27 -161.5 -27c-61.333 0 -109.333 17.833 -144 53.5
s-52 85.834 -52 150.501c0 31.333 4.66699 60.166 14 86.499s19.666 43.5 30.999 51.5z" />
    <glyph glyph-name="uniFEF2" unicode="&#x64a;" horiz-adv-x="566" arabic-form="final" 
d="M119 128c-11.333 -26.667 -17.002 -57.001 -17.002 -91.001c0 -104.667 53.333 -157 160 -157c56.667 0 106.334 5.16699 149.001 15.5s73 22.166 91 35.499v1c-23.333 18.667 -66.333 39 -129 61c6.66699 38 17.334 65.667 32.001 83c38.667 16 92.334 24 161.001 24
c8.66699 0 16.5 -5.16699 23.5 -15.5s10.5 -23.166 10.5 -38.499s-3.5 -28 -10.5 -38s-14.833 -15 -23.5 -15h-61l-1 -1c29.333 -21.333 44 -40.666 44 -57.999c0 -26 -11 -51 -33 -75s-57.833 -45 -107.5 -63s-103.5 -27 -161.5 -27c-61.333 0 -109.333 17.833 -144 53.5
s-52 85.834 -52 150.501c0 31.333 4.66699 60.166 14 86.499s19.666 43.5 30.999 51.5zM379.998 -321.001l-52.999 -66c-25.333 12 -47 28.667 -65 50l-40 -55c-12.667 5.33301 -26 13.5 -40 24.5s-25 22.5 -33 34.5l53 67c17.333 -24 37 -43 59 -57l46 62
c17.333 -22 41.666 -42 72.999 -60z" />
    <glyph glyph-name="uniFEF3" unicode="&#x64a;" horiz-adv-x="246" arabic-form="initial" 
d="M81 261l64 109.001c40.667 -52.667 61 -109.334 61 -170.001c0 -45.333 -13.667 -89.333 -41 -132c-32.667 -50 -87.667 -75 -165 -75c-18 0 -27 17.667 -27 53c0 36 9 54 27 54c70 0 119.667 10.333 149 31c-4 23.333 -12.833 47.333 -26.5 72s-27.5 44 -41.5 58z
M242 -129.999l-52.999 -66c-25.333 12 -47 28.667 -65 50l-40 -55c-12.667 5.33301 -26 13.5 -40 24.5s-25 22.5 -33 34.5l53 67c17.333 -24 37 -43 59 -57l46 62c17.333 -22 41.666 -42 72.999 -60z" />
    <glyph glyph-name="uniFEF4" unicode="&#x64a;" horiz-adv-x="323" arabic-form="medial" 
d="M124 199l36.001 43.999h1c14 -50.667 34 -87.167 60 -109.5s60 -33.5 102 -33.5c9.33301 0 17.5 -5.16699 24.5 -15.5s10.5 -23.166 10.5 -38.499s-3.5 -28 -10.5 -38s-15.167 -15 -24.5 -15c-80.667 0 -138.334 33.667 -173.001 101h-1
c-32 -67.333 -81.667 -101 -149 -101c-18 0 -27 18 -27 54c0 35.333 9 53 27 53c58 0 101.333 18.667 130 56zM284.001 -130.001l-52.999 -66c-25.333 12 -47 28.667 -65 50l-40 -55c-12.667 5.33301 -26 13.5 -40 24.5s-25 22.5 -33 34.5l53 67c17.333 -24 37 -43 59 -57
l46 62c17.333 -22 41.666 -42 72.999 -60z" />
    <glyph glyph-name=".notdef" horiz-adv-x="355" 
d="M355 0h-355v498h355v-498zM299 462h-242l121 -181zM320 67v363l-121 -181zM57 36h242l-121 181zM36 430v-363l120 182z" />
    <glyph glyph-name="space" unicode=" " horiz-adv-x="176" 
 />
    <glyph glyph-name="exclam" unicode="!" horiz-adv-x="251" 
d="M77 51c0 39.333 20.667 59 62 59c19.333 0 34.333 -5.16699 45 -15.5s16 -24.833 16 -43.5c0 -38.667 -20.333 -58 -61 -58c-41.333 0 -62 19.333 -62 58zM198 565l-39 -404h-42l-52 387l132 19z" />
    <glyph glyph-name="quotedbl" unicode="&#x22;" horiz-adv-x="290" 
d="M58 392l-36 179c17.333 15.333 35.666 23 54.999 23c20.667 0 39.334 -7.66699 56.001 -23l-36 -179h-39zM192 392l-36 179c17.333 15.333 35.666 23 54.999 23c20.667 0 39.334 -7.66699 56.001 -23l-36 -179h-39z" />
    <glyph glyph-name="numbersign" unicode="#" horiz-adv-x="488" 
d="M75 265l16 61h76l34 127h64l-33 -127h80l34 127h64l-33 -127h77l-16 -61h-78l-21 -80h76l-17 -62h-75l-36 -137h-65l37 137h-80l-37 -137h-65l37 137h-80l16 62h81l20 80h-76zM216 265l-21 -80h80l21 80h-80z" />
    <glyph glyph-name="dollar" unicode="$" horiz-adv-x="460" 
d="M287 528l0.000976562 -74.0039c42.667 -4 80.667 -14.667 114 -32l-27 -93h-48l-13 61c-16.667 12.667 -38.667 19 -66 19c-21.333 0 -39.333 -5.66699 -54 -17s-22 -25.666 -22 -42.999c0 -14.667 8 -27.834 24 -39.501s35.167 -22.167 57.5 -31.5
s44.833 -19.666 67.5 -30.999s42 -27 58 -47s24 -43.667 24 -71c0 -33.333 -11.333 -62.166 -34 -86.499s-52.334 -39.5 -89.001 -45.5v-76h-74v75c-49.333 2.66699 -97.666 15.667 -144.999 39l28 102h56l9 -64c24.667 -22.667 54.667 -34 90 -34
c22 0 39.667 5.66699 53 17s20 26 20 44c0 17.333 -8 32.5 -24 45.5s-35.333 24 -58 33s-45.167 18.833 -67.5 29.5s-41.5 25.334 -57.5 44.001s-24 41.334 -24 68.001c0 32.667 12.167 61.167 36.5 85.5s55.166 39.833 92.499 46.5v76h73z" />
    <glyph glyph-name="percent" unicode="%" horiz-adv-x="709" 
d="M528 -7c-87.333 0 -131 42.667 -131 128c0 44 11.667 76.333 35 97s55.333 31 96 31c86.667 0 130 -42.667 130 -128s-43.333 -128 -130 -128zM528 27c28.667 0 43 31.333 43 94c0 62 -14.333 93 -43 93c-28 0 -42 -31 -42 -93c0 -62.667 14 -94 42 -94zM145 13l382 462
l40 -33l-382 -462zM181 205c-86.667 0 -130 42.667 -130 128c0 84.667 43.333 127 130 127c87.333 0 131 -42.333 131 -127c0 -44 -11.667 -76.333 -35 -97s-55.333 -31 -96 -31zM181 238c28 0 42 31.667 42 95c0 61.333 -14 92 -42 92s-42 -30.667 -42 -92
c0 -63.333 14 -95 42 -95z" />
    <glyph glyph-name="ampersand" unicode="&#x26;" horiz-adv-x="543" 
d="M536 43l-7.99902 -34c-26.667 -10.667 -53.334 -16 -80.001 -16c-42 0 -79 20 -111 60c-44 -40 -92.333 -60 -145 -60c-42 0 -76.167 12 -102.5 36s-39.5 54 -39.5 90c0 30.667 10.167 59 30.5 85s50.166 47 89.499 63c-39.333 49.333 -59 92.333 -59 129
c0 36 14.833 67.833 44.5 95.5s67.5 41.5 113.5 41.5c40.667 0 73.167 -10.833 97.5 -32.5s36.5 -47.5 36.5 -77.5c0 -29.333 -11.667 -56.5 -35 -81.5s-56.666 -45.833 -99.999 -62.5l100 -134c13.333 32 19.333 73 18 123l68 37l8 -10c-4.66699 -74 -27.667 -134 -69 -180
c22 -23.333 43.333 -40.333 64 -51s47 -17.667 79 -21zM191.001 243c-32 -24 -47.999 -56.667 -47.999 -98c0 -26 8.16699 -46.833 24.5 -62.5s37.166 -23.5 62.499 -23.5c30.667 0 58 8 82 24zM248.002 301c43.333 33.333 65 69.334 65 108.001
c0 20 -5.83301 36.5 -17.5 49.5s-26.5 19.5 -44.5 19.5c-17.333 0 -31.333 -5.83301 -42 -17.5s-16 -25.834 -16 -42.501c0 -31.333 18.333 -70.333 55 -117z" />
    <glyph glyph-name="quotesingle" unicode="'" horiz-adv-x="195" 
d="M78 392l-36 179c17.333 15.333 35.666 23 54.999 23c20.667 0 39.334 -7.66699 56.001 -23l-36 -179h-39z" />
    <glyph glyph-name="parenleft" unicode="(" horiz-adv-x="265" 
d="M231 641l21 -35.001v-1c-77.333 -83.333 -116 -207.666 -116 -372.999c0 -166 38.667 -290.667 116 -374v-1l-21 -35h-1c-130.667 92 -196 228.667 -196 410c0 180.667 65.333 317 196 409h1z" />
    <glyph glyph-name="parenright" unicode=")" horiz-adv-x="265" 
d="M13 606l21 35.001h1c130.667 -92 196 -228.333 196 -409c0 -181.333 -65.333 -318 -196 -410h-1l-21 35v1c77.333 83.333 116 208 116 374c0 165.333 -38.667 289.666 -116 372.999v1z" />
    <glyph glyph-name="asterisk" unicode="*" horiz-adv-x="410" 
d="M197 450l-46.001 139.998c19.333 14.667 38.333 22 57 22c14 0 25.667 -4.5 35 -13.5s14 -21.167 14 -36.5c0 -23.333 -14.333 -60.666 -43 -111.999l2 -2l123 80c20.667 -16 31 -35.333 31 -58c0 -29.333 -26.333 -44 -79 -44c-26 0 -49.667 3 -71 9l-2 -3l115 -94
c-6 -15.333 -14.5 -28.166 -25.5 -38.499s-22.167 -15.5 -33.5 -15.5c-31.333 0 -53.666 45.667 -66.999 137h-4l-48 -138c-19.333 0 -36.666 4.5 -51.999 13.5s-23 20.167 -23 33.5c0 30.667 36.667 64.667 110 102l-1 3l-143 7c-3.33301 8 -5 16.667 -5 26
c-0.666992 16 2.83301 29.167 10.5 39.5s18.167 15.5 31.5 15.5c29.333 0 66.666 -25 111.999 -75z" />
    <glyph glyph-name="plus" unicode="+" horiz-adv-x="460" 
d="M53 192v64h143v151h68v-151h143v-64h-143v-151h-68v151h-143z" />
    <glyph glyph-name="comma" unicode="," horiz-adv-x="273" 
d="M54 34l62 92.999c57.333 -27.333 86 -65.666 86 -114.999c0 -60.667 -40.667 -115 -122 -163h-1l-28 27v1c36 43.333 56 80.333 60 111z" />
    <glyph glyph-name="hyphen" unicode="-" horiz-adv-x="338" 
d="M300 253v-40c0 -14.667 -3.33301 -25.167 -10 -31.5s-19 -9.5 -37 -9.5h-221v26c0 36.667 14 55 42 55h226z" />
    <glyph glyph-name="period" unicode="." horiz-adv-x="289" 
d="M77 55c0 40.667 21 61 63 61c20 0 35.5 -5.33301 46.5 -16s16.5 -25.667 16.5 -45c0 -40.667 -21 -61 -63 -61s-63 20.333 -63 61z" />
    <glyph glyph-name="slash" unicode="/" horiz-adv-x="338" 
d="M5 -74l257 692l71 -30l-257 -688z" />
    <glyph glyph-name="zero" unicode="0" horiz-adv-x="523" 
d="M261 -7c-64 0 -115.667 21 -155 63s-59 99 -59 171s19.667 128.833 59 170.5s91 62.5 155 62.5s115.833 -20.833 155.5 -62.5s59.5 -98.5 59.5 -170.5s-19.833 -129 -59.5 -171s-91.5 -63 -155.5 -63zM261 49c32.667 0 58.5 14.835 77.5 44.502s28.5 74.167 28.5 133.5
s-9.5 103.666 -28.5 132.999s-44.833 44 -77.5 44s-58.5 -14.833 -77.5 -44.5s-28.5 -73.834 -28.5 -132.501c0 -59.333 9.5 -103.833 28.5 -133.5s44.833 -44.5 77.5 -44.5z" />
    <glyph glyph-name="one" unicode="1" horiz-adv-x="371" 
d="M72 0l7.99902 37.999c32.667 4.66699 54.334 10.834 65.001 18.501s16 20.167 16 37.5v270l-1 2l-114 -66l-26 42l205 122l40 -20v-391l84 -15l-7 -38h-270z" />
    <glyph glyph-name="two" unicode="2" horiz-adv-x="441" 
d="M106 311l-74 68.999v1c50.667 52.667 114 79 190 79c44.667 0 82.5 -13.333 113.5 -40s46.5 -59.334 46.5 -98.001c0 -34.667 -11.5 -66.167 -34.5 -94.5s-64.833 -62.166 -125.5 -101.499l-102 -67l1 -3l281 46l2 -4l-22 -98h-349l5 45l111 103
c49.333 46.667 82.166 81.5 98.499 104.5s24.5 46.5 24.5 70.5c0 18 -4.83301 34.333 -14.5 49s-22.167 25.334 -37.5 32.001c-37.333 -14.667 -74.666 -45.667 -111.999 -93h-2z" />
    <glyph glyph-name="three" unicode="3" horiz-adv-x="436" 
d="M75 -83l-34.0029 48.999v1c76 12.667 134.833 30.834 176.5 54.501s62.5 51.167 62.5 82.5c0 47.333 -53 77 -159 89l-2 2l9 41c48.667 10.667 82.834 24.334 102.501 41.001s29.5 36.667 29.5 60c0 15.333 -4.66699 29.333 -14 42s-21.666 21 -36.999 25
c-32.667 -9.33301 -70 -36 -112 -80h-2l-62 64v1c48.667 47.333 109.334 71 182.001 71c41.333 0 77 -11.667 107 -35s45 -51.333 45 -84c0 -58 -48.333 -97.333 -145 -118v-3c56.667 -7.33301 98.667 -20.333 126 -39s41 -44.334 41 -77.001
c0 -44.667 -27.667 -84 -83 -118s-132.333 -57 -231 -69z" />
    <glyph glyph-name="four" unicode="4" horiz-adv-x="480" 
d="M28 81l265 386h3l71 -29v-332l96 4l2 -3l-14 -63h-84v-127h-103v127h-209l-27 35v2zM96 95l168 6v109c0 56 2.66699 102 8 138l-2 2l-175 -254z" />
    <glyph glyph-name="five" unicode="5" horiz-adv-x="421" 
d="M62 -83l-34 49v1c158.667 28.667 238 83.334 238 164.001c0 27.333 -9.83301 49.666 -29.5 66.999s-44.5 26 -74.5 26c-19.333 0 -48 -4.33301 -86 -13l-3 2l-6 241h295l-26 -87h-186l-20 -107l1 -1c34 12.667 65.667 19 95 19c43.333 0 79 -12.833 107 -38.5
s42 -59.167 42 -100.5c0 -56 -27.333 -104 -82 -144s-131.667 -66 -231 -78z" />
    <glyph glyph-name="six" unicode="6" horiz-adv-x="475" 
d="M380 533l-11.999 -52.999c-116 -24.667 -183 -90.334 -201 -197.001h2c33.333 24 71.666 36 114.999 36c42.667 0 78.834 -14.167 108.501 -42.5s44.5 -63.166 44.5 -104.499c0 -50.667 -18.333 -93.167 -55 -127.5s-81.667 -51.5 -135 -51.5
c-56 0 -102 19.833 -138 59.5s-54 92.5 -54 158.5c0 92 30.167 167.667 90.5 227s138.166 91.666 233.499 96.999zM164.001 247.001c-1.33301 -16 -1.99902 -32.666 -1.99902 -49.999c0 -48 8.33301 -84.667 25 -110s39 -38 67 -38c22 0 40.667 9.16699 56 27.5
s23 43.166 23 74.499s-9.5 57.333 -28.5 78s-42.167 31 -69.5 31c-24.667 0 -48.334 -4.33301 -71.001 -13z" />
    <glyph glyph-name="seven" unicode="7" horiz-adv-x="415" 
d="M49 370l-27.001 80v4h371l-6 -60c-104.667 -106.667 -169.667 -265.667 -195 -477h-105c15.333 92.667 42.833 178 82.5 256s85.834 143 138.501 195v2h-259z" />
    <glyph glyph-name="eight" unicode="8" horiz-adv-x="464" 
d="M160 256l-0.00292969 1.00098c-62 35.333 -93 79.666 -93 132.999c0 38 16.333 71.667 49 101s72.667 44 120 44c46.667 0 85.334 -12.833 116.001 -38.5s46 -56.5 46 -92.5c0 -54 -31.667 -93.333 -95 -118v-1c73.333 -39.333 110 -87.333 110 -144
c0 -42.667 -17.167 -78 -51.5 -106s-78.166 -42 -131.499 -42c-54.667 0 -98 12.5 -130 37.5s-48 56.833 -48 95.5c0 27.333 9.33301 52.333 28 75s45.334 41 80.001 55zM194.997 237.001c-14.667 -9.33301 -26.833 -22.833 -36.5 -40.5s-14.5 -36.834 -14.5 -57.501
c0 -28.667 9.33301 -51.5 28 -68.5s42 -25.5 70 -25.5c24.667 0 44.5 6.5 59.5 19.5s22.5 29.833 22.5 50.5c0 22.667 -10 43.834 -30 63.501s-53 39.167 -99 58.5zM266.998 306.001c28 22.667 42 52.666 42 89.999c0 24.667 -8 45.167 -24 61.5s-35.333 24.5 -58 24.5
c-22 0 -40.167 -6.66699 -54.5 -20s-21.5 -30 -21.5 -50c0 -37.333 38.667 -72.666 116 -105.999z" />
    <glyph glyph-name="nine" unicode="9" horiz-adv-x="471" 
d="M79 -83l-34 49v2c82 17.333 145 42.333 189 75s69.333 75.667 76 129h-2c-28 -24.667 -66 -37 -114 -37c-46 0 -83.5 14 -112.5 42s-43.5 64 -43.5 108c0 46.667 18.333 87.5 55 122.5s81.334 52.5 134.001 52.5c55.333 0 101.166 -20.667 137.499 -62
s54.5 -97 54.5 -167c0 -177.333 -113.333 -282 -340 -314zM310 208l-0.000976562 38c0 48.667 -8 87.167 -24 115.5s-36.333 42.5 -61 42.5c-24 0 -44 -10 -60 -30s-24 -46.333 -24 -79c0 -34 9 -59.333 27 -76s42.667 -25 74 -25c26.667 0 49.334 4.66699 68.001 14z" />
    <glyph glyph-name="colon" unicode=":" horiz-adv-x="286" 
d="M84 331c0 40.667 21 61 63 61c20 0 35.5 -5.33301 46.5 -16s16.5 -25.667 16.5 -45c0 -40.667 -21 -61 -63 -61s-63 20.333 -63 61zM84 55c0 40.667 21 61 63 61c20 0 35.5 -5.33301 46.5 -16s16.5 -25.667 16.5 -45c0 -40.667 -21 -61 -63 -61s-63 20.333 -63 61z" />
    <glyph glyph-name="semicolon" unicode=";" horiz-adv-x="297" 
d="M75 34l62 92.999c57.333 -27.333 86 -65.666 86 -114.999c0 -60.667 -40.667 -115 -122 -163h-1l-28 27v1c36 43.333 56 80.333 60 111zM84 330.999c0 40.667 21 61 63 61c20 0 35.5 -5.33301 46.5 -16s16.5 -25.667 16.5 -45c0 -40.667 -21 -61 -63 -61
s-63 20.333 -63 61z" />
    <glyph glyph-name="less" unicode="&#x3c;" horiz-adv-x="460" 
d="M400 69v-81l-339 203v66l339 203v-81l-264 -155z" />
    <glyph glyph-name="equal" unicode="=" horiz-adv-x="460" 
d="M407 120h-354v64h354v-64zM407 259h-354v63h354v-63z" />
    <glyph glyph-name="greater" unicode="&#x3e;" horiz-adv-x="460" 
d="M60 -12v81l264 155l-264 155v81l339 -203v-66z" />
    <glyph glyph-name="question" unicode="?" horiz-adv-x="388" 
d="M204 165l-40.9961 -5.00098c-12.667 14 -24.334 31.333 -35.001 52s-16.334 38.334 -17.001 53.001c10 18.667 37.333 44.667 82 78c32.667 24 54.667 44 66 60s17 33.333 17 52c0 17.333 -5 33 -15 47c-8 4.66699 -19.333 7 -34 7c-38.667 0 -84.334 -26 -137.001 -78
h-2l-64 77v1c51.333 44.667 108.666 67 171.999 67c47.333 0 86.5 -13.167 117.5 -39.5s46.5 -59.833 46.5 -100.5c0 -27.333 -7.33301 -51.833 -22 -73.5s-40.667 -45.167 -78 -70.5c-29.333 -19.333 -48.333 -33.333 -57 -42s-13 -16.667 -13 -24c0 -14 5 -34 15 -60z
M139.004 50.999c0 39.333 20.667 59 62 59c19.333 0 34.333 -5.16699 45 -15.5s16 -24.833 16 -43.5c0 -38.667 -20.333 -58 -61 -58c-41.333 0 -62 19.333 -62 58z" />
    <glyph glyph-name="at" unicode="@" horiz-adv-x="714" 
d="M497 339c-23.333 -76 -35.001 -135.33 -35.001 -177.997c0 -45.333 14.333 -68 43 -68c26.667 0 48.667 14.333 66 43s26 65 26 109c0 57.333 -18 104.666 -54 141.999s-83.667 56 -143 56c-71.333 0 -133.333 -29.5 -186 -88.5s-79 -127.833 -79 -206.5
c0 -56.667 18.333 -101.334 55 -134.001s86.667 -49 150 -49c46.667 0 89 7.66699 127 23l17 -27c-50.667 -30 -108.334 -45 -173.001 -45c-81.333 0 -145.666 20.667 -192.999 62s-71 97 -71 167c0 55.333 14.833 109.5 44.5 162.5s73.5 97.667 131.5 134
s122.667 54.5 194 54.5c72.667 0 134.167 -21.833 184.5 -65.5s75.5 -102.5 75.5 -176.5c0 -62.667 -18.167 -113.834 -54.5 -153.501s-78.5 -59.5 -126.5 -59.5c-28.667 0 -51 8.83301 -67 26.5s-25.667 41.167 -29 70.5h-2c-37.333 -62.667 -74.666 -94 -111.999 -94
c-19.333 0 -35.833 8.83301 -49.5 26.5s-20.5 42.5 -20.5 74.5c0 50.667 17.667 100.5 53 149.5s73.333 73.5 114 73.5c36 0 74 -9.66699 114 -29zM413.999 300.003c-14.667 5.33301 -29.333 7.99902 -44 7.99902c-11.333 0 -20.333 -1.66699 -27 -5
c-12 -7.33301 -23.167 -23.666 -33.5 -48.999s-15.5 -53 -15.5 -83c0 -36.667 10 -55 30 -55c10.667 0 21.834 6.83301 33.501 20.5s22.167 33.167 31.5 58.5c13.333 36.667 21.666 71.667 24.999 105z" />
    <glyph glyph-name="A" unicode="A" horiz-adv-x="595" 
d="M5 0l7.00098 40c26 4.66699 44.667 12 56 22s21.666 28 30.999 54l153 403l90 23l183 -487l65 -15l-6 -40h-231l6 40l51 13l-37 104h-197l-38 -102l54 -15l-7 -40h-180zM194.001 211h160l-77 217h-2z" />
    <glyph glyph-name="B" unicode="B" horiz-adv-x="532" 
d="M36 527h236c68 0 118.167 -12.167 150.5 -36.5s48.5 -55.833 48.5 -94.5c0 -28 -8.66699 -52.333 -26 -73s-42.666 -35 -75.999 -43v-3c42 -8 74.333 -23 97 -45s34 -49.333 34 -82c0 -46 -18.833 -82.5 -56.5 -109.5s-88.834 -40.5 -153.501 -40.5h-252l8 40
c22 3.33301 36.5 8.5 43.5 15.5s10.5 18.5 10.5 34.5v382l-71 15zM208 249v-194h57c41.333 0 71.333 7.5 90 22.5s28 38.833 28 71.5c0 66.667 -37 100 -111 100h-64zM208 299h58.002c31.333 0 54.166 7 68.499 21s21.5 35.667 21.5 65c0 30 -8.83301 52 -26.5 66
s-44.834 21 -81.501 21h-40v-173z" />
    <glyph glyph-name="C" unicode="C" horiz-adv-x="525" 
d="M500 499l-29.001 -110h-48l-14 62c-24 14.667 -52.333 22 -85 22c-48 0 -87.333 -18.5 -118 -55.5s-46 -89.5 -46 -157.5c0 -67.333 14.667 -119 44 -155s68.333 -54 117 -54c34.667 0 64.334 7.33301 89.001 22l32 72h49l-10 -115
c-56.667 -27.333 -114.667 -41 -174 -41c-80 0 -144.667 23.667 -194 71s-74 109.666 -74 186.999c0 80.667 27 148.834 81 204.501s123 83.5 207 83.5c60 0 117.667 -12 173 -36z" />
    <glyph glyph-name="D" unicode="D" horiz-adv-x="595" 
d="M38 0l7.99902 40c22 3.33301 36.5 8.5 43.5 15.5s10.5 18.167 10.5 33.5v383l-71 15l7 40h236c86.667 0 155.834 -21.833 207.501 -65.5s77.5 -105.167 77.5 -184.5c0 -83.333 -26 -150.333 -78 -201s-119.333 -76 -202 -76h-239zM207.999 55h32.999
c64.667 0 113.334 15.5 146.001 46.5s49 82.167 49 153.5c0 144.667 -63 217 -189 217h-39v-417z" />
    <glyph glyph-name="E" unicode="E" horiz-adv-x="483" 
d="M38 0l8 40c22 3.33301 36.5 8.5 43.5 15.5s10.5 18.5 10.5 34.5v382l-71 15l7 40h415l-31 -123h-47l-9 61l-156 14v-174h168l-13 -56h-155v-198l167 14l32 65h49l-16 -130h-402z" />
    <glyph glyph-name="F" unicode="F" horiz-adv-x="459" 
d="M38 0l8 40c22 3.33301 36.5 8.5 43.5 15.5s10.5 18.5 10.5 34.5v382l-71 15l7 40h405l-31 -123h-47l-9 61l-146 14v-174h168l-13 -56h-155v-194l101 -15l-7 -40h-264z" />
    <glyph glyph-name="G" unicode="G" horiz-adv-x="560" 
d="M510 259l0.000976562 -217c-68.667 -35.333 -138.667 -53 -210 -53c-76.667 0 -139.334 23.667 -188.001 71s-73 109.666 -73 186.999c0 80.667 27 148.834 81 204.501s123 83.5 207 83.5c62.667 0 121.667 -12 177 -36l-29 -110h-48l-14 62
c-24.667 14.667 -53 22 -85 22c-50 0 -90.5 -18.5 -121.5 -55.5s-46.5 -89.5 -46.5 -157.5c0 -67.333 14.833 -119 44.5 -155s69.5 -54 119.5 -54c27.333 0 54.333 6.66699 81 20v135l-95 12l6 41h194z" />
    <glyph glyph-name="H" unicode="H" horiz-adv-x="669" 
d="M38 0l8.00098 40c22 3.33301 36.5 8.5 43.5 15.5s10.5 18.5 10.5 34.5v382l-71 15l7 40h230l-7 -40c-20 -3.33301 -33.5 -8.5 -40.5 -15.5s-10.5 -18.5 -10.5 -34.5v-132h253v167l-70 15l6 40h231l-7 -40c-20.667 -3.33301 -34.334 -8.5 -41.001 -15.5
s-10 -18.5 -10 -34.5v-382l70 -15l-8 -40h-232l8 40c21.333 3.33301 35.5 8.5 42.5 15.5s10.5 18.5 10.5 34.5v159h-253v-194l70 -15l-7 -40h-233z" />
    <glyph glyph-name="I" unicode="I" horiz-adv-x="308" 
d="M38 0l8 40c22 3.33301 36.5 8.5 43.5 15.5s10.5 18.5 10.5 34.5v382l-71 15l7 40h230l-7 -40c-20 -3.33301 -33.5 -8.5 -40.5 -15.5s-10.5 -18.5 -10.5 -34.5v-382l70 -15l-7 -40h-233z" />
    <glyph glyph-name="J" unicode="J" horiz-adv-x="277" 
d="M37 -178l-24.001 31l87 109v510l-70 15l6 40h231l-8 -40c-20 -3.33301 -33.5 -8.5 -40.5 -15.5s-10.5 -18.167 -10.5 -33.5v-424c0 -44.667 -11.667 -80.667 -35 -108s-68.666 -55.333 -135.999 -84z" />
    <glyph glyph-name="K" unicode="K" horiz-adv-x="580" 
d="M245 253l180 219.001l-63 15l7 40h198l-7 -40c-25.333 -2.66699 -44.5 -7.66699 -57.5 -15s-28.5 -22.333 -46.5 -45l-111 -136l129 -181c16 -22 30.333 -37.333 43 -46s29 -14.334 49 -17.001l-7 -37c-21.333 -10.667 -45.333 -16 -72 -16
c-24.667 0 -45 5.16699 -61 15.5s-35.333 31.833 -58 64.5zM38 0.000976562l8 40c22 3.33301 36.5 8.5 43.5 15.5s10.5 18.5 10.5 34.5v382l-71 15l7 40h230l-7 -40c-20 -3.33301 -33.5 -8.5 -40.5 -15.5s-10.5 -18.5 -10.5 -34.5v-382l70 -15l-7 -40h-233z" />
    <glyph glyph-name="L" unicode="L" horiz-adv-x="461" 
d="M38 0l8 40c22 3.33301 36.5 8.5 43.5 15.5s10.5 18.5 10.5 34.5v382l-71 15l7 40h231l-8 -40c-20 -3.33301 -33.5 -8.5 -40.5 -15.5s-10.5 -18.5 -10.5 -34.5v-386l153 14l33 80h53l-16 -145h-393z" />
    <glyph glyph-name="M" unicode="M" horiz-adv-x="759" 
d="M16 0l8.00098 40.002c23.333 4 39.166 10.167 47.499 18.5s13.5 23.166 15.5 44.499l34 369l-65 15l7 40h146l167 -378l168 378h145l-8 -40c-18 -2 -30.5 -5.83301 -37.5 -11.5s-10.5 -14.167 -10.5 -25.5c0 -13.333 1 -26 3 -38l41 -357l70 -15l-7 -40h-233l8 40
c20.667 3.33301 34.667 7.83301 42 13.5s11 13.834 11 24.501c0 5.33301 -1.33301 20.666 -4 45.999l-22 184l-7 72h-2c-4.66699 -16.667 -12.667 -37.667 -24 -63l-132 -297h-51l-132 299c-11.333 25.333 -19 45.666 -23 60.999h-2c-2 -32.667 -3.66699 -56 -5 -70
l-22 -255l70 -15l-7 -40h-189z" />
    <glyph glyph-name="N" unicode="N" horiz-adv-x="614" 
d="M38 0l8 40c22 3.33301 36.5 8.5 43.5 15.5s10.5 18.5 10.5 34.5v382l-71 15l7 40h124l266 -306c21.333 -24.667 36.333 -43 45 -55h3c-1.33301 24 -2 53 -2 87v219l-67 15l6 40h184l-8 -40c-20.667 -3.33301 -34.5 -8.5 -41.5 -15.5s-10.5 -18.167 -10.5 -33.5v-438h-56
l-274 319c-20.667 24.667 -34.667 43 -42 55h-3c2 -18.667 3 -44.667 3 -78v-241l67 -15l-6 -40h-186z" />
    <glyph glyph-name="O" unicode="O" horiz-adv-x="611" 
d="M160 260c0 -67.333 14.167 -119 42.5 -155s65.833 -54 112.5 -54c90.667 0 136 69.333 136 208c0 67.333 -14.167 119.833 -42.5 157.5s-65.833 56.5 -112.5 56.5c-90.667 0 -136 -71 -136 -213zM299 -11c-79.333 0 -142.501 23.167 -189.501 69.5
s-70.5 107.5 -70.5 183.5c0 82.667 26.5 152.167 79.5 208.5s119.5 84.5 199.5 84.5c78 0 139.833 -23.833 185.5 -71.5s68.5 -109.834 68.5 -186.501c0 -81.333 -25.667 -149.666 -77 -204.999s-116.666 -83 -195.999 -83z" />
    <glyph glyph-name="P" unicode="P" horiz-adv-x="505" 
d="M38 0l8.00098 40c22 3.33301 36.5 8.5 43.5 15.5s10.5 18.167 10.5 33.5v383l-71 15l7 40h232c70 0 123.833 -14 161.5 -42s56.5 -65 56.5 -111c0 -56 -20.833 -100 -62.5 -132s-96.834 -48 -165.501 -48h-50v-139l86 -15l-7 -40h-249zM208.001 475v-233h23
c44 0 78.167 11 102.5 33s36.5 52 36.5 90c0 34 -10.833 60.833 -32.5 80.5s-53.167 29.5 -94.5 29.5h-35z" />
    <glyph glyph-name="Q" unicode="Q" horiz-adv-x="611" 
d="M625 -84l14.001 -25.999c-41.333 -45.333 -86.333 -68 -135 -68c-32.667 0 -68.5 14.5 -107.5 43.5s-76.833 70.5 -113.5 124.5c-72.667 2.66699 -131.5 27 -176.5 73s-67.5 106 -67.5 180c0 82.667 26.5 152 79.5 208s119.5 84 199.5 84
c78 0 139.833 -23.833 185.5 -71.5s68.5 -109.834 68.5 -186.501c0 -73.333 -20.167 -135.5 -60.5 -186.5s-90.5 -82.833 -150.5 -95.5c27.333 -24.667 60.166 -46.5 98.499 -65.5s72.833 -29.833 103.5 -32.5zM315.001 51.001c90.667 0 136 69.333 136 208
c0 67.333 -14.167 120 -42.5 158s-65.833 57 -112.5 57c-90.667 0 -136 -71.333 -136 -214c0 -67.333 14.167 -119 42.5 -155s65.833 -54 112.5 -54z" />
    <glyph glyph-name="R" unicode="R" horiz-adv-x="571" 
d="M38 0l7.99902 39.999c22 3.33301 36.5 8.5 43.5 15.5s10.5 18.167 10.5 33.5v383l-71 15l7 40h234c70.667 0 124.667 -13.5 162 -40.5s56 -64.5 56 -112.5c0 -28.667 -8.5 -54.667 -25.5 -78s-41.5 -40.666 -73.5 -51.999l82 -132
c14.667 -23.333 28.167 -39.5 40.5 -48.5s28.5 -14.5 48.5 -16.5l-7 -37c-21.333 -10.667 -45.666 -16 -72.999 -16c-20 0 -38 5.66699 -54 17s-33.667 33 -53 65l-84 139h-81v-160l70 -15l-7 -40h-233zM207.999 474.999v-211h54c73.333 0 110 35 110 105
c0 70.667 -44.333 106 -133 106h-31z" />
    <glyph glyph-name="S" unicode="S" horiz-adv-x="459" 
d="M40 51l30.001 108.999h55l10 -69c30.667 -28.667 68.667 -43 114 -43c26 0 46.667 5.83301 62 17.5s23 27.167 23 46.5c0 18.667 -9.5 36.334 -28.5 53.001s-55.167 38.334 -108.5 65.001c-46.667 22.667 -79.334 45.334 -98.001 68.001s-28 48.667 -28 78
c0 42 18 79 54 111s80.667 48 134 48s104.333 -13 153 -39l-27 -99h-47l-11 57c-20 14.667 -47.333 22 -82 22c-22.667 0 -42 -5.83301 -58 -17.5s-24 -26.167 -24 -43.5c0 -14.667 7.33301 -28.5 22 -41.5s46 -31.5 94 -55.5c56 -28.667 94.5 -55.834 115.5 -81.501
s31.5 -54.834 31.5 -87.501c0 -47.333 -17.667 -85.833 -53 -115.5s-80 -44.5 -134 -44.5c-68.667 0 -135 20.667 -199 62z" />
    <glyph glyph-name="T" unicode="T" horiz-adv-x="517" 
d="M135 0l8 40.001c25.333 2.66699 41.833 7.66699 49.5 15s11.5 20.666 11.5 39.999v387l-111 -14l-11 -62h-47l-25 121h497l-25 -121h-47l-11 62l-111 14v-427l75 -15l-8 -40h-245z" />
    <glyph glyph-name="U" unicode="U" horiz-adv-x="610" 
d="M28 527l234.001 -0.000976562l-7 -40c-20.667 -3.33301 -35 -8.66602 -43 -15.999s-12 -18.333 -12 -33v-227c0 -101.333 46 -152 138 -152c88 0 132 50 132 150v263l-67 15l7 40h182l-7 -40c-20.667 -3.33301 -34.334 -8.5 -41.001 -15.5s-10 -18.5 -10 -34.5v-220
c0 -152 -73 -228 -219 -228c-78 0 -134.667 18 -170 54s-53 93.333 -53 172v257l-71 15z" />
    <glyph glyph-name="V" unicode="V" horiz-adv-x="577" 
d="M12 527h241.999l-8 -40l-60 -15l109 -292l27 -80h2c0.666992 2.66699 9.66699 29 27 79l105 293l-59 15l6 40h169l-7 -40c-18 -2.66699 -31.667 -8.16699 -41 -16.5s-17.666 -23.5 -24.999 -45.5l-154 -425h-99l-181 472l-60 15z" />
    <glyph glyph-name="W" unicode="W" horiz-adv-x="830" 
d="M12 527l236.999 0.000976562l-8 -40l-61 -15l95 -284c10 -30.667 16.667 -55 20 -73h2c2 11.333 8.33301 35.666 19 72.999l94 318h82l95 -318c10.667 -38 17 -62.333 19 -73h2c4.66699 22.667 11 47 19 73l82 284l-62 15l7 40h171l-7 -40
c-17.333 -2.66699 -30.333 -8.66699 -39 -18s-17 -27.333 -25 -54l-122 -415h-94l-87 293c-9.33301 32.667 -15.666 59 -18.999 79h-2c-2 -13.333 -8.66699 -39.333 -20 -78l-88 -294h-94l-163 472l-60 15z" />
    <glyph glyph-name="X" unicode="X" horiz-adv-x="583" 
d="M10 0l8 39.998c18.667 2.66699 34.167 8.33398 46.5 17.001s25.833 23 40.5 43l120 170l-145 202l-61 15l7 40h254l-8 -40l-58 -15l105 -151l110 150l-57 16l7 40h178l-7 -40c-22 -3.33301 -39 -8.66602 -51 -15.999s-25.333 -21 -40 -41l-107 -149l157 -225l59 -16
l-7 -40h-249l7 40l62 17l-122 170l-121 -171l76 -16l-7 -40h-197z" />
    <glyph glyph-name="Y" unicode="Y" horiz-adv-x="565" 
d="M12 527l222.999 -0.000976562l-7 -40l-52 -15l141 -222l130 222l-54 15l7 40h160l-7 -40c-16.667 -2 -28.667 -5.5 -36 -10.5s-15.666 -15.5 -24.999 -31.5l-147 -252v-137l75 -16l-6 -40h-251l8 40c28 4 46 9.33301 54 16s12 19.334 12 38.001v92l-181 286l-51 15z" />
    <glyph glyph-name="Z" unicode="Z" horiz-adv-x="485" 
d="M39 0l-11 43l292 436l-188 -14l-16 -63h-50l-24 125h394l13 -42l-291 -436l207 17l32 71h52l-11 -137h-399z" />
    <glyph glyph-name="bracketleft" unicode="[" horiz-adv-x="248" 
d="M233 638v-51.999c-32.667 -3.33301 -61.667 -10 -87 -20c-8 -48.667 -12 -160.667 -12 -336c0 -174 4 -286 12 -336c25.333 -10 54.333 -16.667 87 -20v-52c-60 1.33301 -119 16.333 -177 45c-14.667 89.333 -22 210.666 -22 363.999c0 152.667 7.33301 273.667 22 363
c58.667 28 117.667 42.667 177 44z" />
    <glyph glyph-name="backslash" unicode="\" horiz-adv-x="338" 
d="M76 618l257 -692l-71 -26l-257 688z" />
    <glyph glyph-name="bracketright" unicode="]" horiz-adv-x="248" 
d="M15 586v51.999c58.667 -1.33301 118 -16 178 -44c14 -85.333 21 -206.333 21 -363c0 -157.333 -7 -278.666 -21 -363.999c-58.667 -28.667 -118 -43.667 -178 -45v52c34 4 63 10.667 87 20c8 50 12 162 12 336c0 175.333 -4 287.333 -12 336c-24 9.33301 -53 16 -87 20z
" />
    <glyph glyph-name="asciicircum" unicode="^" horiz-adv-x="513" 
d="M133 183h-93l184 344h67l183 -344h-93l-126 264z" />
    <glyph glyph-name="underscore" unicode="_" horiz-adv-x="500" 
d="M0 -90v61h500v-61h-500z" />
    <glyph glyph-name="grave" unicode="`" horiz-adv-x="350" 
d="M262 466l-23 -20.998l-73 46c-28.667 17.333 -48.167 32.166 -58.5 44.499s-15.5 25.166 -15.5 38.499s5.33301 24.833 16 34.5s25.667 16.167 45 19.5z" />
    <glyph glyph-name="a" unicode="a" horiz-adv-x="424" 
d="M38 335c52.667 40.667 111.334 61 176.001 61c40.667 0 74.5 -12.667 101.5 -38s40.5 -59.666 40.5 -102.999v-193l58 -15v-17c-20.667 -25.333 -45.334 -38 -74.001 -38c-40.667 0 -67.667 19.667 -81 59c-32.667 -39.333 -68.667 -59 -108 -59
c-32.667 0 -61.334 10.333 -86.001 31s-37 48.334 -37 83.001c0 30 12.333 54.667 37 74c32.667 25.333 95.334 43.666 188.001 54.999v11c0 56 -15 91.333 -45 106c-30 -12.667 -67 -40.334 -111 -83.001zM253 187c-47.333 0 -84.667 -6 -112 -18
c-6.66699 -12 -10 -28.667 -10 -50c0 -41.333 18 -62 54 -62c28.667 0 51.667 10.333 69 31c-0.666992 9.33301 -1 30 -1 62v37z" />
    <glyph glyph-name="b" unicode="b" horiz-adv-x="476" 
d="M164 72c21.333 -20 48.333 -30 81 -30c19.333 0 35.666 3 48.999 9c28.667 34 43 82.333 43 145c0 44 -8.16699 78.333 -24.5 103s-36.166 37 -59.499 37c-33.333 0 -63 -18 -89 -54v-210zM61 33l-0.000976562 463l-68 17l7 35l164 19v-193
c0 -22.667 -1.66699 -39 -5 -49c38 48.667 82.667 73 134 73c44.667 0 81.167 -16.667 109.5 -50s42.5 -78.333 42.5 -135c0 -68.667 -20.667 -123 -62 -163s-94.666 -60 -159.999 -60c-58.667 0 -112.667 14.333 -162 43z" />
    <glyph glyph-name="c" unicode="c" horiz-adv-x="364" 
d="M331 66l13.001 -43c-34.667 -22 -76.667 -33 -126 -33c-59.333 0 -105.5 15.667 -138.5 47s-49.5 76.333 -49.5 135c0 64.667 19.667 118.5 59 161.5s88.666 64.5 147.999 64.5c44 0 82.667 -9.66699 116 -29l-22 -92h-57l-10 49c-10 8.66699 -25 13 -45 13
s-38 -4 -54 -12c-17.333 -33.333 -26 -78.333 -26 -135c0 -93.333 40.667 -140 122 -140c24 0 47.333 4.66699 70 14z" />
    <glyph glyph-name="d" unicode="d" horiz-adv-x="492" 
d="M312 103l0.00195312 200c-22.667 26 -49.667 39 -81 39c-18.667 0 -35.334 -3.66699 -50.001 -11c-28 -32 -42 -78.667 -42 -140c0 -48 8.66699 -83.333 26 -106s39.666 -34 66.999 -34c32 0 58.667 17.333 80 52zM470.002 0l-133.999 -10.999l-18 65
c-28.667 -43.333 -70.334 -65 -125.001 -65c-45.333 0 -83.833 16.667 -115.5 50s-47.5 77.666 -47.5 132.999c0 60 17.667 112.667 53 158s85.333 68 150 68c34 0 62 -11 84 -33l1 1c-4 12 -6 26.667 -6 44v86l-68 17l7 35l164 19v-515l62 -14z" />
    <glyph glyph-name="e" unicode="e" horiz-adv-x="403" 
d="M343 67l13 -42c-37.333 -23.333 -83 -35 -137 -35c-58 0 -104 16 -138 48s-51 76.667 -51 134c0 65.333 19 119.333 57 162s86.667 64 146 64c44 0 79.167 -11.833 105.5 -35.5s39.5 -56.167 39.5 -97.5c0 -29.333 -6.33301 -56 -19 -80h-220
c2 -88.667 44.667 -133 128 -133c26.667 0 52 5 76 15zM139 224l133.998 8c2.66699 12 4 24.667 4 38c0 24 -5.66699 42.5 -17 55.5s-25.666 19.5 -42.999 19.5c-15.333 0 -31.666 -3.33301 -48.999 -10c-6.66699 -10.667 -13 -27.167 -19 -49.5s-9.33301 -42.833 -10 -61.5
z" />
    <glyph glyph-name="f" unicode="f" horiz-adv-x="309" 
d="M42 0l7.00098 38.001c16.667 2.66699 28.167 7 34.5 13s9.5 15.667 9.5 29v251l-83 22l8 34h75c2 62 20.833 107.5 56.5 136.5s89.5 43.5 161.5 43.5c15.333 0 28.666 -1.66699 39.999 -5l-30 -89c-26.667 13.333 -54 20 -82 20c-12 0 -23 -1 -33 -3
c-6.66699 -18.667 -10 -46.334 -10 -83.001v-20h105l-12 -56h-93v-278l79 -15l-7 -38h-226z" />
    <glyph glyph-name="g" unicode="g" horiz-adv-x="435" 
d="M217 175c20.667 0 36.167 5.99902 46.5 17.999s15.5 32.667 15.5 62c0 30 -6.66699 53.333 -20 70s-31.666 25 -54.999 25c-41.333 0 -62 -28.333 -62 -85c0 -29.333 6.66699 -51.666 20 -66.999s31.666 -23 54.999 -23zM101 -29.001v-10.999
c0 -26 9.33301 -46.333 28 -61s45.667 -22 81 -22c30.667 0 55.834 5.66699 75.501 17s29.5 26 29.5 44c0 33.333 -34.333 50 -103 50h-52c-67.333 0 -106.333 25 -117 75l67 86c-20.667 10 -37.667 24.167 -51 42.5s-20 38.166 -20 59.499
c0 40.667 16.667 75.334 50 104.001s75.333 43 126 43c41.333 0 76.666 -9 105.999 -27c13.333 41.333 32.333 62 57 62c12.667 0 23.667 -6.33301 33 -19s15.666 -30.334 18.999 -53.001l-84 -9c24 -24 36 -52.333 36 -85c0 -41.333 -16.5 -75 -49.5 -101
s-73.833 -39 -122.5 -39c-20.667 0 -42.334 3.33301 -65.001 10l-18 -65h103c56.667 0 100.334 -9.66699 131.001 -29s46 -44 46 -74c0 -40 -20.167 -73.667 -60.5 -101s-96.166 -41 -167.499 -41c-50 0 -90.667 7.83301 -122 23.5s-47 34.5 -47 56.5
c0 17.333 8.33301 32 25 44s38.667 18.667 66 20z" />
    <glyph glyph-name="h" unicode="h" horiz-adv-x="507" 
d="M29 0l8 38.001c16.667 2.66699 28.167 7 34.5 13s9.5 15.667 9.5 29v417l-68 17l6 35l165 18v-177c0 -22.667 -2 -44.667 -6 -66c50 47.333 97.667 71 143 71c34 0 61.5 -11 82.5 -33s31.5 -53.333 31.5 -94v-215l60 -15l-8 -38h-204l8 38
c14.667 2.66699 25.167 7 31.5 13s9.5 15.667 9.5 29v159c0 45.333 -14 74.333 -42 87c-32.667 -4.66699 -68 -18.334 -106 -41.001v-232l55 -15l-7 -38h-203z" />
    <glyph glyph-name="i" unicode="i" horiz-adv-x="268" 
d="M78 514c0 35.333 19.999 52.999 59.999 52.999c38.667 0 58 -17.667 58 -53c0 -36 -19.333 -54 -58 -54c-21.333 0 -36.666 4.33301 -45.999 13s-14 22.334 -14 41.001zM36.999 -0.000976562l7 38c16.667 2.66699 28.167 7 34.5 13s9.5 15.667 9.5 29v246l-68 17l7 34
l164 20v-344l60 -15l-7 -38h-207z" />
    <glyph glyph-name="j" unicode="j" horiz-adv-x="250" 
d="M33 -173l-20 23.999l74 93v382l-68 17l7 34l164 20v-363c0 -51.333 -11.167 -91.666 -33.5 -120.999s-63.5 -58 -123.5 -86zM77 513.999c0 35.333 19.999 52.999 59.999 52.999c38.667 0 58 -17.667 58 -53c0 -36 -19.333 -54 -58 -54
c-21.333 0 -36.666 4.33301 -45.999 13s-14 22.334 -14 41.001z" />
    <glyph glyph-name="k" unicode="k" horiz-adv-x="496" 
d="M491 47l-7.00098 -37c-20 -10.667 -42 -16 -66 -16c-20.667 0 -39.167 5.16699 -55.5 15.5s-34.833 30.166 -55.5 59.499l-101 138l130 136l-60 7l7 37h193l-7 -37c-25.333 -2 -45.666 -7 -60.999 -15s-33.333 -23.333 -54 -46l-55 -58l93 -121
c18.667 -24 34.5 -40.167 47.5 -48.5s30.167 -13.166 51.5 -14.499zM28.999 0l8 38c16.667 2.66699 28.167 7 34.5 13s9.5 15.667 9.5 29v417l-68 17l7 35l164 18v-514l60 -15l-7 -38h-208z" />
    </font>
</defs>
</svg>
